<?xml version="1.0" encoding="UTF-8" standalone="no"?><!DOCTYPE svg PUBLIC "-//W3C//DTD SVG 1.1//EN" "http://www.w3.org/Graphics/SVG/1.1/DTD/svg11.dtd"><svg width="100%" height="100%" viewBox="0 0 400 434" version="1.1" xmlns="http://www.w3.org/2000/svg" xmlns:xlink="http://www.w3.org/1999/xlink" xml:space="preserve" xmlns:serif="http://www.serif.com/" style="fill-rule:evenodd;clip-rule:evenodd;stroke-linejoin:round;stroke-miterlimit:2;"><path d="M178.001,4.166l41.629,0c68.974,0 124.888,55.964 124.888,125l-0,41.667c-0,69.035 -55.914,124.999 -124.888,124.999l-41.629,0c-68.974,0 -124.888,-55.964 -124.888,-124.999l0,-41.667c0,-69.036 55.914,-125 124.888,-125Z" style="fill:url(#_Linear1);"/><clipPath id="_clip2"><rect id="smartphone" x="116.424" y="67.608" width="164.782" height="164.782"/></clipPath><g clip-path="url(#_clip2)"><g><path d="M233.475,67.608l-69.335,0c-6.63,0 -11.987,5.378 -11.987,12.009l-0,140.781c-0,6.61 5.357,11.993 11.987,11.993l69.335,-0c6.621,-0 11.998,-5.378 11.998,-11.993l0,-140.781c-0.005,-6.631 -5.377,-12.009 -11.998,-12.009Zm3.006,133.511l-75.336,0l-0,-113.254l75.336,-0l0,113.254Zm-21.598,-121.326l-32.145,0l-0,-3.505l32.15,0l-0.005,3.505Zm13.756,-1.601c-0,1.695 -1.384,3.068 -3.074,3.068c-1.695,-0 -3.073,-1.378 -3.073,-3.068c-0,-1.691 1.378,-3.069 3.073,-3.069c1.696,-0.005 3.074,1.373 3.074,3.069Zm-15.197,141.405l-29.274,0l0,-9.007l29.274,-0l0,9.007Z" style="fill:#fff;fill-rule:nonzero;"/></g></g><defs><linearGradient id="_Linear1" x1="0" y1="0" x2="1" y2="0" gradientUnits="userSpaceOnUse" gradientTransform="matrix(300.037,-344.843,344.843,300.037,221.351,472.554)"><stop offset="0" style="stop-color:#1a71bf;stop-opacity:1"/><stop offset="1" style="stop-color:#3996ef;stop-opacity:1"/></linearGradient></defs></svg>