<?xml version="1.0" encoding="UTF-8" standalone="no"?><!DOCTYPE svg PUBLIC "-//W3C//DTD SVG 1.1//EN" "http://www.w3.org/Graphics/SVG/1.1/DTD/svg11.dtd"><svg width="100%" height="100%" viewBox="0 0 400 434" version="1.1" xmlns="http://www.w3.org/2000/svg" xmlns:xlink="http://www.w3.org/1999/xlink" xml:space="preserve" xmlns:serif="http://www.serif.com/" style="fill-rule:evenodd;clip-rule:evenodd;stroke-linejoin:round;stroke-miterlimit:2;"><path d="M179.051,4.166l41.629,0c68.973,0 124.887,55.964 124.887,125l0,41.667c0,69.035 -55.914,124.999 -124.887,124.999l-41.629,0c-68.974,0 -124.889,-55.964 -124.889,-124.999l0,-41.667c0,-69.036 55.915,-125 124.889,-125Z" style="fill:url(#_Linear1);"/><path d="M237.117,129.178c-0.382,-0.856 -1.203,-1.405 -2.108,-1.405l-27.567,-0l27.206,-44.881c0.454,-0.749 0.482,-1.696 0.072,-2.469c-0.409,-0.78 -1.191,-1.261 -2.038,-1.261l-37.221,-0c-0.881,-0 -1.686,0.52 -2.082,1.344l-34.894,72.916c-0.361,0.753 -0.321,1.647 0.102,2.364c0.425,0.717 1.172,1.151 1.98,1.151l23.921,0l-26.066,64.684c-0.444,1.107 -0.049,2.389 0.93,3.018c0.377,0.237 0.796,0.356 1.212,0.356c0.668,0 1.326,-0.3 1.782,-0.862l74.442,-92.361c0.585,-0.724 0.71,-1.737 0.329,-2.594Z" style="fill:#fff;"/><defs><linearGradient id="_Linear1" x1="0" y1="0" x2="1" y2="0" gradientUnits="userSpaceOnUse" gradientTransform="matrix(300.037,-344.843,344.843,300.037,222.4,472.554)"><stop offset="0" style="stop-color:#1a71bf;stop-opacity:1"/><stop offset="1" style="stop-color:#3996ef;stop-opacity:1"/></linearGradient></defs></svg>