<?xml version="1.0" encoding="UTF-8" standalone="no"?><!DOCTYPE svg PUBLIC "-//W3C//DTD SVG 1.1//EN" "http://www.w3.org/Graphics/SVG/1.1/DTD/svg11.dtd"><svg width="100%" height="100%" viewBox="0 0 400 434" version="1.1" xmlns="http://www.w3.org/2000/svg" xmlns:xlink="http://www.w3.org/1999/xlink" xml:space="preserve" xmlns:serif="http://www.serif.com/" style="fill-rule:evenodd;clip-rule:evenodd;stroke-linejoin:round;stroke-miterlimit:2;"><path d="M176.938,4.166l41.63,0c68.974,0 124.888,55.964 124.888,125l0,41.667c0,69.035 -55.914,124.999 -124.888,124.999l-41.63,0c-68.973,0 -124.887,-55.964 -124.887,-124.999l-0,-41.667c-0,-69.036 55.914,-125 124.887,-125Z" style="fill:url(#_Linear1);"/><g><g><path d="M273.042,73.949c-6.371,5.913 -14.67,9.314 -23.358,9.572l-2.047,0c-7.345,0 -11.258,13.275 -12.432,19.656l8.428,8.429l1.837,-0c7.141,0.133 14.019,-2.701 18.993,-7.827c6.021,-6.411 8.85,-16.435 8.579,-29.83Z" style="fill:#fff;fill-rule:nonzero;"/></g></g><g><g><path d="M216.181,120.967c-11.769,10.174 -85.396,74.711 -93.734,105.083c30.101,-8.459 94.788,-82.056 104.962,-93.855l-11.228,-11.228Z" style="fill:#fff;fill-rule:nonzero;"/></g></g><g><g><path d="M230.871,105.194l-14.208,9.873l16.646,16.646l9.873,-14.208l-12.311,-12.311Z" style="fill:#fff;fill-rule:nonzero;"/></g></g><defs><linearGradient id="_Linear1" x1="0" y1="0" x2="1" y2="0" gradientUnits="userSpaceOnUse" gradientTransform="matrix(300.036,-344.843,344.843,300.036,220.289,472.554)"><stop offset="0" style="stop-color:#1167b1;stop-opacity:1"/><stop offset="1" style="stop-color:#43a2ff;stop-opacity:1"/></linearGradient></defs></svg>