<?xml version="1.0" encoding="UTF-8" standalone="no"?><!DOCTYPE svg PUBLIC "-//W3C//DTD SVG 1.1//EN" "http://www.w3.org/Graphics/SVG/1.1/DTD/svg11.dtd"><svg width="100%" height="100%" viewBox="0 0 400 434" version="1.1" xmlns="http://www.w3.org/2000/svg" xmlns:xlink="http://www.w3.org/1999/xlink" xml:space="preserve" xmlns:serif="http://www.serif.com/" style="fill-rule:evenodd;clip-rule:evenodd;stroke-linejoin:round;stroke-miterlimit:2;"><path d="M175.87,4.166l41.63,0c68.974,0 124.888,55.964 124.888,125l-0,41.667c-0,69.035 -55.914,124.999 -124.888,124.999l-41.63,0c-68.973,0 -124.888,-55.964 -124.888,-124.999l0,-41.667c0,-69.036 55.915,-125 124.888,-125Z" style="fill:url(#_Linear1);"/><clipPath id="_clip2"><rect id="database-configuration" x="121.297" y="74.611" width="150.777" height="150.777"/></clipPath><g clip-path="url(#_clip2)"><g><g><ellipse cx="184.457" cy="102.724" rx="63.16" ry="28.113" style="fill:#fff;"/><path d="M199.083,205.972c-4.428,-1.127 -7.734,-4.737 -8.569,-9.147c-1.998,0.088 -4.019,0.134 -6.057,0.134c-34.889,0 -63.16,-12.576 -63.16,-28.113l-0,21.495c-0,15.532 28.271,28.114 63.16,28.114c5.017,-0 9.877,-0.287 14.562,-0.783c-2.033,-3.604 -2.126,-8.055 0.064,-11.7Z" style="fill:#fff;fill-rule:nonzero;"/><path d="M184.457,189.249c1.974,-0 3.913,-0.053 5.841,-0.129l-0,-3.224c-0,-5.397 3.686,-10.041 8.843,-11.326c-1.355,-2.295 -1.851,-4.906 -1.53,-7.424c-4.246,0.397 -8.639,0.613 -13.154,0.613c-34.889,0 -63.16,-12.576 -63.16,-28.113l-0,21.495c0.005,15.526 28.271,28.108 63.16,28.108Z" style="fill:#fff;fill-rule:nonzero;"/><path d="M184.457,160.043c6.238,0 12.254,-0.414 17.95,-1.168l4.719,-4.72c2.261,-2.266 5.251,-3.422 8.265,-3.422c2.027,-0 4.06,0.525 5.888,1.594c1.332,-5.087 5.947,-8.715 11.297,-8.715l8.762,0c0.158,0 0.315,0.035 0.467,0.041c3.698,-3.569 5.806,-7.535 5.806,-11.723l0,-21.496c0,15.532 -28.271,28.114 -63.16,28.114c-34.889,-0 -63.149,-12.582 -63.149,-28.114l0,21.496c0,15.531 28.266,28.113 63.155,28.113Z" style="fill:#fff;fill-rule:nonzero;"/></g><g><path d="M272.074,194.652l-0,-8.762l-10.427,-1.705c-0.613,-2.465 -1.582,-4.784 -2.862,-6.922l6.075,-8.657l-6.197,-6.197l-8.552,6.151c-2.132,-1.291 -4.468,-2.278 -6.951,-2.892l-1.822,-10.374l-8.762,0l-1.688,10.345c-2.488,0.608 -4.836,1.577 -6.974,2.856l-8.528,-6.086l-6.198,6.197l5.999,8.575c-1.303,2.15 -2.29,4.492 -2.909,6.998l-10.298,1.711l0,8.762l10.292,1.822c0.614,2.506 1.601,4.854 2.909,7.004l-6.08,8.499l6.197,6.203l8.586,-6.01c2.15,1.291 4.492,2.26 6.975,2.873l1.717,10.345l8.762,0l1.84,-10.374c2.471,-0.619 4.807,-1.612 6.939,-2.903l8.651,6.069l6.191,-6.203l-6.174,-8.569c1.28,-2.132 2.249,-4.457 2.857,-6.934l10.432,-1.822Zm-35.047,7.909c-6.741,-0 -12.22,-5.467 -12.22,-12.22c0,-6.74 5.479,-12.219 12.22,-12.219c6.752,-0 12.22,5.479 12.22,12.219c-0,6.753 -5.468,12.22 -12.22,12.22Z" style="fill:#fff;fill-rule:nonzero;"/></g></g></g><defs><linearGradient id="_Linear1" x1="0" y1="0" x2="1" y2="0" gradientUnits="userSpaceOnUse" gradientTransform="matrix(300.038,-344.843,344.843,300.038,219.22,472.554)"><stop offset="0" style="stop-color:#1a71bf;stop-opacity:1"/><stop offset="1" style="stop-color:#3996ef;stop-opacity:1"/></linearGradient></defs></svg>