<?xml version="1.0" encoding="UTF-8" standalone="no"?><!DOCTYPE svg PUBLIC "-//W3C//DTD SVG 1.1//EN" "http://www.w3.org/Graphics/SVG/1.1/DTD/svg11.dtd"><svg width="100%" height="100%" viewBox="0 0 10057 6898" version="1.1" xmlns="http://www.w3.org/2000/svg" xmlns:xlink="http://www.w3.org/1999/xlink" xml:space="preserve" xmlns:serif="http://www.serif.com/" style="fill-rule:evenodd;clip-rule:evenodd;stroke-linejoin:round;stroke-miterlimit:2;"><g><path d="M941.707,6879.01c0,0 -1302.04,-1409.96 -844.095,-3053.5c299.108,-1073.5 1290.88,-423.121 1238.06,-2163.42c-52.813,-1740.3 2922.23,-1921.14 3747.03,-1416.25c824.833,504.896 842.292,827.483 2545.5,626.988c1703.21,-200.496 2444.42,1329.63 1561.96,2615.12c-772.749,1125.73 1744.46,1012.77 248.084,3394.19l-8496.53,-3.125Z" style="fill:#ebf3fa;fill-rule:nonzero;"/><path d="M5064.11,1734.87c8.499,21.225 15.375,44.096 20.166,68.554c9.084,46.641 -0.375,120.246 -21.458,162.916c-2.25,4.588 -4.542,9.046 -6.875,13.504c-145.25,269.588 -525.917,215.971 -588.584,-88.203c-8.166,-39.776 -3.083,-97.688 11.126,-142.076c3.458,-10.237 7.166,-19.862 11.374,-28.02c19.376,-38.709 43.417,-71.113 70.834,-97.488c156.333,-150.154 417.542,-100.992 503.417,110.813Zm-949.5,421.462l148.416,-16.721c12.375,-1.275 24.375,4.492 31.167,14.913c8.583,13.337 17.792,26.404 27.583,39.204c18.25,23.787 37.792,45.771 58.792,65.621c9.791,9.312 13.042,23.454 8.042,35.929l-56.917,145.346c-6.208,15.45 0.625,33.204 15.792,40.666l127.875,63.334c14.541,7.141 31.916,2.225 40.666,-11.267l77.334,-121.158c7.25,-11.942 21.708,-17.479 35.625,-13.784c58.749,15.521 119.916,21.6 181.041,18.025c14.75,-0.846 28.5,8.755 32.917,22.817l26.208,83.417c5.125,15.783 21.25,25.583 37.709,22.404l138.875,-28.088c2.874,-0.554 5.541,-1.366 8.041,-2.662c12.042,-5.742 19.417,-18.825 17.75,-32.529l-12.375,-110.883l-3.041,-27.021c23.083,-12.996 45.749,-27.913 67.333,-44.48c29.083,-22.321 55.583,-46.958 79.042,-73.162c8.958,-9.975 23.041,-13.583 35.5,-8.571l117.041,45.979c16.042,6.183 34.167,-0.729 41.667,-16.133l48.417,-97.763l13.791,-28.05c7.625,-15.274 2.5,-33.958 -11.875,-43.058l-101.166,-64.7c-11.834,-7.366 -17.667,-21.388 -14.292,-34.658c9.458,-39.901 14.708,-80.7 15.417,-121.517c0.375,-3.559 0.333,-6.817 0.333,-10.304c-0.083,-1.175 0.083,-2.317 0.208,-3.459c1.25,-13.083 10.375,-23.97 22.958,-27.891l135.376,-42.846c1.541,-0.375 3.041,-1.108 4.416,-1.742c13.167,-6.404 20.667,-21.22 17.834,-35.887l-27.792,-138.488c-3.375,-16.712 -18.834,-28.05 -35.917,-26.233l-154.792,17.504c-13.124,1.642 -25.708,-5.129 -31.958,-16.762c-14,-25.433 -30.125,-50.225 -48.5,-74.146c-9.708,-12.671 -19.833,-24.812 -30.417,-36.429c-8.499,-9.492 -11.041,-22.959 -6.333,-34.775l54.667,-139.717c6.083,-15.35 -0.667,-32.979 -15.625,-40.408l-126.584,-62.467c-15.249,-7.587 -33.833,-2.592 -43.166,11.979l-61.208,95.85c-8.209,12.867 -23.917,18.354 -38.292,13.555c-56.25,-19.497 -115.208,-29.93 -174.625,-31.367c-14.042,-0.109 -26.542,-9.421 -30.792,-23.001l-38.583,-121.999c-5.167,-16.375 -21.875,-26.129 -38.708,-22.884l-138,27.621c-16.584,3.279 -27.834,18.883 -25.792,35.417l0.625,6.483l14.417,128.817c1.583,13.804 -5.501,26.82 -17.834,33.216l-0.125,0.101c-29.583,15.283 -58.208,33.362 -85.625,54.391c-14.625,11.209 -28.375,22.996 -41.708,35.3c-9.167,8.671 -22.417,11.229 -34.125,6.667l-118.792,-46.679c-16.25,-6.438 -34.75,0.77 -42.375,16.275l-62.292,126.041c-1.749,3.605 -2.708,7.429 -3.208,11.084c-1.208,12.042 4.375,24.4 14.959,31.258l80.999,51.458c9.834,6.413 15.542,17.63 15.084,29.075c-0.167,3 -0.667,6.067 -1.667,9.079c-24.625,72.305 -34.416,148.65 -29.125,224.901c1.083,12.924 -6.083,25 -17.333,30.958c-1.625,0.833 -3.333,1.533 -5.167,2.108l-109.625,34.612c-15.875,5.001 -25.458,21.172 -22.291,37.63l0.625,3.221l27,135.004c3.541,16.979 19.25,28.342 36.5,26.429Z" style="fill:#dfebfd;fill-rule:nonzero;"/><path d="M8827.24,1636.48c-142.499,-287.171 -635.832,-90.583 -635.832,-90.583c-0,-0 -242.251,600.212 -340.876,632.954c-98.666,32.746 106.875,-553.604 106.875,-553.604c-199.75,19.966 -651.541,359.471 -651.541,359.471c-0,-0 154.708,613.366 51.041,620.82c-103.708,7.45 -109.292,-550.095 -109.292,-550.095c-178.374,94.587 -311.458,351.062 -311.458,351.062c-149.708,404.371 377.292,575.725 377.292,575.725c-0,-0 49,213.721 -34.792,486.692l0,0.012c0,0 -20.916,51.479 -36,134.908l51.709,-10.25c1.458,-14.708 3.458,-29.041 6.041,-42.941l0.084,-0.25l0.083,-0.604c1.958,-8.696 4.791,-21.075 8.417,-36.188l-0,-0.129c9.666,-34.071 15.791,-59.037 19.291,-76.875l0,-0.163c28.084,-106.491 71.125,-246.541 111.334,-282.108c-0,0 -7.292,-6.916 -15.75,-21.521c4.999,6.863 10.249,14.017 15.75,21.521c126.208,172.1 575.124,115.788 811.666,16.217c236.542,-99.571 115.209,-147.771 -39.999,-234.275c-155.209,-86.505 -427.501,-1.48 -518.501,-29.413c-90.958,-27.929 20.375,-96.058 187.292,-116.066c166.916,-20.017 281.75,128.054 552.333,100.587c270.584,-27.467 373.709,-567.171 373.709,-567.171c-172.083,93.333 -520.958,57.484 -546.167,-3.233c-25.208,-60.717 462.916,-151.113 535.041,-185.158c72.084,-34.042 174.708,-212.171 32.25,-499.342Z" style="fill:#dfebfd;fill-rule:nonzero;"/><path d="M687.707,3843.72c-58,-315.296 454.742,-453.505 454.742,-453.505c0,0 553.596,335.379 652.2,302.463c98.6,-32.917 -417.321,-379.15 -417.321,-379.15c171.908,-103.721 737.033,-102.625 737.033,-102.625c0,-0 243.671,583.775 331.142,527.608c87.467,-56.166 -242.133,-505.887 -242.133,-505.887c199.492,-31.159 459.713,94.429 459.713,94.429c362.154,234.033 42.937,687 42.937,687c0,-0 88.813,200.458 319.462,368.792l0.009,-0c-0,-0 47.595,28.708 109.675,86.458l-47.559,22.75c-9.987,-10.875 -20.17,-21.167 -30.575,-30.75l-0.195,-0.167l-0.451,-0.375c-6.774,-5.791 -16.466,-14.042 -28.395,-23.958l-0.046,-0.042l-0.058,-0.041c-28.142,-21.501 -48.017,-37.834 -61.488,-50l-0.112,-0.126c-86.275,-68.458 -204.671,-154.75 -258.18,-159.166c0,-0 1.721,-9.917 -0.258,-26.667c0.083,8.5 0.167,17.375 0.258,26.667c2.088,213.417 -391.033,437.333 -640.075,499.333c-249.037,62.042 -180.8,-49.25 -108.379,-211.5c72.425,-162.25 341.371,-257.333 397.484,-334.25c56.108,-76.875 -73.855,-64.708 -219.471,19.292c-145.617,84 -148.85,271.375 -381.938,411.5c-233.087,140.166 -639.025,-230.167 -639.025,-230.167c193.675,-28.375 451.513,-266.125 435.313,-329.833c-16.2,-63.709 -461.159,156.416 -539.284,172.375c-78.125,15.917 -267.029,-65.167 -325.025,-380.458Z" style="fill:#dfebfd;fill-rule:nonzero;"/><path d="M9131.4,5867.39c252.292,-197.792 -40.25,-640.958 -40.25,-640.958c0,-0 -636.875,-115.5 -688.958,-205.459c-52.042,-89.999 563.792,-7.583 563.792,-7.583c-60.083,-191.583 -484.125,-565.125 -484.125,-565.125c-0,0 -569.255,275.875 -597.588,175.875c-28.329,-100 516.505,-218.583 516.505,-218.583c-128.793,-155.5 -406.918,-233.792 -406.918,-233.792c-426.333,-64.583 -487.249,486.208 -487.249,486.208c-0,0 -199.334,91.334 -483.625,64.667l-0.042,-0.042c0,0 -54.625,-10.041 -139.417,-7.875l20.542,48.542c14.708,-1.541 29.167,-2.5 43.292,-2.75l0.875,0c8.916,0.125 21.583,0.417 37.125,0.833l0.041,0l0.084,0.042c35.333,2.542 61.041,3.459 79.208,3.25l0.166,0c109.959,5.875 255.834,19.625 298.792,51.792c0,-0 5.292,-8.542 17.875,-19.792c-5.666,6.292 -11.625,12.917 -17.875,19.792c-142.916,158.5 3.25,586.625 148.75,798.083c145.459,211.417 168.042,82.875 221.292,-86.666c53.25,-169.5 -85.25,-418.917 -76.333,-513.667c8.875,-94.792 98.166,0.417 151.625,159.833c53.412,159.375 -68.255,301.875 13.5,561.25c81.787,259.417 631.166,250.917 631.166,250.917c-126.292,-149.584 -161.917,-498.458 -107.583,-535.459c54.333,-37 241.833,422.625 289.833,486.334c47.917,63.708 243.166,128.083 495.5,-69.667Z" style="fill:#dfebfd;fill-rule:nonzero;"/><path d="M6876.24,2061.83l-26.958,-0c20.708,-181.517 88.584,-587.254 297.25,-867.121c13.542,-18.125 32.709,-26.279 51.667,-26.279c32.542,-0 64.5,23.971 66.375,62.704c0.042,1.025 0.083,2.058 0.125,3.109c3.042,95.695 -251.792,491.058 -388.459,827.587Z" style="fill:#d8e8fd;fill-rule:nonzero;"/><path d="M7022.15,2061.83l-98.583,-0c116.5,-252.1 327.083,-625.475 629.708,-847.833c12.625,-9.275 27.542,-13.859 42.333,-13.859c20.084,0 39.876,8.488 53.125,25.184c15,18.862 23.209,49.375 11.292,98.729c-24.958,103.158 -362.125,415.942 -637.875,737.779Z" style="fill:#d8e8fd;fill-rule:nonzero;"/><path d="M2436.18,2986.7c-221.729,-174.825 -490.854,-337.292 -521.045,-401.604c-0.371,-0.801 -0.738,-1.592 -1.092,-2.379c-17.463,-38.817 13.021,-78.338 50.2,-78.338c8.004,0 16.316,1.829 24.529,5.896c184.725,91.421 341.121,255.65 447.408,389.958l0,86.467Z" style="fill:#d8e8fd;fill-rule:nonzero;"/><path d="M2436.18,3123.5c-335.416,-140.95 -724.158,-250.429 -783.65,-319.938c-27.82,-32.508 -33.283,-58.571 -29.245,-78.458c5.541,-27.296 30.445,-45.775 57.629,-45.775c3.225,-0 6.487,0.262 9.75,0.8c284.671,46.871 559.862,217.275 745.516,356.758l0,86.613Z" style="fill:#d8e8fd;fill-rule:nonzero;"/><path d="M8058.74,2180.66l-0,3750.43c-0,65.583 -47.334,118.833 -105.75,118.833l-5411.04,-0c-58.396,-0 -105.767,-53.25 -105.767,-118.833l0,-3750.43c0,-65.666 47.371,-118.833 105.767,-118.833l5411.04,-0c58.416,-0 105.75,53.167 105.75,118.833Z" style="fill:#aec3ff;fill-rule:nonzero;"/><path d="M7791.28,1966.56l0,304.137l-6038.72,0l-0,-304.137c-0,-62.771 50.875,-113.596 113.595,-113.596l5811.54,0c62.709,0 113.583,50.825 113.583,113.596Z" style="fill:#f99746;fill-rule:nonzero;"/><path d="M1937.29,2061.83c-0,-29.208 23.675,-52.888 52.883,-52.888c29.208,0 52.883,23.68 52.883,52.888c0,29.204 -23.675,52.879 -52.883,52.879c-29.208,0 -52.883,-23.675 -52.883,-52.879Z" style="fill:#dfebfd;fill-rule:nonzero;"/><path d="M2145.67,2061.83c-0,-29.208 23.675,-52.888 52.883,-52.888c29.208,0 52.884,23.68 52.884,52.888c-0,29.204 -23.676,52.879 -52.884,52.879c-29.208,0 -52.883,-23.675 -52.883,-52.879Z" style="fill:#dfebfd;fill-rule:nonzero;"/><path d="M2359.32,2061.83c-0,-29.208 23.675,-52.888 52.883,-52.888c29.208,0 52.883,23.68 52.883,52.888c0,29.204 -23.675,52.879 -52.883,52.879c-29.208,0 -52.883,-23.675 -52.883,-52.879Z" style="fill:#dfebfd;fill-rule:nonzero;"/><path d="M6127.15,1320.1c4.125,10.338 7.458,21.475 9.792,33.387c4.416,22.713 -0.167,58.559 -10.458,79.342c-1.084,2.234 -2.209,4.404 -3.334,6.575c-70.708,131.292 -256.125,105.179 -286.666,-42.954c-3.959,-19.371 -1.459,-47.575 5.458,-69.192c1.667,-4.987 3.458,-9.675 5.542,-13.65c9.416,-18.85 21.125,-34.629 34.499,-47.475c76.125,-73.125 203.334,-49.183 245.167,53.967Zm-462.458,205.254l72.292,-8.142c6.041,-0.62 11.875,2.188 15.166,7.263c4.209,6.496 8.667,12.858 13.459,19.092c8.916,11.583 18.416,22.291 28.625,31.958c4.791,4.533 6.375,11.42 3.916,17.495l-27.708,70.788c-3.042,7.525 0.292,16.171 7.708,19.804l62.25,30.842c7.084,3.479 15.542,1.087 19.792,-5.488l37.667,-59.004c3.541,-5.816 10.583,-8.512 17.375,-6.712c28.583,7.558 58.374,10.521 88.166,8.779c7.167,-0.413 13.875,4.263 16,11.113l12.792,40.625c2.5,7.687 10.333,12.458 18.375,10.908l67.625,-13.679c1.375,-0.267 2.708,-0.663 3.916,-1.296c5.834,-2.796 9.459,-9.167 8.626,-15.842l-6.001,-54l-1.499,-13.158c11.25,-6.329 22.291,-13.596 32.791,-21.663c14.167,-10.871 27.083,-22.871 38.5,-35.633c4.375,-4.854 11.209,-6.612 17.292,-4.171l57,22.392c7.792,3.012 16.625,-0.354 20.292,-7.858l23.583,-47.609l6.708,-13.663c3.708,-7.437 1.208,-16.541 -5.791,-20.97l-49.292,-31.509c-5.75,-3.587 -8.583,-10.416 -6.917,-16.879c4.584,-19.429 7.167,-39.3 7.5,-59.179c0.167,-1.729 0.167,-3.321 0.167,-5.021c-0.042,-0.566 0,-1.125 0.083,-1.679c0.625,-6.375 5.042,-11.679 11.209,-13.587l65.916,-20.863c0.75,-0.183 1.459,-0.542 2.125,-0.85c6.417,-3.121 10.084,-10.333 8.709,-17.479l-13.542,-67.442c-1.625,-8.141 -9.167,-13.662 -17.5,-12.779l-75.375,8.525c-6.417,0.804 -12.542,-2.496 -15.583,-8.162c-6.792,-12.388 -14.667,-24.459 -23.584,-36.109c-4.75,-6.17 -9.666,-12.083 -14.833,-17.742c-4.125,-4.62 -5.375,-11.179 -3.083,-16.937l26.625,-68.041c2.958,-7.476 -0.334,-16.059 -7.584,-19.68l-61.666,-30.42c-7.459,-3.696 -16.501,-1.263 -21.042,5.833l-29.792,46.679c-4,6.266 -11.666,8.938 -18.666,6.6c-27.375,-9.492 -56.084,-14.575 -85.042,-15.275c-6.834,-0.05 -12.917,-4.587 -15,-11.2l-18.75,-59.417c-2.542,-7.97 -10.667,-12.724 -18.875,-11.141l-67.209,13.45c-8.083,1.596 -13.541,9.195 -12.583,17.25l0.334,3.154l7.041,62.737c0.75,6.721 -2.708,13.063 -8.708,16.175l-0.084,0.046c-14.374,7.446 -28.333,16.25 -41.666,26.492c-7.125,5.458 -13.833,11.2 -20.334,17.192c-4.458,4.225 -10.916,5.47 -16.625,3.25l-57.833,-22.734c-7.917,-3.138 -16.916,0.375 -20.625,7.921l-30.333,61.388c-0.875,1.754 -1.333,3.616 -1.583,5.395c-0.584,5.867 2.125,11.884 7.291,15.225l39.417,25.059c4.791,3.125 7.583,8.587 7.375,14.158c-0.084,1.463 -0.333,2.958 -0.792,4.425c-12,35.208 -16.791,72.392 -14.208,109.525c0.542,6.296 -2.958,12.175 -8.459,15.079c-0.791,0.404 -1.625,0.746 -2.499,1.025l-53.375,16.859c-7.751,2.433 -12.417,10.312 -10.876,18.324l0.334,1.567l13.125,65.75c1.75,8.271 9.375,13.804 17.75,12.871Z" style="fill:#dfebfd;fill-rule:nonzero;"/><path d="M2316.8,4918.64c0,0 8.05,-87.75 -90.013,-87.75c0,0 29.713,8.042 45.084,24.167c-0,-0 -62.546,-36.709 -130.609,19.708c-68.066,56.417 -25.775,197.917 -46.475,224.792c-20.695,26.875 -101.3,32.25 -91.45,119.125c9.85,86.875 255.817,195.667 240.021,267.542c0,-0 96.392,-141.667 27.467,-206.334c0,0 33.596,31.625 37.017,69.25c-0,0 9.116,-73.458 -37.617,-96.917c-41.354,-20.791 -75.229,-96.833 -71.646,-110.416c3.584,-13.584 118.221,-223.167 118.221,-223.167Z" style="fill:#2c3a64;fill-rule:nonzero;"/><path d="M2220.25,5340.05c0,-0 73.259,303.083 145.175,363.667c43.229,36.416 171.759,119.999 171.759,119.999l-53.463,19.376c0,-0 -178.271,-60.167 -218.183,-107.126c-39.913,-46.916 -149.188,-282.041 -149.188,-282.041l103.9,-113.875Z" style="fill:#ffb27d;fill-rule:nonzero;"/><path d="M1531.7,5872.51c0.646,1.167 1.329,2.375 2.017,3.583c16.029,27.834 52.808,96.126 93.317,170.834c19.158,35.458 39.22,72.375 58.254,107.083c32.791,59.917 62.62,113.292 80.029,141.5c17.7,28.667 30.733,48.834 36.004,56.875l0.042,0.042c1.587,2.5 1.929,5.416 1.716,8.333c-1.845,25.292 -1.329,50.375 1.155,75.125c24.433,243.083 188.35,373.333 188.35,373.333l48.737,7.209c0,-0 -68.971,-255.5 -89.287,-399.959c-3.43,-24.458 -4.93,-44.333 -3.73,-57.249c3.601,-37.667 -3.087,-92.917 -15.733,-156.334c-22.504,-112.75 -63.779,-251.125 -99.658,-361.875c-2.271,-7.083 -70.813,-255 -70.813,-255c-57.525,50.292 -267.345,71.042 -267.345,71.042c-0,-0 -35.58,86.5 36.945,215.458Z" style="fill:#2f539b;fill-rule:nonzero;"/><path d="M2143.61,6878.1l-203.409,-0c0,-0 -4.875,-31 5.75,-54.5c10.179,-22.584 24.688,-23.292 1.85,-58.667c12.929,13.292 54.479,18.791 83.884,14.875c3.604,5.833 23.229,45 35.266,53.667c13.292,9.541 72.567,6.125 76.659,44.625Z" style="fill:#234375;fill-rule:nonzero;"/><path d="M1531.7,5872.51c0.646,1.167 1.329,2.375 2.017,3.583c16.029,27.834 102.729,188 143.237,262.709c-46.937,-193.125 -14.291,-386.208 -14.291,-386.208l-130.963,119.916Z" style="fill:#233862;fill-rule:nonzero;"/><path d="M2289.05,4906.3c1.333,-5.334 -116.175,53.125 -122.133,59.708c-55.109,61.125 -39.396,140.917 -7.863,141.667c20.225,0.5 16.304,34.125 16.304,34.125l225.305,-95.292c-0,0 -27.129,-158.208 -111.613,-140.208Z" style="fill:#2c3a64;fill-rule:nonzero;"/><path d="M2213.34,5294.51c-0,0 34.287,68.5 30.008,124.083c0,0 -41.342,65.251 -148.563,81.792c0,0 92.184,-205.917 118.555,-205.875Z" style="fill:#f99746;fill-rule:nonzero;"/><path d="M1690.27,5672.18l0.692,-38.042c-75.8,9.542 -261.354,-90.583 -261.354,-90.583c-0,-0 -79.296,52.75 -90.15,203.375c-5.3,73.5 -38.821,384.417 -42.53,477.25c-1.35,33.666 -1.8,57.667 -1.954,67.291l0.013,0.084c-0.046,2.916 -1.421,5.5 -3.221,7.833c-15.683,19.917 -29.292,41.042 -41.075,62.959c-115.658,215.166 -55.175,507.583 -55.175,507.583l26.858,-6.833c0,-0 97.796,-303.125 161.713,-434.251c10.85,-22.208 20.704,-39.5 28.95,-49.541c24.033,-29.167 49.375,-78.75 74.354,-138.417c47.217,-112.791 202.879,-568.708 202.879,-568.708Z" style="fill:#2f539b;fill-rule:nonzero;"/><path d="M1357.27,6878.1l-203.408,-0c-0,-0 -4.875,-31 5.746,-54.5c10.183,-22.584 26.129,-32.834 22.308,-60.126c12.929,13.292 33.996,28.209 63.4,24.251c3.604,5.833 23.258,37.083 35.292,45.75c13.295,9.541 72.57,6.125 76.662,44.625Z" style="fill:#234375;fill-rule:nonzero;"/><path d="M2081.05,5544.05c-27.321,4.667 4.463,26.375 -33.117,30.458c-53.483,5.875 -108.708,9.834 -137.633,21.375c-10.55,4.209 -17.608,9.417 -19.812,16.042c-12.538,37.708 -91.95,102.5 -91.95,102.5c-354.196,-16.125 -377.009,-173.959 -377.009,-173.959c229.88,-223.249 425.442,-344.958 587.067,-360.041c39.337,-3.667 92.358,1.292 117.238,12.333c56.529,25.167 87.504,101.75 87.504,101.75c-0,0 -28.471,231.834 -132.288,249.542Z" style="fill:#f99746;fill-rule:nonzero;"/><path d="M2047.93,5574.51c-53.483,5.875 -108.708,9.834 -137.633,21.375c-11.825,-176.625 71.538,-309.5 71.538,-309.5c-0,0 54.383,221.292 66.095,288.125Z" style="fill:#ed7d2b;fill-rule:nonzero;"/><path d="M2122.81,5207.35c10.109,31.666 43.813,121.916 90.53,87.166c-1.584,-6.708 8.233,-26.291 19.804,-46.208c14.791,-25.417 32.408,-51.375 32.408,-51.375l-76.129,-66.708l-4.542,-3.959c-19.908,34.75 -39.487,51.5 -56.629,64.292c-5.212,3.875 -7.417,10.583 -5.442,16.792Z" style="fill:#ffb27d;fill-rule:nonzero;"/><path d="M2265.54,5196.97c-0,0 -17.596,25.917 -32.392,51.334c-47.317,-29.167 -47.366,-87.709 -43.721,-118.083l76.113,66.749Z" style="fill:#ed985f;fill-rule:nonzero;"/><path d="M2267.65,5230.39c0,0 -114.892,-63.958 -73.979,-134.875c40.913,-70.958 53.638,-126.958 128.725,-89.125c75.083,37.792 73.596,73 65.7,100c-7.896,27 -89.508,138.792 -120.446,124Z" style="fill:#ffb27d;fill-rule:nonzero;"/><path d="M2407.51,5065.01c-5.262,-31.458 -21.262,-34.5 -32.416,-32.375c-42.429,-70.166 -111.75,-42.791 -111.75,-42.791c-37.021,46.458 -90.55,54.375 -90.55,54.375c-0,-0 13.333,24.833 68.262,40.166c16.78,4.709 35.825,1.875 54.192,-4.333c-38.113,21.25 -77.967,29.416 -77.967,29.416c72.388,6.626 141.263,-59.583 148.404,-66.666c3.342,10.292 9.2,31.75 5.692,47.458c-4.762,21.333 -23.7,59.959 -12.137,64.959c-0,-0 56.162,-42.959 48.27,-90.209Z" style="fill:#2c3a64;fill-rule:nonzero;"/><path d="M3442.57,6618.6l-857.246,-417.959l109.613,-224.833l857.258,417.958l-109.625,224.834Z" style="fill:#2b478b;fill-rule:nonzero;"/><path d="M2317.2,6247.64c-78.687,-38.333 -134.604,-109.417 -153.413,-195c-7.637,-34.75 14.342,-69.125 49.084,-76.75c34.746,-7.625 69.1,14.334 76.733,49.084c10.308,46.916 40.942,85.874 84.046,106.875c77.321,37.708 170.896,5.458 208.592,-71.834c37.695,-77.333 5.458,-170.917 -71.863,-208.583c-35.121,-17.125 -75.075,-20.458 -112.496,-9.417c-34.116,10.083 -69.942,-9.417 -80.02,-43.542c-10.076,-34.083 9.412,-69.916 43.529,-79.999c68.358,-20.209 141.32,-14.126 205.433,17.166c141.171,68.792 200.029,239.667 131.208,380.833c-68.825,141.167 -239.667,200 -380.833,131.167Z" style="fill:#2b478b;fill-rule:nonzero;"/><path d="M3529.94,6838.89c-141.163,-68.833 -200.034,-239.666 -131.205,-380.833c68.834,-141.167 239.667,-200.042 380.834,-131.209c64.125,31.25 113.833,85.001 140.042,151.292c13.083,33.083 -3.125,70.5 -36.209,83.584c-33.083,13.083 -70.5,-3.167 -83.583,-36.25c-14.333,-36.292 -41.583,-65.709 -76.709,-82.834c-77.333,-37.667 -170.879,-5.458 -208.583,71.875c-37.712,77.333 -5.462,170.875 71.875,208.583c43.084,21.042 92.625,21.167 135.959,0.376c32.083,-15.375 70.541,-1.834 85.916,30.208c15.375,32.083 1.875,70.583 -30.208,85.958c-79,37.875 -169.459,37.625 -248.129,-0.75Z" style="fill:#2b478b;fill-rule:nonzero;"/><path d="M3243.66,6419.3l-451.613,-220.167c-12.954,-6.333 -18.383,-22.083 -12.071,-35.042l11.484,-23.541c6.312,-12.958 22.074,-18.375 35.029,-12.083l451.612,220.166c12.954,6.333 18.384,22.083 12.067,35.042l-11.475,23.541c-6.317,12.959 -22.083,18.417 -35.033,12.084Z" style="fill:#233862;fill-rule:nonzero;"/><path d="M2201.87,6019.26c0,0 2.483,21.417 11.529,32.5c9.05,11.042 35.375,37.792 35.838,53.458c-0,0 -1.33,6.959 -6.975,5.667c-5.646,-1.25 -25.25,-20.666 -35.309,-19.292c0,0 5.367,31.375 10.692,40.209c5.321,8.833 15.108,42.166 11.917,49.792c-3.196,7.624 -56.463,-36.792 -72.596,-58.459c-16.133,-21.708 -0.254,-109.75 -0.254,-109.75l45.158,5.875Z" style="fill:#ffb27d;fill-rule:nonzero;"/><path d="M2094.08,5256.47c0,-0 -134.504,-7.334 -158.404,77.083c-23.9,84.458 44.842,421.541 59.654,456.333c26.967,63.334 158.263,244.084 158.263,244.084l48.283,-14.709c0,0 -87.546,-276.125 -107.092,-303.458c-30.679,-42.917 39.559,-422.583 -0.704,-459.333Z" style="fill:#ffb27d;fill-rule:nonzero;"/><path d="M1909.15,5446.51c0.35,1.959 127.283,23.334 206.675,-16.958c0,-0 66.325,-207.792 -28.458,-197.833c-94.779,9.958 -150.904,39.791 -153.292,85.166c-2.392,45.375 -24.925,129.625 -24.925,129.625Z" style="fill:#f99746;fill-rule:nonzero;"/><path d="M2471.12,5688.59c-6.379,0.292 -18.088,2.376 -22.292,5.626c-7.333,5.666 -15.579,15.5 0.854,23.666c24.654,12.292 73.946,6.834 72.021,-0.542c-6.062,-23.333 -14.958,-30.416 -50.583,-28.75Z" style="fill:#ffb27d;fill-rule:nonzero;"/><path d="M3179.8,2380.92c-6.487,7.433 -7.312,15.737 -4.104,24.608l0.063,0.121c5.937,16.404 25.55,34.725 48.329,53.012c2.908,2.35 5.496,4.488 7.754,6.467c0.592,0.521 1.183,1.042 1.742,1.562c0.458,0.4 0.9,0.821 1.337,1.209c21.242,19.583 13.25,24.067 51.413,63.8c43.512,45.275 73.483,46.091 81.983,41.966c7.208,-3.516 -7.417,-27.529 -23.658,-54.516c-0.788,-1.3 -1.559,-2.621 -2.367,-3.934c-2.163,-3.592 -4.308,-7.233 -6.458,-10.842c-19.021,-32.478 -14.138,-47.72 -9.626,-96.062c3.663,-39.279 61.109,-219.454 61.109,-219.454l-83.383,-14.362c-0,-0 -25.117,143.47 -52.784,165.562c-14.795,11.779 -31.358,11.925 -45.575,20.659c-1.008,0.603 -1.992,1.228 -2.958,1.87c-8.083,5.355 -16.317,10.883 -22.817,18.334Z" style="fill:#ffb27d;fill-rule:nonzero;"/><path d="M3179.8,2380.92c-6.487,7.433 -7.312,15.737 -4.104,24.608l0.063,0.121c7.27,16.387 26.387,34.612 48.408,52.845c2.875,2.388 5.412,4.584 7.675,6.634c0.592,0.521 1.183,1.042 1.742,1.562c0.458,0.4 0.9,0.821 1.337,1.209c21.242,19.583 13.25,24.067 51.413,63.8c43.512,45.275 73.483,46.091 81.983,41.966c7.208,-3.516 -7.417,-27.529 -23.658,-54.516c-8.475,-3.105 -47.821,-19.088 -77.567,-57.154c-26.204,-33.434 -43.679,-76.396 -61.517,-101.279c-1.008,0.603 -1.992,1.228 -2.958,1.87c-8.083,5.355 -16.317,10.883 -22.817,18.334Z" style="fill:#233862;fill-rule:nonzero;"/><path d="M3852.2,2328.84c5.167,25.738 41.833,21.446 82.833,11.429c41,-10.02 31.25,1.888 89.584,-4.566c58.333,-6.459 76.041,-28.213 77.791,-36.888c1.584,-7.7 -27.208,-10.412 -58.166,-13.975c-3.876,-0.437 -7.792,-0.916 -11.667,-1.395c-34.917,-4.384 -60.5,-26.909 -92.209,-45.409c-30.041,-17.525 -74.833,-88.921 -74.833,-88.921l-80.041,6.338c-0,-0 42,63.766 58.25,91.496c9.541,16.304 9.041,37.87 7.833,54.521c-0.625,9.054 -1.208,18.304 0.625,27.37Z" style="fill:#ffb27d;fill-rule:nonzero;"/><path d="M3935.03,2340.27c41,-10.02 31.25,1.888 89.584,-4.566c58.333,-6.459 76.041,-28.213 77.791,-36.888c1.584,-7.7 -27.208,-10.412 -58.166,-13.975l-0.251,0.596c0,0 -34.999,24.809 -83.583,25.971c-39.583,0.959 -81.5,-10.379 -108.833,-9.937c-0.625,9.054 -1.208,18.304 0.625,27.37c5.167,25.738 41.833,21.446 82.833,11.429Z" style="fill:#233862;fill-rule:nonzero;"/><path d="M3545.57,1817.24l-74.788,201.263l-97.625,262.783c0,0 -26.508,2.563 -51.883,-4.737c-23.363,-6.754 -50.171,-24.421 -50.171,-24.421c0,-0 27.117,-282.158 77.692,-444.129c12.945,-41.575 27.487,-75.204 43.529,-94.133c78.417,-92.667 153.246,103.374 153.246,103.374Z" style="fill:#2c3a64;fill-rule:nonzero;"/><path d="M3469.52,1497.62c-48.996,-15.804 -188.737,4.492 -329.125,31.971l-29.396,-48.483l-303.233,-23.679c-0,-0 -100.063,221.9 -45.279,363.287c8.05,20.784 24.05,34.109 51.321,34.55l4.429,0c-0,0 180.479,-0.108 239.083,-0.108c150.8,-0 319.163,-103.658 340.913,-108.013c35.666,-7.133 49.916,64.158 85.583,139.017c35.621,74.854 335.042,331.504 335.042,331.504c-0,0 46.041,0.459 65.041,-6.671c20.458,-7.666 27.917,-17.629 27.917,-17.629c-0,0 -331.792,-660.096 -442.296,-695.746Z" style="fill:#2f539b;fill-rule:nonzero;"/><path d="M3010.53,557.978c-42.492,-10.929 -100.65,-0.042 -110.292,0.908c-115.384,11.363 -154.146,140.075 -136.688,239.925c16.117,92.155 -30.625,117.646 -84.796,190.437c-108.612,145.947 -37.624,269.005 48.084,300.73c51.425,19.033 122.816,-28.984 122.816,-28.984c1.292,0.513 224.334,-146.129 315.775,-228.795c152.263,-59.576 -46.62,-446.363 -154.899,-474.221Z" style="fill:#2b478b;fill-rule:nonzero;"/><path d="M3027.57,980.107c3.034,10.683 -47.433,30.313 -85.962,23.092c-36.242,-6.759 -76.871,-49.196 -68.492,-53.179c13.871,-6.592 23.204,-22.984 15.617,-111.605l6.895,0.784l115.963,13.237c-0,0 0.35,36.125 3.046,69.963c2.25,28.408 7.992,40.292 12.933,57.708Z" style="fill:#ffb27d;fill-rule:nonzero;"/><path d="M3011.6,852.436c-0,0 0.35,36.125 3.046,69.963c-64,3.433 -102.529,-52.05 -119.009,-83.2l115.963,13.237Z" style="fill:#ed975d;fill-rule:nonzero;"/><path d="M3035.55,882.724c0,-0 -150.871,14.875 -158.692,-79.221c-7.821,-94.096 -32.558,-155.55 63.438,-169.03c95.996,-13.479 117.721,20.871 127.971,51.646c10.249,30.771 6.329,190.309 -32.717,196.605Z" style="fill:#ffb27d;fill-rule:nonzero;"/><path d="M3019.38,619.624c0,-0 -19,114.95 -104.925,142.229c-62.683,19.9 -91.075,6.779 -91.075,6.779c0,-0 30.18,-40.021 40.9,-95.642c3.159,-16.395 14.821,-29.887 30.684,-35.104c44.541,-14.654 98.516,-54.721 124.416,-18.262Z" style="fill:#2b478b;fill-rule:nonzero;"/><path d="M2990.95,644.14c0,0 28.433,6.338 53.629,43.025c13.771,20.05 29.717,70.592 26.996,92.971c0,0 26.408,-106.396 -12.096,-145.975c-40.829,-41.967 -68.529,9.979 -68.529,9.979Z" style="fill:#2b478b;fill-rule:nonzero;"/><path d="M2755.9,1289.22c2.688,11.43 4.992,21.942 6.863,31.638c3.075,15.654 5.187,29.142 6.675,41.05c4.608,37.108 3.216,59.096 6.337,83.15c1.725,13.441 4.896,27.554 11.279,45.271c6.242,17.237 170.192,32.6 263.471,26.404c29.621,-1.921 52.188,-6.096 60.204,-13.009c33.271,-28.899 29.955,34.663 34.517,-269.47c2.209,-148.346 -125.875,-280.467 -125.875,-280.467c-0,0 -10.229,63.371 -137.258,-12.05c-4.513,-2.642 -54.538,71.438 -102.692,162.654c-53.046,100.767 -38.5,122.084 -23.521,184.829Z" style="fill:#f99746;fill-rule:nonzero;"/><path d="M3470.78,2018.51l-97.625,262.783c0,0 -26.508,2.563 -51.883,-4.737c-23.363,-6.754 -50.171,-24.421 -50.171,-24.421c0,-0 27.117,-282.158 77.692,-444.129l121.987,210.504Z" style="fill:#2b478b;fill-rule:nonzero;"/><path d="M3019.38,953.761c0,0 130.7,22.162 146.05,78.438c15.346,56.275 121.384,371.004 121.384,371.004c-0,-0 -82.163,28.037 -112.859,-2.658c-30.695,-30.697 -106.808,-284.788 -106.808,-284.788l-47.767,-161.996Z" style="fill:#f99746;fill-rule:nonzero;"/><path d="M3000.72,827.232c0,0 6.321,15.475 23.029,15.475c16.704,0 21.221,-2.496 24.379,-6.037c3.163,-3.538 6.3,-10.355 6.3,-10.355c0,0 -27.683,-5.466 -53.708,0.917Z" style="fill:#fff;fill-rule:nonzero;"/><path d="M2769.44,1361.91c4.608,37.108 3.216,59.096 6.337,83.15c118.675,0.383 277.342,-91.646 277.342,-91.646l-283.679,8.496Z" style="fill:#ed7d2b;fill-rule:nonzero;"/><path d="M3053.12,1275.57c-0,-0 -184.879,-5.509 -216.042,-110.596c-34.237,-115.446 -72.583,47.479 -72.583,47.479l20.404,103.979l202.833,0l65.388,-40.862Z" style="fill:#ed7d2b;fill-rule:nonzero;"/><path d="M3375.4,990.428l-9.958,-24.742c-10.709,-26.529 -36.475,-43.896 -65.083,-43.896l-184.305,0l0,616.221l762.388,-0l-0,-499.275l-431.417,0c-31.5,0 -59.833,-19.112 -71.625,-48.308Z" style="fill:#739af0;fill-rule:nonzero;"/><path d="M3231.06,1296.52l0,-44.42l155.805,-68.246l-0,45.387l-108.809,44.746l108.809,44.742l-0,46.033l-155.805,-68.242Z" style="fill:#fff;fill-rule:nonzero;"/><path d="M3548.78,1130.74l41.5,0l-142.583,298.076l-41.542,-0l142.625,-298.076Z" style="fill:#fff;fill-rule:nonzero;"/><path d="M3763.45,1252.1l-0,44.42l-155.792,68.242l0,-45.387l108.834,-44.746l-108.834,-44.742l0,-46.033l155.792,68.246Z" style="fill:#fff;fill-rule:nonzero;"/><path d="M3053.1,1299.94l13.379,-20.996c0,0 10.588,-3.445 25.437,-13.875c17.659,-12.404 15.33,-30.975 24.146,-29.012l0.113,40.825l-0.958,0.142c37.887,10.116 82.191,-0.88 83.083,8.55c2.437,25.954 -17.633,37.633 -34.45,45.762c-12.871,6.221 -27.496,15.554 -50.75,8.317c-16.996,-5.292 -43.746,-10.675 -43.746,-10.675l-16.254,-29.038Z" style="fill:#ffb27d;fill-rule:nonzero;"/><path d="M2882.1,941.757c0,-0 -120.008,7.854 -150.012,54.663c-30.009,46.808 -67.213,284.445 -51.609,366.062c15.6,81.613 399.925,-15.6 399.925,-15.6l-12.258,-70.817c-0,0 -221.804,1.288 -234.442,-27.604c-16.804,-38.404 48.396,-306.704 48.396,-306.704Z" style="fill:#f99746;fill-rule:nonzero;"/><path d="M3461.45,1038.47c-1.042,3.108 18.042,34.554 45.292,29.087c16.954,-3.408 39.083,-39.996 19.666,-48.058c-32.421,-13.459 -62.208,10.658 -64.958,18.971Z" style="fill:#ffb27d;fill-rule:nonzero;"/><path d="M4634.86,2689.14l-4.042,-2.15l445.542,-835.104l3.999,2.154l-445.499,835.1Z" style="fill:#2a4e96;fill-rule:nonzero;"/><path d="M6708.69,2395.08l-501.042,-540.567l3.375,-3.104l501.042,540.567l-3.375,3.104Z" style="fill:#2a4e96;fill-rule:nonzero;"/><path d="M7021.78,2551.32c7.459,54.142 -7.417,106.329 -37.375,146.821c-29.958,40.483 -74.958,69.213 -127.833,76.479l-2240.17,307.805c-114.333,15.708 -220.041,-60.038 -234.917,-168.317c-7.458,-54.142 9.167,-106.571 41.959,-147.425c32.75,-40.871 81.708,-70.142 138.875,-77.996l2240.12,-307.804c105.792,-14.534 204.458,62.158 219.333,170.437Z" style="fill:#ebf3fa;fill-rule:nonzero;"/><path d="M7021.78,2551.32c7.459,54.142 -7.417,106.329 -37.375,146.821c-29.958,40.483 -74.958,69.213 -127.833,76.479l-405.375,55.7l-54.125,-393.737l405.375,-55.7c105.792,-14.534 204.458,62.158 219.333,170.437Z" style="fill:#f99746;fill-rule:nonzero;"/><path d="M6701.94,2497.3c-33.375,32.596 -34,86.263 -1.417,119.629c15.792,16.163 36.959,25.204 59.542,25.471c22.583,0.258 43.958,-8.292 60.083,-24.084c33.375,-32.599 34,-86.262 1.417,-119.629c-32.625,-33.37 -86.292,-33.987 -119.625,-1.387Zm73.125,160.833c-5,0.683 -10.083,1.004 -15.208,0.946c-27.042,-0.312 -52.334,-11.142 -71.25,-30.496c-39.042,-39.937 -38.292,-104.187 1.666,-143.216c39.959,-39.026 104.167,-38.284 143.208,1.662c39.042,39.942 38.292,104.191 -1.666,143.217c-15.667,15.325 -35.417,24.958 -56.75,27.887Z" style="fill:#fff;fill-rule:nonzero;"/><path d="M6601.57,2725.32l-11.667,-11.929l98.833,-96.591l11.667,11.933l-98.833,96.587Z" style="fill:#fff;fill-rule:nonzero;"/><path d="M6561.36,2752.92c-5.75,-5.884 -5.625,-15.313 0.249,-21.063l58.209,-56.887c5.875,-5.746 15.333,-5.638 21.083,0.246c5.75,5.883 5.625,15.312 -0.25,21.062l-58.208,56.883c-5.917,5.751 -15.333,5.642 -21.083,-0.241Z" style="fill:#fff;fill-rule:nonzero;"/><path d="M3259.95,4690.76l-468.021,0c-9.741,0 -17.641,-7.916 -17.641,-17.667l-0,-7.416c-0,-9.75 7.9,-17.625 17.641,-17.625l468.021,-0c9.738,-0 17.633,7.875 17.633,17.625l0,7.416c0,9.751 -7.895,17.667 -17.633,17.667Z" style="fill:#f99746;fill-rule:nonzero;"/><path d="M3019.78,4837.55l-230.925,-0c-8.046,-0 -14.57,-6.5 -14.57,-14.542c-0,-8.042 6.524,-14.583 14.57,-14.583l230.925,-0c8.046,-0 14.571,6.541 14.571,14.583c0,8.042 -6.525,14.542 -14.571,14.542Z" style="fill:#739af0;fill-rule:nonzero;"/><path d="M3196.61,4776.47l-408.758,0c-7.491,0 -13.562,-6.083 -13.562,-13.583l-0,-2c-0,-7.5 6.071,-13.583 13.562,-13.583l408.758,-0c7.488,-0 13.559,6.083 13.559,13.583l-0,2c-0,7.5 -6.071,13.583 -13.559,13.583Z" style="fill:#739af0;fill-rule:nonzero;"/><path d="M3643.82,4776.47l-380.825,0c-7.238,0 -13.104,-5.874 -13.104,-13.124l-0,-2.917c-0,-7.25 5.866,-13.125 13.104,-13.125l380.825,-0c7.208,-0 13.083,5.875 13.083,13.125l0,2.917c0,7.25 -5.875,13.124 -13.083,13.124Z" style="fill:#739af0;fill-rule:nonzero;"/><path d="M3307.81,4837.55l-230.92,-0c-8.046,-0 -14.571,-6.5 -14.571,-14.542c-0,-8.042 6.525,-14.583 14.571,-14.583l230.92,-0c8.046,-0 14.571,6.541 14.571,14.583c0,8.042 -6.525,14.542 -14.571,14.542Z" style="fill:#739af0;fill-rule:nonzero;"/><path d="M3829.86,4690.76l-468.041,0c-9.733,0 -17.625,-7.916 -17.625,-17.667l-0,-7.416c-0,-9.75 7.892,-17.625 17.625,-17.625l468.041,-0c9.751,-0 17.626,7.875 17.626,17.625l-0,7.416c-0,9.751 -7.875,17.667 -17.626,17.667Z" style="fill:#f99746;fill-rule:nonzero;"/><path d="M3259.95,5012.26l-468.021,0c-9.741,0 -17.641,-7.917 -17.641,-17.666l-0,-7.417c-0,-9.75 7.9,-17.625 17.641,-17.625l468.021,-0c9.738,-0 17.633,7.875 17.633,17.625l0,7.417c0,9.749 -7.895,17.666 -17.633,17.666Z" style="fill:#f99746;fill-rule:nonzero;"/><path d="M3019.78,5159.05l-230.925,-0c-8.046,-0 -14.57,-6.5 -14.57,-14.542c-0,-8.041 6.524,-14.583 14.57,-14.583l230.925,-0c8.046,-0 14.571,6.542 14.571,14.583c0,8.042 -6.525,14.542 -14.571,14.542Z" style="fill:#739af0;fill-rule:nonzero;"/><path d="M3196.61,5097.97l-408.758,-0c-7.491,-0 -13.562,-6.084 -13.562,-13.584l-0,-2c-0,-7.5 6.071,-13.583 13.562,-13.583l408.758,-0c7.488,-0 13.559,6.083 13.559,13.583l-0,2c-0,7.5 -6.071,13.584 -13.559,13.584Z" style="fill:#739af0;fill-rule:nonzero;"/><path d="M3643.82,5097.97l-380.825,-0c-7.238,-0 -13.104,-5.876 -13.104,-13.125l-0,-2.917c-0,-7.25 5.866,-13.125 13.104,-13.125l380.825,-0c7.208,-0 13.083,5.875 13.083,13.125l0,2.917c0,7.249 -5.875,13.125 -13.083,13.125Z" style="fill:#739af0;fill-rule:nonzero;"/><path d="M3307.81,5159.05l-230.92,-0c-8.046,-0 -14.571,-6.5 -14.571,-14.542c-0,-8.041 6.525,-14.583 14.571,-14.583l230.92,-0c8.046,-0 14.571,6.542 14.571,14.583c0,8.042 -6.525,14.542 -14.571,14.542Z" style="fill:#739af0;fill-rule:nonzero;"/><path d="M3829.86,5012.26l-468.041,0c-9.733,0 -17.625,-7.917 -17.625,-17.666l-0,-7.417c-0,-9.75 7.892,-17.625 17.625,-17.625l468.041,-0c9.751,-0 17.626,7.875 17.626,17.625l-0,7.417c-0,9.749 -7.875,17.666 -17.626,17.666Z" style="fill:#f99746;fill-rule:nonzero;"/><path d="M5692.61,3058.17l-267.292,62.201l-132.167,240.508l-100.916,-548.109l500.375,245.4Z" style="fill:#233862;fill-rule:nonzero;"/><path d="M5581.44,3292.88l-38.917,29.513l-170.75,-225.313l38.959,-29.508l170.708,225.308Z" style="fill:#233862;fill-rule:nonzero;"/><path d="M5517.61,4191.14l-657.25,0c-26.625,0 -48.167,-21.541 -48.167,-48.166l-0,-657.25c-0,-26.601 21.542,-48.163 48.167,-48.163l657.25,-0c26.625,-0 48.166,21.562 48.166,48.163l0,657.25c0,26.625 -21.541,48.166 -48.166,48.166Z" style="fill:#d4e1ff;fill-rule:nonzero;"/><path d="M4908.49,4033.51l146.417,-264c17.042,-30.708 60.209,-33.417 80.959,-5.083l84.458,115.208c17.958,24.5 53.875,26.458 74.375,4c21.292,-23.25 58.833,-20.125 76,6.333l91.125,140.751c20.75,32.041 -2.25,74.333 -40.417,74.333l-470.833,-0c-36.708,-0 -59.917,-39.417 -42.084,-71.542Z" style="fill:#739af0;fill-rule:nonzero;"/><path d="M5197.44,3646.14c0,-31.791 25.792,-57.583 57.625,-57.583c31.792,-0 57.583,25.792 57.583,57.583c0,31.838 -25.791,57.625 -57.583,57.625c-31.833,0 -57.625,-25.787 -57.625,-57.625Z" style="fill:#739af0;fill-rule:nonzero;"/><path d="M6481.69,4211.47l-651.25,88.791c-26.333,3.625 -50.625,-14.833 -54.209,-41.208l-88.833,-651.208c-3.583,-26.375 14.833,-50.65 41.209,-54.246l651.249,-88.829c26.334,-3.596 50.625,14.858 54.209,41.212l88.833,651.237c3.584,26.334 -14.833,50.626 -41.208,54.251Z" style="fill:#d4e1ff;fill-rule:nonzero;"/><path d="M5856.82,4137.59l109.417,-281.374c12.75,-32.75 55.125,-41.251 79.541,-16.001l99.25,102.751c21.125,21.833 56.959,18.916 74.25,-6.084c17.958,-25.916 55.542,-27.875 76.125,-4l109.334,127.125c24.875,28.958 7.791,73.958 -30.042,79.125l-466.458,63.625c-36.375,5 -64.709,-30.958 -51.417,-65.167Z" style="fill:#739af0;fill-rule:nonzero;"/><path d="M6090.82,3714.72c-4.292,-31.537 17.75,-60.583 49.292,-64.875c31.499,-4.291 60.541,17.796 64.833,49.292c4.333,31.542 -17.75,60.588 -49.292,64.875c-31.5,4.292 -60.541,-17.787 -64.833,-49.292Z" style="fill:#739af0;fill-rule:nonzero;"/><rect x="4187.07" y="6539.51" width="379.791" height="325.625" style="fill:#f99746;fill-rule:nonzero;"/><rect x="4171.74" y="6525.6" width="407.958" height="25.167" style="fill:#aec3ff;fill-rule:nonzero;"/><rect x="4187.07" y="6627.64" width="379.791" height="103.417" style="fill:#f9ddbf;fill-rule:nonzero;"/><path d="M5028.9,6865.39l-358.583,0c-13.125,0 -23.792,-10.625 -23.792,-23.792l0,-39.749c0,-14.167 12.334,-25.209 26.417,-23.625l358.583,39.749c12.042,1.334 21.167,11.542 21.167,23.625c0,13.167 -10.667,23.792 -23.792,23.792Z" style="fill:#f99746;fill-rule:nonzero;"/><path d="M10044.7,6897.59l-9984.1,-3.458c-6.692,0 -12.167,-5.5 -12.167,-12.167l0.004,-6.25c0,-6.666 5.479,-12.166 12.171,-12.166l9984.09,3.458c6.709,0 12.167,5.459 12.167,12.167l0,6.25c0,6.666 -5.458,12.166 -12.167,12.166Z" style="fill:#2e3552;fill-rule:nonzero;"/><path d="M3051.99,3310.27l-41.046,0c-3.754,0 -6.796,-3.045 -6.796,-6.795c0,-3.754 3.042,-6.796 6.796,-6.796l41.046,-0c3.75,-0 6.791,3.042 6.791,6.796c0,3.75 -3.041,6.795 -6.791,6.795Zm82.091,0l-41.045,0c-3.751,0 -6.796,-3.045 -6.796,-6.795c-0,-3.754 3.045,-6.796 6.796,-6.796l41.045,-0c3.75,-0 6.792,3.042 6.792,6.796c0,3.75 -3.042,6.795 -6.792,6.795Zm82.096,0l-41.05,0c-3.75,0 -6.796,-3.045 -6.796,-6.795c0,-3.754 3.046,-6.796 6.796,-6.796l41.05,-0c3.75,-0 6.796,3.042 6.796,6.796c0,3.75 -3.046,6.795 -6.796,6.795Zm82.092,0l-41.046,0c-3.754,0 -6.796,-3.045 -6.796,-6.795c0,-3.754 3.042,-6.796 6.796,-6.796l41.046,-0c3.75,-0 6.796,3.042 6.796,6.796c-0,3.75 -3.046,6.795 -6.796,6.795Zm82.092,0l-41.046,0c-3.754,0 -6.796,-3.045 -6.796,-6.795c-0,-3.754 3.042,-6.796 6.796,-6.796l41.046,-0c3.75,-0 6.791,3.042 6.791,6.796c0,3.75 -3.041,6.795 -6.791,6.795Zm82.083,0l-41.042,0c-3.75,0 -6.792,-3.045 -6.792,-6.795c0,-3.754 3.042,-6.796 6.792,-6.796l41.042,-0c3.75,-0 6.792,3.042 6.792,6.796c-0,3.75 -3.042,6.795 -6.792,6.795Zm82.079,0l-41.037,0c-3.755,0 -6.792,-3.045 -6.792,-6.795c-0,-3.754 3.037,-6.796 6.792,-6.796l41.037,-0c3.796,-0 6.838,3.042 6.838,6.796c-0,3.75 -3.042,6.795 -6.838,6.795Zm82.129,0l-41.042,0c-3.749,0 -6.833,-3.045 -6.833,-6.795c0,-3.754 3.084,-6.796 6.833,-6.796l41.042,-0c3.75,-0 6.792,3.042 6.792,6.796c0,3.75 -3.042,6.795 -6.792,6.795Zm82.084,0l-41.042,0c-3.75,0 -6.792,-3.045 -6.792,-6.795c0,-3.754 3.042,-6.796 6.792,-6.796l41.042,-0c3.75,-0 6.791,3.042 6.791,6.796c0,3.75 -3.041,6.795 -6.791,6.795Zm82.083,0l-41.042,0c-3.75,0 -6.792,-3.045 -6.792,-6.795c0,-3.754 3.042,-6.796 6.792,-6.796l41.042,-0c3.75,-0 6.791,3.042 6.791,6.796c0,3.75 -3.041,6.795 -6.791,6.795Zm82.083,0l-41.041,0c-3.75,0 -6.792,-3.045 -6.792,-6.795c0,-3.754 3.042,-6.796 6.792,-6.796l41.041,-0c3.75,-0 6.792,3.042 6.792,6.796c0,3.75 -3.042,6.795 -6.792,6.795Zm82.125,0l-41.083,0c-3.75,0 -6.792,-3.045 -6.792,-6.795c0,-3.754 3.042,-6.796 6.792,-6.796l41.083,-0c3.75,-0 6.792,3.042 6.792,6.796c-0,3.75 -3.042,6.795 -6.792,6.795Zm82.084,0l-41.042,0c-3.75,0 -6.792,-3.045 -6.792,-6.795c0,-3.754 3.042,-6.796 6.792,-6.796l41.042,-0c3.749,-0 6.791,3.042 6.791,6.796c0,3.75 -3.042,6.795 -6.791,6.795Zm82.083,0l-41.042,0c-3.75,0 -6.791,-3.045 -6.791,-6.795c-0,-3.754 3.041,-6.796 6.791,-6.796l41.042,-0c3.75,-0 6.792,3.042 6.792,6.796c-0,3.75 -3.042,6.795 -6.792,6.795Zm82.083,0l-41.041,0c-3.751,0 -6.792,-3.045 -6.792,-6.795c-0,-3.754 3.041,-6.796 6.792,-6.796l41.041,-0c3.75,-0 6.792,3.042 6.792,6.796c-0,3.75 -3.042,6.795 -6.792,6.795Zm82.125,0l-41.083,0c-3.75,0 -6.792,-3.045 -6.792,-6.795c0,-3.754 3.042,-6.796 6.792,-6.796l41.083,-0c3.75,-0 6.792,3.042 6.792,6.796c0,3.75 -3.042,6.795 -6.792,6.795Zm82.084,0l-41.042,0c-3.75,0 -6.792,-3.045 -6.792,-6.795c0,-3.754 3.042,-6.796 6.792,-6.796l41.042,-0c3.75,-0 6.791,3.042 6.791,6.796c0,3.75 -3.041,6.795 -6.791,6.795Zm-1434.24,11.863c-2.179,0 -4.321,-1.05 -5.633,-2.992c-2.104,-3.108 -1.288,-7.329 1.82,-9.433c12.559,-8.492 27.234,-13 42.446,-13.029l0.017,-0c3.746,-0 6.788,3.033 6.792,6.779c0.008,3.754 -3.025,6.804 -6.779,6.812c-12.496,0.021 -24.551,3.722 -34.863,10.692c-1.162,0.792 -2.487,1.171 -3.8,1.171Zm1513.11,2.437c-1.417,0 -2.875,-0.458 -4.125,-1.404c-9.876,-7.6 -21.709,-12.021 -34.125,-12.783c-3.751,-0.229 -6.625,-3.45 -6.376,-7.196c0.209,-3.746 3.501,-6.641 7.209,-6.367c15.125,0.934 29.542,6.313 41.583,15.567c2.959,2.288 3.542,6.55 1.25,9.525c-1.333,1.742 -3.375,2.658 -5.416,2.658Zm-1543.64,69.372c-3.754,-0 -6.796,-3.047 -6.796,-6.797l0,-14.354c0,-9.879 1.871,-19.495 5.554,-28.587c1.413,-3.48 5.375,-5.159 8.85,-3.746c3.475,1.408 5.154,5.371 3.742,8.85c-3.025,7.463 -4.554,15.363 -4.554,23.483l-0,14.354c-0,3.75 -3.046,6.797 -6.796,6.797Zm1570.81,4.174c-3.75,0 -6.792,-3.045 -6.792,-6.795l0,-18.53c0,-6.829 -1.083,-13.541 -3.249,-19.954c-1.209,-3.554 0.708,-7.408 4.25,-8.604c3.583,-1.209 7.416,0.713 8.625,4.271c2.625,7.812 3.958,15.983 3.958,24.287l-0,18.53c-0,3.75 -3.042,6.795 -6.792,6.795Zm-1570.81,77.917c-3.754,0 -6.796,-3.046 -6.796,-6.796l0,-41.046c0,-3.754 3.042,-6.795 6.796,-6.795c3.75,-0 6.796,3.041 6.796,6.795l-0,41.046c-0,3.75 -3.046,6.796 -6.796,6.796Zm1570.81,4.175c-3.75,0 -6.792,-3.046 -6.792,-6.796l0,-41.046c0,-3.754 3.042,-6.796 6.792,-6.796c3.75,0 6.792,3.042 6.792,6.796l-0,41.046c-0,3.75 -3.042,6.796 -6.792,6.796Zm-1570.81,77.917c-3.754,-0 -6.796,-3.046 -6.796,-6.796l0,-41.046c0,-3.75 3.042,-6.796 6.796,-6.796c3.75,0 6.796,3.046 6.796,6.796l-0,41.046c-0,3.75 -3.046,6.796 -6.796,6.796Zm1570.81,4.179c-3.75,-0 -6.792,-3.046 -6.792,-6.8l0,-41.046c0,-3.754 3.042,-6.792 6.792,-6.792c3.75,0 6.792,3.038 6.792,6.792l-0,41.046c-0,3.754 -3.042,6.8 -6.792,6.8Zm-1570.81,77.916c-3.754,0 -6.796,-3.041 -6.796,-6.791l0,-41.042c0,-3.75 3.042,-6.792 6.796,-6.792c3.75,0 6.796,3.042 6.796,6.792l-0,41.042c-0,3.75 -3.046,6.791 -6.796,6.791Zm1570.81,4.167c-3.75,0 -6.792,-3.042 -6.792,-6.792l0,-41.041c0,-3.75 3.042,-6.792 6.792,-6.792c3.75,0 6.792,3.042 6.792,6.792l-0,41.041c-0,3.75 -3.042,6.792 -6.792,6.792Zm-1570.81,77.921c-3.754,0 -6.796,-3.046 -6.796,-6.792l0,-41.045c0,-3.746 3.042,-6.792 6.796,-6.792c3.75,-0 6.796,3.046 6.796,6.792l-0,41.045c-0,3.746 -3.046,6.792 -6.796,6.792Zm1570.81,4.167c-3.75,-0 -6.792,-3.046 -6.792,-6.792l0,-41.046c0,-3.746 3.042,-6.791 6.792,-6.791c3.75,-0 6.792,3.045 6.792,6.791l-0,41.046c-0,3.746 -3.042,6.792 -6.792,6.792Zm-1570.81,77.912c-3.754,0 -6.796,-3.041 -6.796,-6.792l0,-41.041c0,-3.75 3.042,-6.792 6.796,-6.792c3.75,0 6.796,3.042 6.796,6.792l-0,41.041c-0,3.751 -3.046,6.792 -6.796,6.792Zm1570.81,4.209c-3.75,-0 -6.792,-3.042 -6.792,-6.834l0,-41.041c0,-3.751 3.042,-6.792 6.792,-6.792c3.75,-0 6.792,3.041 6.792,6.792l-0,41.041c-0,3.792 -3.042,6.834 -6.792,6.834Zm-1570.81,77.916c-3.754,0 -6.796,-3.042 -6.796,-6.791l0,-41.084c0,-3.75 3.042,-6.792 6.796,-6.792c3.75,0 6.796,3.042 6.796,6.792l-0,41.084c-0,3.749 -3.046,6.791 -6.796,6.791Zm1570.81,4.167c-3.75,-0 -6.792,-3.042 -6.792,-6.792l0,-41.042c0,-3.749 3.042,-6.791 6.792,-6.791c3.75,-0 6.792,3.042 6.792,6.791l-0,41.042c-0,3.75 -3.042,6.792 -6.792,6.792Zm-1570.81,77.916c-3.754,0 -6.796,-3.041 -6.796,-6.791l0,-41.042c0,-3.75 3.042,-6.792 6.796,-6.792c3.75,0 6.796,3.042 6.796,6.792l-0,41.042c-0,3.75 -3.046,6.791 -6.796,6.791Zm1570.81,4.167c-3.75,0 -6.792,-3.042 -6.792,-6.792l0,-41.041c0,-3.75 3.042,-6.792 6.792,-6.792c3.75,0 6.792,3.042 6.792,6.792l-0,41.041c-0,3.75 -3.042,6.792 -6.792,6.792Zm-1570.81,77.917c-3.754,-0 -6.796,-3.042 -6.796,-6.792l0,-41.041c0,-3.751 3.042,-6.792 6.796,-6.792c3.75,-0 6.796,3.041 6.796,6.792l-0,41.041c-0,3.75 -3.046,6.792 -6.796,6.792Zm1570.81,4.166c-3.75,0 -6.792,-3.041 -6.792,-6.791l0,-41.042c0,-3.75 3.042,-6.791 6.792,-6.791c3.75,-0 6.792,3.041 6.792,6.791l-0,41.042c-0,3.75 -3.042,6.791 -6.792,6.791Zm-1570.81,77.917c-3.754,0 -6.796,-3.041 -6.796,-6.792l0,-41.041c0,-3.75 3.042,-6.792 6.796,-6.792c3.75,0 6.796,3.042 6.796,6.792l-0,41.041c-0,3.751 -3.046,6.792 -6.796,6.792Zm1570.81,4.209c-3.75,-0 -6.792,-3.084 -6.792,-6.834l0,-41.041c0,-3.751 3.042,-6.792 6.792,-6.792c3.75,-0 6.792,3.041 6.792,6.792l-0,41.041c-0,3.75 -3.042,6.834 -6.792,6.834Zm-1543.78,69.416c-1.45,0 -2.908,-0.458 -4.146,-1.416c-12.054,-9.292 -20.962,-21.834 -25.763,-36.167c-1.191,-3.584 0.73,-7.417 4.292,-8.625c3.55,-1.167 7.404,0.75 8.596,4.291c3.942,11.792 11.263,22.084 21.171,29.709c2.971,2.291 3.525,6.583 1.233,9.541c-1.337,1.751 -3.35,2.667 -5.383,2.667Zm1513.37,2.417c-2.167,-0 -4.292,-1.042 -5.625,-2.959c-2.084,-3.125 -1.292,-7.333 1.791,-9.458c10.375,-7 18.292,-16.833 22.959,-28.375c1.374,-3.458 5.333,-5.167 8.833,-3.75c3.458,1.375 5.166,5.334 3.75,8.833c-5.667,14.042 -15.292,26 -27.875,34.542c-1.167,0.792 -2.5,1.167 -3.833,1.167Zm-1434.48,11.958l-36.592,0c-1.637,0 -3.266,-0.042 -4.883,-0.166c-3.741,-0.25 -6.587,-3.459 -6.35,-7.209c0.238,-3.75 3.463,-6.625 7.213,-6.333c1.329,0.083 2.671,0.125 4.02,0.125l36.592,-0c3.75,-0 6.792,3.042 6.792,6.791c0,3.751 -3.042,6.792 -6.792,6.792Zm82.092,0l-41.046,0c-3.754,0 -6.796,-3.041 -6.796,-6.792c0,-3.749 3.042,-6.791 6.796,-6.791l41.046,-0c3.75,-0 6.792,3.042 6.792,6.791c-0,3.751 -3.042,6.792 -6.792,6.792Zm82.092,0l-41.046,0c-3.754,0 -6.792,-3.041 -6.792,-6.792c0,-3.749 3.038,-6.791 6.792,-6.791l41.046,-0c3.754,-0 6.795,3.042 6.795,6.791c0,3.751 -3.041,6.792 -6.795,6.792Zm82.095,0l-41.045,0c-3.755,0 -6.796,-3.041 -6.796,-6.792c-0,-3.749 3.041,-6.791 6.796,-6.791l41.045,-0c3.75,-0 6.792,3.042 6.792,6.791c0,3.751 -3.042,6.792 -6.792,6.792Zm82.092,0l-41.046,0c-3.754,0 -6.796,-3.041 -6.796,-6.792c0,-3.749 3.042,-6.791 6.796,-6.791l41.046,-0c3.75,-0 6.796,3.042 6.796,6.791c0,3.751 -3.046,6.792 -6.796,6.792Zm82.071,0l-41.042,0c-3.75,0 -6.791,-3.041 -6.791,-6.792c-0,-3.749 3.041,-6.791 6.791,-6.791l41.042,-0c3.791,-0 6.833,3.042 6.833,6.791c0,3.751 -3.042,6.792 -6.833,6.792Zm82.121,0l-41.038,0c-3.754,0 -6.791,-3.041 -6.791,-6.792c-0,-3.749 3.037,-6.791 6.791,-6.791l41.038,-0c3.754,-0 6.791,3.042 6.791,6.791c0,3.751 -3.037,6.792 -6.791,6.792Zm82.087,0l-41.041,0c-3.75,0 -6.792,-3.041 -6.792,-6.792c0,-3.749 3.042,-6.791 6.792,-6.791l41.041,-0c3.75,-0 6.792,3.042 6.792,6.791c0,3.751 -3.042,6.792 -6.792,6.792Zm82.084,0l-41.042,0c-3.75,0 -6.792,-3.041 -6.792,-6.792c0,-3.749 3.042,-6.791 6.792,-6.791l41.042,-0c3.75,-0 6.791,3.042 6.791,6.791c0,3.751 -3.041,6.792 -6.791,6.792Zm82.083,0l-41.042,0c-3.75,0 -6.792,-3.041 -6.792,-6.792c0,-3.749 3.042,-6.791 6.792,-6.791l41.042,-0c3.75,-0 6.791,3.042 6.791,6.791c0,3.751 -3.041,6.792 -6.791,6.792Zm82.125,0l-41.042,0c-3.791,0 -6.833,-3.041 -6.833,-6.792c0,-3.749 3.042,-6.791 6.833,-6.791l41.042,-0c3.75,-0 6.792,3.042 6.792,6.791c-0,3.751 -3.042,6.792 -6.792,6.792Zm82.083,0l-41.041,0c-3.751,0 -6.792,-3.041 -6.792,-6.792c-0,-3.749 3.041,-6.791 6.792,-6.791l41.041,-0c3.75,-0 6.792,3.042 6.792,6.791c-0,3.751 -3.042,6.792 -6.792,6.792Zm82.084,0l-41.042,0c-3.75,0 -6.792,-3.041 -6.792,-6.792c0,-3.749 3.042,-6.791 6.792,-6.791l41.042,-0c3.749,-0 6.791,3.042 6.791,6.791c0,3.751 -3.042,6.792 -6.791,6.792Zm82.083,0l-41.042,0c-3.75,0 -6.791,-3.041 -6.791,-6.792c-0,-3.749 3.041,-6.791 6.791,-6.791l41.042,-0c3.75,-0 6.792,3.042 6.792,6.791c-0,3.751 -3.042,6.792 -6.792,6.792Zm82.125,0l-41.084,0c-3.75,0 -6.791,-3.041 -6.791,-6.792c-0,-3.749 3.041,-6.791 6.791,-6.791l41.084,-0c3.75,-0 6.791,3.042 6.791,6.791c0,3.751 -3.041,6.792 -6.791,6.792Zm82.083,0l-41.041,0c-3.75,0 -6.792,-3.041 -6.792,-6.792c0,-3.749 3.042,-6.791 6.792,-6.791l41.041,-0c3.75,-0 6.792,3.042 6.792,6.791c0,3.751 -3.042,6.792 -6.792,6.792Zm82.084,0l-41.042,0c-3.75,0 -6.792,-3.041 -6.792,-6.792c0,-3.749 3.042,-6.791 6.792,-6.791l41.042,-0c3.75,-0 6.791,3.042 6.791,6.791c0,3.751 -3.041,6.792 -6.791,6.792Zm82.375,0l-41.334,0c-3.75,0 -6.792,-3.041 -6.792,-6.792c0,-3.749 3.042,-6.791 6.792,-6.791l41.042,-0c3.75,-0 6.958,3.042 6.958,6.791c0,3.751 -2.916,6.792 -6.666,6.792Z" style="fill:#739af0;fill-rule:nonzero;"/><path d="M6082.11,5131.18l-36.209,-0c-3.333,-0 -6.083,-2.667 -6.083,-6c-0,-3.333 2.625,-6 5.917,-6l36.375,-0c3.333,-0 6,2.667 6,6c-0,3.333 -2.667,6 -6,6Zm72.708,-0l-36.334,-0c-3.333,-0 -6.041,-2.667 -6.041,-6c-0,-3.333 2.708,-6 6.041,-6l36.334,-0c3.333,-0 6.042,2.667 6.042,6c-0,3.333 -2.709,6 -6.042,6Zm72.75,-0l-36.375,-0c-3.333,-0 -6,-2.667 -6,-6c-0,-3.333 2.667,-6 6,-6l36.375,-0c3.333,-0 6,2.667 6,6c-0,3.333 -2.667,6 -6,6Zm72.708,-0l-36.375,-0c-3.292,-0 -6,-2.667 -6,-6c0,-3.333 2.708,-6 6,-6l36.375,-0c3.334,-0 6.042,2.667 6.042,6c0,3.333 -2.708,6 -6.042,6Zm72.709,-0l-36.334,-0c-3.333,-0 -6.041,-2.667 -6.041,-6c-0,-3.333 2.708,-6 6.041,-6l36.334,-0c3.333,-0 6.041,2.667 6.041,6c0,3.333 -2.708,6 -6.041,6Zm72.75,-0l-36.375,-0c-3.334,-0 -6.001,-2.667 -6.001,-6c0,-3.333 2.667,-6 6.001,-6l36.375,-0c3.333,-0 5.999,2.667 5.999,6c0,3.333 -2.666,6 -5.999,6Zm72.708,-0l-36.333,-0c-3.334,-0 -6.042,-2.667 -6.042,-6c0,-3.333 2.708,-6 6.042,-6l36.333,-0c3.333,-0 6.042,2.667 6.042,6c-0,3.333 -2.709,6 -6.042,6Zm72.75,-0l-36.375,-0c-3.333,-0 -6.042,-2.667 -6.042,-6c0,-3.333 2.709,-6 6.042,-6l36.375,-0c3.291,-0 6,2.667 6,6c-0,3.333 -2.709,6 -6,6Zm72.708,-0l-36.375,-0c-3.333,-0 -6,-2.667 -6,-6c0,-3.333 2.667,-6 6,-6l36.375,-0c3.334,-0 6,2.667 6,6c0,3.333 -2.666,6 -6,6Zm72.708,0.042l-0.249,-0l-0.834,-0.042l-35.25,-0c-3.333,-0 -6.041,-2.667 -6.041,-6c-0,-3.333 2.708,-6 6.041,-6l36.625,-0c3.292,0.166 5.875,2.958 5.75,6.292c-0.167,3.208 -2.833,5.75 -6.042,5.75Zm-714.5,59.249c-3.333,0 -6.041,-2.708 -6.041,-6.041l-0,-35.458c-0,-0.376 -0,-0.75 0.042,-1.126c0.125,-3.333 2.791,-5.958 6.25,-5.791c3.291,0.167 5.875,2.958 5.75,6.25l-0,36.125c-0,3.333 -2.709,6.041 -6.001,6.041Zm737.209,0.959c-3.334,-0 -6.042,-2.709 -6.042,-6l0,-36.375c0,-3.334 2.708,-6 6.042,-6c3.333,-0 6,2.666 6,6l-0,36.375c-0,3.291 -2.667,6 -6,6Zm-737.209,71.75c-3.333,-0 -6.041,-2.708 -6.041,-6l-0,-36.375c-0,-3.333 2.708,-6 6.041,-6c3.292,-0 6.001,2.667 6.001,6l-0,36.375c-0,3.292 -2.709,6 -6.001,6Zm737.209,0.958c-3.334,0 -6.042,-2.666 -6.042,-6l0,-36.375c0,-3.291 2.708,-6 6.042,-6c3.333,0 6,2.709 6,6l-0,36.375c-0,3.334 -2.667,6 -6,6Zm-737.209,71.75c-3.333,0 -6.041,-2.667 -6.041,-6l-0,-36.375c-0,-3.292 2.708,-6 6.041,-6c3.292,0 6.001,2.708 6.001,6l-0,36.375c-0,3.333 -2.709,6 -6.001,6Zm737.209,1l-0.209,0c-3.333,-0.125 -5.916,-2.917 -5.833,-6.208l0,-36.167c0,-3.333 2.708,-6.042 6.042,-6.042c3.333,0 6,2.709 6,6.042l-0,36.542c-0.125,3.25 -2.792,5.833 -6,5.833Zm-678.334,23.042l-35.083,-0c-0.541,-0 -1.041,-0.042 -1.541,-0.042c-3.334,-0.167 -5.875,-3 -5.75,-6.333c0.166,-3.292 2.875,-5.792 6.333,-5.709l0.958,0.042l35.083,0c3.334,0 6.042,2.667 6.042,6c0,3.333 -2.708,6.042 -6.042,6.042Zm72.751,-0l-36.376,-0c-3.333,-0 -5.999,-2.709 -5.999,-6.042c-0,-3.333 2.666,-6 5.999,-6l36.376,0c3.333,0 6,2.667 6,6c-0,3.333 -2.667,6.042 -6,6.042Zm72.708,-0l-36.375,-0c-3.292,-0 -6,-2.709 -6,-6.042c-0,-3.333 2.708,-6 6,-6l36.375,0c3.333,0 6.041,2.667 6.041,6c0,3.333 -2.708,6.042 -6.041,6.042Zm72.75,-0l-36.375,-0c-3.333,-0 -6.042,-2.709 -6.042,-6.042c0,-3.333 2.709,-6 6.042,-6l36.375,0c3.292,0 6,2.667 6,6c0,3.333 -2.708,6.042 -6,6.042Zm72.708,-0l-36.375,-0c-3.333,-0 -6,-2.709 -6,-6.042c0,-3.333 2.667,-6 6,-6l36.375,0c3.333,0 6,2.667 6,6c0,3.333 -2.667,6.042 -6,6.042Zm72.709,-0l-36.375,-0c-3.292,-0 -6.001,-2.709 -6.001,-6.042c0,-3.333 2.709,-6 6.001,-6l36.375,0c3.333,0 6.041,2.667 6.041,6c0,3.333 -2.708,6.042 -6.041,6.042Zm72.749,-0l-36.375,-0c-3.333,-0 -6.041,-2.709 -6.041,-6.042c-0,-3.333 2.708,-6 6.041,-6l36.375,0c3.292,0 6.001,2.667 6.001,6c-0,3.333 -2.709,6.042 -6.001,6.042Zm72.709,-0l-36.375,-0c-3.333,-0 -6,-2.709 -6,-6.042c-0,-3.333 2.667,-6 6,-6l36.375,0c3.333,0 6,2.667 6,6c-0,3.333 -2.667,6.042 -6,6.042Zm72.708,-0l-36.333,-0c-3.334,-0 -6.042,-2.709 -6.042,-6.042c0,-3.333 2.708,-6 6.042,-6l36.333,0c3.334,0 6.042,2.667 6.042,6c0,3.333 -2.708,6.042 -6.042,6.042Zm73,-0l-36.625,-0c-3.333,-0 -6.041,-2.709 -6.041,-6.042c-0,-3.333 2.708,-6 6.041,-6l36.375,0c3.292,0 6.125,2.667 6.125,6c0,3.333 -2.541,6.042 -5.875,6.042Z" style="fill:#739af0;fill-rule:nonzero;"/><path d="M3632.32,2647.47l-40.083,0c-3.75,0 -6.875,-3.045 -6.875,-6.795c-0,-3.754 3,-6.796 6.75,-6.796l40.208,-0c3.75,-0 6.792,3.042 6.792,6.796c-0,3.75 -3.042,6.795 -6.792,6.795Zm80.5,0l-40.25,0c-3.75,0 -6.792,-3.045 -6.792,-6.795c0,-3.754 3.042,-6.796 6.792,-6.796l40.25,-0c3.75,-0 6.792,3.042 6.792,6.796c-0,3.75 -3.042,6.795 -6.792,6.795Zm80.458,0l-40.25,0c-3.75,0 -6.791,-3.045 -6.791,-6.795c-0,-3.754 3.041,-6.796 6.791,-6.796l40.25,-0c3.75,-0 6.792,3.042 6.792,6.796c0,3.75 -3.042,6.795 -6.792,6.795Zm80.458,0l-40.208,0c-3.75,0 -6.792,-3.045 -6.792,-6.795c0,-3.754 3.042,-6.796 6.792,-6.796l40.208,-0c3.751,-0 6.792,3.042 6.792,6.796c0,3.75 -3.041,6.795 -6.792,6.795Zm80.501,0l-40.25,0c-3.75,0 -6.792,-3.045 -6.792,-6.795c-0,-3.754 3.042,-6.796 6.792,-6.796l40.25,-0c3.749,-0 6.791,3.042 6.791,6.796c0,3.75 -3.042,6.795 -6.791,6.795Zm80.458,0l-40.25,0c-3.75,0 -6.792,-3.045 -6.792,-6.795c0,-3.754 3.042,-6.796 6.792,-6.796l40.25,-0c3.75,-0 6.792,3.042 6.792,6.796c-0,3.75 -3.042,6.795 -6.792,6.795Zm80.458,0l-40.208,0c-3.75,0 -6.792,-3.045 -6.792,-6.795c0,-3.754 3.042,-6.796 6.792,-6.796l40.208,-0c3.75,-0 6.834,3.042 6.834,6.796c-0,3.75 -3.084,6.795 -6.834,6.795Zm56.584,38.234c-3.751,-0 -6.792,-3.042 -6.792,-6.796l-0,-4.808c-0,-9.612 -5.208,-18.517 -13.625,-23.233c-3.25,-1.842 -4.417,-5.984 -2.584,-9.255c1.834,-3.27 6.001,-4.433 9.25,-2.591c12.667,7.12 20.542,20.562 20.542,35.079l0,4.808c0,3.754 -3.041,6.796 -6.791,6.796Zm-612.959,23.266c-3.75,0 -6.791,-3.041 -6.791,-6.791l-0,-28.079c-0,-4.925 0.916,-9.738 2.625,-14.309c1.333,-3.504 5.25,-5.266 8.791,-3.933c3.5,1.333 5.25,5.258 3.917,8.767c-1.167,3.021 -1.708,6.208 -1.708,9.475l-0,28.079c-0,3.75 -3.084,6.791 -6.834,6.791Zm612.959,57.205c-3.751,-0 -6.792,-3.042 -6.792,-6.792l-0,-40.237c-0,-3.755 3.041,-6.796 6.792,-6.796c3.75,-0 6.791,3.041 6.791,6.796l0,40.237c0,3.75 -3.041,6.792 -6.791,6.792Zm-612.959,23.271c-3.75,-0 -6.791,-3.042 -6.791,-6.792l-0,-40.237c-0,-3.754 3.041,-6.797 6.791,-6.797c3.75,0 6.834,3.043 6.834,6.797l-0,40.237c-0,3.75 -3.084,6.792 -6.834,6.792Zm612.959,57.204c-3.751,0 -6.792,-3.046 -6.792,-6.796l-0,-40.238c-0,-3.749 3.041,-6.795 6.792,-6.795c3.75,-0 6.791,3.046 6.791,6.795l0,40.238c0,3.75 -3.041,6.796 -6.791,6.796Zm-612.959,23.271c-3.75,-0 -6.791,-3.046 -6.791,-6.796l-0,-40.237c-0,-3.751 3.041,-6.797 6.791,-6.797c3.75,0 6.834,3.046 6.834,6.797l-0,40.237c-0,3.75 -3.084,6.796 -6.834,6.796Zm612.959,57.2c-3.751,-0 -6.792,-3.042 -6.792,-6.792l-0,-40.237c-0,-3.754 3.041,-6.797 6.792,-6.797c3.75,0 6.791,3.043 6.791,6.797l0,40.237c0,3.75 -3.041,6.792 -6.791,6.792Zm-612.959,23.27c-3.75,0 -6.791,-3.041 -6.791,-6.791l-0,-40.238c-0,-3.754 3.041,-6.795 6.791,-6.795c3.75,-0 6.834,3.041 6.834,6.795l-0,40.238c-0,3.75 -3.084,6.791 -6.834,6.791Zm612.959,57.205c-3.751,-0 -6.792,-3.042 -6.792,-6.792l-0,-40.237c-0,-3.755 3.041,-6.796 6.792,-6.796c3.75,-0 6.791,3.041 6.791,6.796l0,40.237c0,3.75 -3.041,6.792 -6.791,6.792Zm-612.959,23.27c-3.75,0 -6.791,-3.041 -6.791,-6.795l-0,-40.238c-0,-3.75 3.041,-6.796 6.791,-6.796c3.75,0 6.834,3.046 6.834,6.796l-0,40.238c-0,3.754 -3.084,6.795 -6.834,6.795Zm612.959,57.205c-3.751,-0 -6.792,-3.046 -6.792,-6.796l-0,-40.238c-0,-3.75 3.041,-6.795 6.792,-6.795c3.75,-0 6.791,3.045 6.791,6.795l0,40.238c0,3.75 -3.041,6.796 -6.791,6.796Zm-612.959,23.271c-3.75,-0 -6.791,-3.046 -6.791,-6.797l-0,-40.237c-0,-3.75 3.041,-6.796 6.791,-6.796c3.75,0 6.834,3.046 6.834,6.796l-0,40.237c-0,3.751 -3.084,6.797 -6.834,6.797Zm610.834,56.946c-0.792,-0 -1.626,-0.142 -2.417,-0.438c-3.5,-1.321 -5.25,-5.238 -3.959,-8.75c1.125,-2.996 1.709,-6.15 1.709,-9.383l-0,-28.205c-0,-3.754 3.041,-6.796 6.792,-6.796c3.75,0 6.791,3.042 6.791,6.796l0,28.205c0,4.87 -0.875,9.637 -2.583,14.166c-1,2.725 -3.583,4.405 -6.333,4.405Zm-593.876,17.32c-1.124,0 -2.291,-0.287 -3.333,-0.887c-12.583,-7.138 -20.416,-20.55 -20.416,-35.009l-0,-4.929c-0,-3.754 3.041,-6.796 6.791,-6.796c3.75,0 6.834,3.042 6.834,6.796l-0,4.934c-0.042,9.57 5.166,18.454 13.5,23.183c3.25,1.854 4.416,6 2.541,9.262c-1.25,2.205 -3.541,3.446 -5.917,3.446Zm79.75,4.329l-40.249,0c-3.75,0 -6.792,-3.045 -6.792,-6.796c0,-3.754 3.042,-6.795 6.792,-6.795l40.249,-0c3.751,-0 6.792,3.041 6.792,6.795c0,3.751 -3.041,6.796 -6.792,6.796Zm80.459,0l-40.25,0c-3.75,0 -6.792,-3.045 -6.792,-6.796c0,-3.754 3.042,-6.795 6.792,-6.795l40.25,-0c3.75,-0 6.792,3.041 6.792,6.795c-0,3.751 -3.042,6.796 -6.792,6.796Zm80.458,0l-40.208,0c-3.75,0 -6.792,-3.045 -6.792,-6.796c0,-3.754 3.042,-6.795 6.792,-6.795l40.208,-0c3.75,-0 6.834,3.041 6.834,6.795c-0,3.751 -3.084,6.796 -6.834,6.796Zm80.5,0l-40.25,0c-3.75,0 -6.791,-3.045 -6.791,-6.796c-0,-3.754 3.041,-6.795 6.791,-6.795l40.25,-0c3.75,-0 6.792,3.041 6.792,6.795c0,3.751 -3.042,6.796 -6.792,6.796Zm80.458,0l-40.249,0c-3.75,0 -6.792,-3.045 -6.792,-6.796c0,-3.754 3.042,-6.795 6.792,-6.795l40.249,-0c3.751,-0 6.792,3.041 6.792,6.795c0,3.751 -3.041,6.796 -6.792,6.796Zm80.501,0l-40.25,0c-3.75,0 -6.792,-3.045 -6.792,-6.796c-0,-3.754 3.042,-6.795 6.792,-6.795l40.25,-0c3.749,-0 6.791,3.041 6.791,6.795c0,3.751 -3.042,6.796 -6.791,6.796Zm80.708,0l-40.5,0c-3.75,0 -6.792,-3.045 -6.792,-6.796c0,-3.754 3.042,-6.795 6.792,-6.795l40.25,-0c3.75,-0 6.917,3.041 6.917,6.795c-0,3.751 -2.917,6.796 -6.667,6.796Z" style="fill:#739af0;fill-rule:nonzero;"/><path d="M6082.11,5466.8l-36.209,-0c-3.333,-0 -6.083,-2.708 -6.083,-6.042c-0,-3.333 2.625,-6 5.917,-6l36.375,0c3.333,0 6,2.667 6,6c-0,3.334 -2.667,6.042 -6,6.042Zm72.708,-0l-36.334,-0c-3.333,-0 -6.041,-2.708 -6.041,-6.042c-0,-3.333 2.708,-6 6.041,-6l36.334,0c3.333,0 6.042,2.667 6.042,6c-0,3.334 -2.709,6.042 -6.042,6.042Zm72.75,-0l-36.375,-0c-3.333,-0 -6,-2.708 -6,-6.042c-0,-3.333 2.667,-6 6,-6l36.375,0c3.333,0 6,2.667 6,6c-0,3.334 -2.667,6.042 -6,6.042Zm72.708,-0l-36.375,-0c-3.292,-0 -6,-2.708 -6,-6.042c0,-3.333 2.708,-6 6,-6l36.375,0c3.334,0 6.042,2.667 6.042,6c0,3.334 -2.708,6.042 -6.042,6.042Zm72.709,-0l-36.334,-0c-3.333,-0 -6.041,-2.708 -6.041,-6.042c-0,-3.333 2.708,-6 6.041,-6l36.334,0c3.333,0 6.041,2.667 6.041,6c0,3.334 -2.708,6.042 -6.041,6.042Zm72.75,-0l-36.375,-0c-3.334,-0 -6.001,-2.708 -6.001,-6.042c0,-3.333 2.667,-6 6.001,-6l36.375,0c3.333,0 5.999,2.667 5.999,6c0,3.334 -2.666,6.042 -5.999,6.042Zm72.708,-0l-36.333,-0c-3.334,-0 -6.042,-2.708 -6.042,-6.042c0,-3.333 2.708,-6 6.042,-6l36.333,0c3.333,0 6.042,2.667 6.042,6c-0,3.334 -2.709,6.042 -6.042,6.042Zm72.75,-0l-36.375,-0c-3.333,-0 -6.042,-2.708 -6.042,-6.042c0,-3.333 2.709,-6 6.042,-6l36.375,0c3.291,0 6,2.667 6,6c-0,3.334 -2.709,6.042 -6,6.042Zm72.708,-0l-36.375,-0c-3.333,-0 -6,-2.708 -6,-6.042c0,-3.333 2.667,-6 6,-6l36.375,0c3.334,0 6,2.667 6,6c0,3.334 -2.666,6.042 -6,6.042Zm72.708,-0l-36.333,-0c-3.333,-0 -6.041,-2.708 -6.041,-6.042c-0,-3.333 2.708,-6 6.041,-6l36.625,0c3.292,0.167 5.875,2.958 5.75,6.292c-0.167,3.25 -2.833,5.75 -6.042,5.75Zm-714.5,59.25c-3.333,-0 -6.041,-2.709 -6.041,-6.042l-0,-35.458c-0,-0.375 -0,-0.75 0.042,-1.125c0.125,-3.334 2.791,-5.917 6.25,-5.792c3.291,0.167 5.875,2.958 5.75,6.292l-0,36.083c-0,3.333 -2.709,6.042 -6.001,6.042Zm737.209,0.958c-3.334,0 -6.042,-2.667 -6.042,-6l0,-36.375c0,-3.333 2.708,-6 6.042,-6c3.333,0 6,2.667 6,6l-0,36.375c-0,3.333 -2.667,6 -6,6Zm-737.209,71.75c-3.333,0 -6.041,-2.666 -6.041,-6l-0,-36.375c-0,-3.333 2.708,-6 6.041,-6c3.292,0 6.001,2.667 6.001,6l-0,36.375c-0,3.334 -2.709,6 -6.001,6Zm737.209,1c-3.334,0 -6.042,-2.708 -6.042,-6.041l0,-36.375c0,-3.292 2.708,-6 6.042,-6c3.333,-0 6,2.708 6,6l-0,36.375c-0,3.333 -2.667,6.041 -6,6.041Zm-737.209,71.75c-3.333,0 -6.041,-2.708 -6.041,-6.041l-0,-36.376c-0,-3.291 2.708,-6 6.041,-6c3.292,0 6.001,2.709 6.001,6l-0,36.376c-0,3.333 -2.709,6.041 -6.001,6.041Zm737.209,0.959l-0.209,-0c-3.333,-0.125 -5.916,-2.876 -5.833,-6.209l0,-36.167c0,-3.333 2.708,-6.041 6.042,-6.041c3.333,-0 6,2.708 6,6.041l-0,36.542c-0.125,3.25 -2.792,5.834 -6,5.834Zm-678.334,23.041l-35.083,0c-0.541,0 -1.041,0 -1.541,-0.042c-3.334,-0.166 -5.875,-3 -5.75,-6.333c0.166,-3.292 2.875,-5.917 6.333,-5.708l0.958,0.041l35.083,0c3.334,0 6.042,2.709 6.042,6c0,3.334 -2.708,6.042 -6.042,6.042Zm72.751,0l-36.376,0c-3.333,0 -5.999,-2.708 -5.999,-6.042c-0,-3.291 2.666,-6 5.999,-6l36.376,0c3.333,0 6,2.709 6,6c-0,3.334 -2.667,6.042 -6,6.042Zm72.708,0l-36.375,0c-3.292,0 -6,-2.708 -6,-6.042c-0,-3.291 2.708,-6 6,-6l36.375,0c3.333,0 6.041,2.709 6.041,6c0,3.334 -2.708,6.042 -6.041,6.042Zm72.75,0l-36.375,0c-3.333,0 -6.042,-2.708 -6.042,-6.042c0,-3.291 2.709,-6 6.042,-6l36.375,0c3.292,0 6,2.709 6,6c0,3.334 -2.708,6.042 -6,6.042Zm72.708,0l-36.375,0c-3.333,0 -6,-2.708 -6,-6.042c0,-3.291 2.667,-6 6,-6l36.375,0c3.333,0 6,2.709 6,6c0,3.334 -2.667,6.042 -6,6.042Zm72.709,0l-36.375,0c-3.292,0 -6.001,-2.708 -6.001,-6.042c0,-3.291 2.709,-6 6.001,-6l36.375,0c3.333,0 6.041,2.709 6.041,6c0,3.334 -2.708,6.042 -6.041,6.042Zm72.749,0l-36.375,0c-3.333,0 -6.041,-2.708 -6.041,-6.042c-0,-3.291 2.708,-6 6.041,-6l36.375,0c3.292,0 6.001,2.709 6.001,6c-0,3.334 -2.709,6.042 -6.001,6.042Zm72.709,0l-36.375,0c-3.333,0 -6,-2.708 -6,-6.042c-0,-3.291 2.667,-6 6,-6l36.375,0c3.333,0 6,2.709 6,6c-0,3.334 -2.667,6.042 -6,6.042Zm72.708,0l-36.333,0c-3.334,0 -6.042,-2.708 -6.042,-6.042c0,-3.291 2.708,-6 6.042,-6l36.333,0c3.334,0 6.042,2.709 6.042,6c0,3.334 -2.708,6.042 -6.042,6.042Zm73,0l-36.625,0c-3.333,0 -6.041,-2.708 -6.041,-6.042c-0,-3.291 2.708,-6 6.041,-6l36.375,0c3.292,0 6.125,2.709 6.125,6c0,3.334 -2.541,6.042 -5.875,6.042Z" style="fill:#739af0;fill-rule:nonzero;"/><path d="M2791.71,4532.18l-35.925,-0c-3.325,-0 -6.08,-2.667 -6.08,-6c0,-3.334 2.63,-6.042 5.955,-6.042l36.05,0c3.324,0 6.02,2.708 6.02,6.042c0,3.333 -2.696,6 -6.02,6Zm72.095,-0l-36.05,-0c-3.32,-0 -6.016,-2.667 -6.016,-6c-0,-3.334 2.696,-6.042 6.016,-6.042l36.05,0c3.325,0 6.021,2.708 6.021,6.042c0,3.333 -2.696,6 -6.021,6Zm72.096,-0l-36.05,-0c-3.325,-0 -6.021,-2.667 -6.021,-6c0,-3.334 2.696,-6.042 6.021,-6.042l36.05,0c3.321,0 6.017,2.708 6.017,6.042c-0,3.333 -2.696,6 -6.017,6Zm72.092,-0l-36.046,-0c-3.325,-0 -6.021,-2.667 -6.021,-6c0,-3.334 2.696,-6.042 6.021,-6.042l36.046,0c3.325,0 6.021,2.708 6.021,6.042c-0,3.333 -2.696,6 -6.021,6Zm72.096,-0l-36.046,-0c-3.325,-0 -6.021,-2.667 -6.021,-6c0,-3.334 2.696,-6.042 6.021,-6.042l36.046,0c3.325,0 6.021,2.708 6.021,6.042c-0,3.333 -2.696,6 -6.021,6Zm72.095,-0l-36.045,-0c-3.325,-0 -6.021,-2.667 -6.021,-6c-0,-3.334 2.696,-6.042 6.021,-6.042l36.045,0c3.326,0 6.021,2.708 6.021,6.042c0,3.333 -2.695,6 -6.021,6Zm72.096,-0l-36.045,-0c-3.325,-0 -6.021,-2.667 -6.021,-6c-0,-3.334 2.696,-6.042 6.021,-6.042l36.045,0c3.325,0 6.021,2.708 6.021,6.042c0,3.333 -2.696,6 -6.021,6Zm72.096,-0l-36.05,-0c-3.325,-0 -6.016,-2.667 -6.016,-6c-0,-3.334 2.691,-6.042 6.016,-6.042l36.05,0c3.325,0 6.021,2.708 6.021,6.042c0,3.333 -2.696,6 -6.021,6Zm72.109,-0l-36.063,-0c-3.325,-0 -6.021,-2.667 -6.021,-6c0,-3.334 2.696,-6.042 6.021,-6.042l36.063,0c3.291,0 6,2.708 6,6.042c-0,3.333 -2.709,6 -6,6Zm72.083,-0l-36.042,-0c-3.333,-0 -6.042,-2.667 -6.042,-6c0,-3.334 2.709,-6.042 6.042,-6.042l36.042,0c3.333,0 6,2.708 6,6.042c-0,3.333 -2.667,6 -6,6Zm72.079,-0l-36.037,-0c-3.334,-0 -6.001,-2.667 -6.001,-6c0,-3.334 2.667,-6.042 6.001,-6.042l36.037,0c3.338,0 6.046,2.708 6.046,6.042c-0,3.333 -2.708,6 -6.046,6Zm72.129,-0l-36.087,-0c-3.288,-0 -5.996,-2.667 -5.996,-6c0,-3.334 2.708,-6.042 5.996,-6.042l36.087,0c3.292,0 6,2.708 6,6.042c0,3.333 -2.708,6 -6,6Zm72.084,-0l-36.042,-0c-3.334,-0 -6.042,-2.667 -6.042,-6c0,-3.334 2.708,-6.042 6.042,-6.042l36.042,0c3.333,0 6,2.708 6,6.042c-0,3.333 -2.667,6 -6,6Zm72.083,-0l-36.042,-0c-3.333,-0 -6.041,-2.667 -6.041,-6c-0,-3.334 2.708,-6.042 6.041,-6.042l36.042,0c3.333,0 6.042,2.708 6.042,6.042c-0,3.333 -2.709,6 -6.042,6Zm72.083,-0l-36.041,-0c-3.334,-0 -6,-2.667 -6,-6c-0,-3.334 2.666,-6.042 6,-6.042l36.041,0c3.333,0 6.042,2.708 6.042,6.042c-0,3.333 -2.709,6 -6.042,6Zm72.083,0.417l-0.666,-0.042c-2.125,-0.25 -4.292,-0.375 -6.458,-0.375l-28.917,-0c-3.292,-0 -6,-2.667 -6,-6c-0,-3.334 2.708,-6.042 6,-6.042l28.917,0c2.625,0 5.25,0.167 7.833,0.459c3.292,0.374 5.667,3.375 5.292,6.666c-0.375,3.083 -2.959,5.334 -6.001,5.334Zm-1174.02,37.333c-0.775,-0 -1.563,-0.125 -2.321,-0.459c-3.067,-1.291 -4.517,-4.791 -3.233,-7.875c5.129,-12.25 13.704,-22.666 24.8,-30.083c2.762,-1.875 6.496,-1.125 8.35,1.667c1.846,2.75 1.104,6.5 -1.663,8.333c-9.116,6.083 -16.162,14.625 -20.379,24.75c-0.962,2.292 -3.204,3.667 -5.554,3.667Zm1225.93,6.625c-2.625,-0 -5.042,-1.709 -5.791,-4.334c-3.042,-10.499 -9.042,-19.791 -17.417,-26.916c-2.542,-2.125 -2.875,-5.917 -0.708,-8.459c2.166,-2.541 5.958,-2.833 8.499,-0.708c10.167,8.667 17.501,19.958 21.209,32.75c0.917,3.167 -0.959,6.5 -4.125,7.459c-0.583,0.124 -1.125,0.208 -1.667,0.208Zm-1230.66,64.833c-3.325,0 -6.021,-2.667 -6.021,-6l0,-36.042c0,-3.333 2.696,-6.041 6.021,-6.041c3.325,-0 6.021,2.708 6.021,6.041l-0,36.042c-0,3.333 -2.696,6 -6.021,6Zm1233.03,7.042c-3.333,-0 -6,-2.709 -6,-6l0,-36.042c0,-3.333 2.667,-6.042 6,-6.042c3.334,0 6.042,2.709 6.042,6.042l0,36.042c0,3.291 -2.708,6 -6.042,6Zm-1233.03,65.083c-3.325,0 -6.021,-2.708 -6.021,-6.042l0,-36.041c0,-3.334 2.696,-6 6.021,-6c3.325,-0 6.021,2.666 6.021,6l-0,36.041c-0,3.334 -2.696,6.042 -6.021,6.042Zm1233.03,7c-3.333,0 -6,-2.667 -6,-6l0,-36.042c0,-3.333 2.667,-6.041 6,-6.041c3.334,-0 6.042,2.708 6.042,6.041l0,36.042c0,3.333 -2.708,6 -6.042,6Zm-1233.03,65.083c-3.325,0 -6.021,-2.708 -6.021,-6l0,-36.041c0,-3.334 2.696,-6.042 6.021,-6.042c3.325,0 6.021,2.708 6.021,6.042l-0,36.041c-0,3.292 -2.696,6 -6.021,6Zm1233.03,7.042c-3.333,0 -6,-2.708 -6,-6.042l0,-36.041c0,-3.334 2.667,-6 6,-6c3.334,-0 6.042,2.666 6.042,6l0,36.041c0,3.334 -2.708,6.042 -6.042,6.042Zm-1233.03,65.042c-3.325,-0 -6.021,-2.667 -6.021,-6l0,-36.042c0,-3.333 2.696,-6.041 6.021,-6.041c3.325,-0 6.021,2.708 6.021,6.041l-0,36.042c-0,3.333 -2.696,6 -6.021,6Zm1233.03,7.041c-3.333,0 -6,-2.708 -6,-6l0,-36.083c0,-3.292 2.667,-6 6,-6c3.334,0 6.042,2.708 6.042,6l0,36.083c0,3.292 -2.708,6 -6.042,6Zm-1233.03,65.084c-3.325,-0 -6.021,-2.708 -6.021,-6.042l0,-36.041c0,-3.334 2.696,-6 6.021,-6c3.325,-0 6.021,2.666 6.021,6l-0,36.041c-0,3.334 -2.696,6.042 -6.021,6.042Zm1233.03,7c-3.333,-0 -6,-2.667 -6,-6l0,-36.042c0,-3.333 2.667,-6.042 6,-6.042c3.334,0 6.042,2.709 6.042,6.042l0,36.042c0,3.333 -2.708,6 -6.042,6Zm-1233.03,65.083c-3.325,0 -6.021,-2.708 -6.021,-6.041l0,-36.042c0,-3.292 2.696,-6 6.021,-6c3.325,-0 6.021,2.708 6.021,6l-0,36.042c-0,3.333 -2.696,6.041 -6.021,6.041Zm1233.03,7c-3.333,0 -6,-2.666 -6,-6l0,-36.042c0,-3.333 2.667,-6.041 6,-6.041c3.334,-0 6.042,2.708 6.042,6.041l0,36.042c0,3.334 -2.708,6 -6.042,6Zm-1233.03,65.084c-3.325,-0 -6.021,-2.667 -6.021,-6l0,-36.042c0,-3.333 2.696,-6.042 6.021,-6.042c3.325,0 6.021,2.709 6.021,6.042l-0,36.042c-0,3.333 -2.696,6 -6.021,6Zm1233.03,7.041c-3.333,0 -6,-2.708 -6,-6.041l0,-36.042c0,-3.334 2.667,-6 6,-6c3.334,-0 6.042,2.666 6.042,6l0,36.042c0,3.333 -2.708,6.041 -6.042,6.041Zm-1233.03,65.042c-3.325,-0 -6.021,-2.667 -6.021,-6l0,-36.042c0,-3.333 2.696,-6.041 6.021,-6.041c3.325,-0 6.021,2.708 6.021,6.041l-0,36.042c-0,3.333 -2.696,6 -6.021,6Zm1233.03,7.042c-3.333,-0 -6,-2.709 -6,-6l0,-36.084c0,-3.292 2.667,-6 6,-6c3.334,0 6.042,2.708 6.042,6l0,36.084c0,3.291 -2.708,6 -6.042,6Zm-1233.03,65.083c-3.325,-0 -6.021,-2.709 -6.021,-6.042l0,-36.041c0,-3.334 2.696,-6 6.021,-6c3.325,-0 6.021,2.666 6.021,6l-0,36.041c-0,3.333 -2.696,6.042 -6.021,6.042Zm1233.03,7c-3.333,-0 -6,-2.667 -6,-6l0,-36.042c0,-3.333 2.667,-6.041 6,-6.041c3.334,-0 6.042,2.708 6.042,6.041l0,36.042c0,3.333 -2.708,6 -6.042,6Zm-1233.03,65.083c-3.325,0 -6.021,-2.708 -6.021,-6l0,-36.083c0,-3.292 2.696,-6 6.021,-6c3.325,-0 6.021,2.708 6.021,6l-0,36.083c-0,3.292 -2.696,6 -6.021,6Zm1233.03,7.042c-3.333,-0 -6,-2.708 -6,-6.042l0,-36.041c0,-3.334 2.667,-6 6,-6c3.334,-0 6.042,2.666 6.042,6l0,36.041c0,3.334 -2.708,6.042 -6.042,6.042Zm-1233.03,65.041c-3.325,0 -6.021,-2.666 -6.021,-6l0,-36.041c0,-3.333 2.696,-6.042 6.021,-6.042c3.325,0 6.021,2.709 6.021,6.042l-0,36.041c-0,3.334 -2.696,6 -6.021,6Zm1233.03,7.042c-3.333,0 -6,-2.708 -6,-6l0,-36.083c0,-3.292 2.667,-6 6,-6c3.334,-0 6.042,2.708 6.042,6l0,36.083c0,3.292 -2.708,6 -6.042,6Zm-1211.42,58.667c-1.383,-0 -2.766,-0.5 -3.9,-1.458c-10.174,-8.667 -17.483,-20.001 -21.141,-32.792c-0.913,-3.167 0.937,-6.5 4.133,-7.417c3.2,-0.916 6.529,0.917 7.442,4.125c3.004,10.5 9.008,19.792 17.371,26.917c2.533,2.167 2.833,5.958 0.679,8.5c-1.192,1.375 -2.884,2.125 -4.584,2.125Zm1184.21,4.25c-1.917,-0 -3.833,-0.959 -5,-2.667c-1.833,-2.791 -1.125,-6.5 1.667,-8.375c9.083,-6.125 16.125,-14.667 20.291,-24.792c1.292,-3.041 4.834,-4.499 7.875,-3.249c3.084,1.291 4.542,4.791 3.25,7.875c-5.083,12.291 -13.666,22.708 -24.708,30.166c-1.042,0.708 -2.208,1.042 -3.375,1.042Zm-1115.63,10.375l-28.775,-0c-2.667,-0 -5.346,-0.167 -7.959,-0.458c-3.3,-0.376 -5.662,-3.375 -5.271,-6.667c0.388,-3.334 3.392,-5.709 6.684,-5.292c2.146,0.25 4.35,0.375 6.546,0.375l28.775,0c3.324,0 6.02,2.709 6.02,6.042c0,3.291 -2.696,6 -6.02,6Zm72.095,-0l-36.046,-0c-3.324,-0 -6.02,-2.709 -6.02,-6c-0,-3.333 2.696,-6.042 6.02,-6.042l36.046,0c3.325,0 6.021,2.709 6.021,6.042c0,3.291 -2.696,6 -6.021,6Zm72.096,-0l-36.046,-0c-3.325,-0 -6.02,-2.709 -6.02,-6c-0,-3.333 2.695,-6.042 6.02,-6.042l36.046,0c3.325,0 6.021,2.709 6.021,6.042c0,3.291 -2.696,6 -6.021,6Zm72.096,-0l-36.046,-0c-3.325,-0 -6.021,-2.709 -6.021,-6c0,-3.333 2.696,-6.042 6.021,-6.042l36.046,0c3.325,0 6.021,2.709 6.021,6.042c-0,3.291 -2.696,6 -6.021,6Zm72.096,-0l-36.05,-0c-3.325,-0 -6.021,-2.709 -6.021,-6c0,-3.333 2.696,-6.042 6.021,-6.042l36.05,0c3.325,0 6.017,2.709 6.017,6.042c-0,3.291 -2.692,6 -6.017,6Zm72.091,-0l-36.045,-0c-3.325,-0 -6.021,-2.709 -6.021,-6c0,-3.333 2.696,-6.042 6.021,-6.042l36.045,0c3.326,0 6.021,2.709 6.021,6.042c0,3.291 -2.695,6 -6.021,6Zm72.096,-0l-36.045,-0c-3.326,-0 -6.021,-2.709 -6.021,-6c-0,-3.333 2.695,-6.042 6.021,-6.042l36.045,0c3.325,0 6.021,2.709 6.021,6.042c0,3.291 -2.696,6 -6.021,6Zm72.096,-0l-36.046,-0c-3.325,-0 -6.02,-2.709 -6.02,-6c-0,-3.333 2.695,-6.042 6.02,-6.042l36.046,0c3.325,0 6.021,2.709 6.021,6.042c0,3.291 -2.696,6 -6.021,6Zm72.092,-0l-36.042,-0c-3.325,-0 -6.02,-2.709 -6.02,-6c-0,-3.333 2.695,-6.042 6.02,-6.042l36.042,0c3.333,0 6.042,2.709 6.042,6.042c-0,3.291 -2.709,6 -6.042,6Zm72.083,-0l-36.041,-0c-3.334,-0 -6,-2.709 -6,-6c-0,-3.333 2.666,-6.042 6,-6.042l36.041,0c3.333,0 6.042,2.709 6.042,6.042c-0,3.291 -2.709,6 -6.042,6Zm72.125,-0l-36.046,-0c-3.329,-0 -6.037,-2.709 -6.037,-6c-0,-3.333 2.708,-6.042 6.037,-6.042l36.046,0c3.292,0 6,2.709 6,6.042c0,3.291 -2.708,6 -6,6Zm72.084,-0l-36.042,-0c-3.338,-0 -6.042,-2.709 -6.042,-6c0,-3.333 2.704,-6.042 6.042,-6.042l36.042,0c3.333,0 5.999,2.709 5.999,6.042c0,3.291 -2.666,6 -5.999,6Zm72.083,-0l-36.042,-0c-3.333,-0 -6,-2.709 -6,-6c0,-3.333 2.667,-6.042 6,-6.042l36.042,0c3.333,0 6.042,2.709 6.042,6.042c-0,3.291 -2.709,6 -6.042,6Zm72.125,-0l-36.083,-0c-3.292,-0 -6,-2.709 -6,-6c-0,-3.333 2.708,-6.042 6,-6.042l36.083,0c3.292,0 6,2.709 6,6.042c-0,3.291 -2.708,6 -6,6Zm72.083,-0l-36.041,-0c-3.334,-0 -6.042,-2.709 -6.042,-6c-0,-3.333 2.708,-6.042 6.042,-6.042l36.041,0c3.334,0 6,2.709 6,6.042c0,3.291 -2.666,6 -6,6Zm72.334,-0l-36.292,-0c-3.333,-0 -6.042,-2.709 -6.042,-6c0,-3.333 2.709,-6.042 6.042,-6.042l36.042,0c3.333,0 6.166,2.709 6.166,6.042c0,3.291 -2.583,6 -5.916,6Z" style="fill:#739af0;fill-rule:nonzero;"/><path d="M4216.61,4337.76l-1456.93,0c-31.446,0 -56.933,-25.458 -56.933,-56.917l-0,-796.633c-0,-31.446 25.487,-56.933 56.933,-56.933l1456.93,-0c31.458,-0 56.958,25.487 56.958,56.933l0,796.633c0,31.459 -25.5,56.917 -56.958,56.917Z" style="fill:#d4e1ff;fill-rule:nonzero;"/><path d="M3310.89,3701.93l-0,361.204c-0,22.584 25.104,36.125 43.971,23.708l274.499,-180.624c17.042,-11.209 17.042,-36.209 0,-47.417l-274.499,-180.584c-18.867,-12.416 -43.971,1.125 -43.971,23.713Z" style="fill:#f99746;fill-rule:nonzero;"/><path d="M2784.4,4255.64c0,-15.583 12.621,-28.208 28.192,-28.208c15.566,-0 28.187,12.625 28.187,28.208c0,15.583 -12.621,28.209 -28.187,28.209c-15.571,-0 -28.192,-12.626 -28.192,-28.209Z" style="fill:#aec3ff;fill-rule:nonzero;"/><path d="M4095.28,4263.22l-1275.1,0c-4.191,0 -7.587,-3.374 -7.587,-7.583c-0,-4.208 3.396,-7.583 7.587,-7.583l1275.1,-0c4.167,-0 7.583,3.375 7.583,7.583c0,4.209 -3.416,7.583 -7.583,7.583Z" style="fill:#aec3ff;fill-rule:nonzero;"/><rect x="4171.74" y="4526.18" width="812.667" height="1213.08" style="fill:#cddbfc;fill-rule:nonzero;"/><path d="M4656.07,4915.93l-11.125,-0l-0,-50c-0,-17.917 14.583,-32.5 32.542,-32.5l137.5,-0c9.708,-0 18.208,-6.583 20.666,-15.958l21.75,-82.667c1.708,-6.458 0.334,-13.208 -3.75,-18.5c-4.083,-5.333 -10.25,-8.334 -16.917,-8.334l-179.416,0l0,-11.124l179.416,-0c10.126,-0 19.542,4.583 25.751,12.666c6.166,8.042 8.25,18.292 5.666,28.125l-21.75,82.667c-3.75,14.25 -16.666,24.25 -31.416,24.25l-137.5,-0c-11.792,-0 -21.417,9.583 -21.417,21.375l-0,50Z" style="fill:#2b478b;fill-rule:nonzero;"/><path d="M4785.32,4749.3l-236.25,-0c-19.958,-0 -36.125,-16.167 -36.125,-36.125l-0,-21.584c-0,-19.916 16.167,-36.083 36.125,-36.083l236.25,0c19.958,0 36.125,16.167 36.125,36.083l0,21.584c0,19.958 -16.167,36.125 -36.125,36.125Z" style="fill:#f99746;fill-rule:nonzero;"/><path d="M4650.53,5123.43c-16.875,-0 -30.583,-13.667 -30.583,-30.584l-0,-185.249c-0,-16.876 13.708,-30.584 30.583,-30.584c16.875,0 30.584,13.708 30.584,30.584l-0,185.249c-0,16.917 -13.709,30.584 -30.584,30.584Z" style="fill:#2b478b;fill-rule:nonzero;"/><path d="M5820.4,5525.18c0,-0 21.042,64.791 19.25,79.583c-1.833,14.833 -15.041,65.458 -24.458,78.417c-9.417,12.958 -14.083,-52.792 -21.542,-62.667c-7.458,-9.917 -1.541,24.75 -6.791,27.958c-5.292,3.209 -16.251,-25.5 -20.959,-35.624c-4.75,-10.125 11.542,-47.417 11.584,-73.417c0.041,-26.042 42.916,-14.25 42.916,-14.25Z" style="fill:#ffb27d;fill-rule:nonzero;"/><path d="M5325.78,5010.64c-5.833,-74.25 74.834,-125.166 138.542,-86.542c1.333,0.792 2.625,1.584 3.875,2.417c95.417,61.375 301.208,347.833 315.375,376.542c14.125,28.708 55.958,257 55.958,257c0,-0 -51.666,18.917 -75.833,-0.708c-0,-0 -83.792,-216.501 -96.167,-227.334c-12.375,-10.833 -335.125,-191.916 -337.875,-259.792c-0.708,-17.958 -2.166,-39.541 -3.875,-61.583Z" style="fill:#233862;fill-rule:nonzero;"/><path d="M5901.65,6687.39c0,0 38.459,35.084 30.959,60.042c-7.5,24.917 -42.209,41.541 -46.875,72.041c-4.709,30.459 -23.459,47.084 -40.334,47.084l-80.5,-0c0,-0 -12.416,-21.459 17.583,-27.917c30.001,-6.458 41.334,-42.292 39.459,-75.541c-1.875,-33.25 2.833,-77.542 2.833,-77.542l63.75,-14.792l13.125,16.625Z" style="fill:#2a4a7c;fill-rule:nonzero;"/><path d="M5429.9,6778.14c0,0 6.875,79.875 -10,88.208l-216.083,-0.458c-0,0 -0,-24.916 34.708,-30.458c34.709,-5.542 95.667,-25.875 106,-71.125c10.333,-45.25 85.375,13.833 85.375,13.833Z" style="fill:#2a4a7c;fill-rule:nonzero;"/><path d="M5247.44,5649.93c0,-0 11.417,140 24.833,308.291c18.167,228.626 40.084,509.417 42.25,562.625c3.75,92.375 18.75,240.126 18.75,240.126c0,-0 35.625,35.083 106.917,20.291c0,0 63.542,-210.917 81.708,-434.083c0.292,-3.667 0.542,-7.375 0.834,-11.042c16.875,-227.208 43.124,-705.583 43.124,-705.583l-318.416,19.375Z" style="fill:#f99746;fill-rule:nonzero;"/><path d="M5247.44,5649.93c0,-0 11.417,140 24.833,308.291l249.625,388.959c0.292,-3.667 0.542,-7.375 0.834,-11.042c16.875,-227.208 43.124,-705.583 43.124,-705.583l-318.416,19.375Z" style="fill:#ef7e29;fill-rule:nonzero;"/><path d="M5299.53,5666.55c0,-0 205.375,507.041 340.459,745.292c135.083,238.291 177.25,304.791 177.25,304.791c-0,0 77.416,-30.5 84.416,-51.25c0,0 -51.625,-460 -142.083,-572.166c-51.125,-63.334 -111.125,-253.501 -113.959,-320.001c-2.833,-66.499 -18.291,-198.083 -18.291,-198.083l-327.792,91.417Z" style="fill:#f99746;fill-rule:nonzero;"/><path d="M5476.61,4905.97c-0,-0 -137.625,69.833 -218.209,46.541c0,0 19.209,-25.292 53.375,-44.458c-3.083,-16.042 -5.541,-29.958 -7,-41.75c-3.916,-27.25 -4.25,-42.709 -4.25,-42.709l52.792,-43.25l50.041,-41.333c-1.749,113.542 73.251,166.959 73.251,166.959Z" style="fill:#ffb27d;fill-rule:nonzero;"/><path d="M5613.32,5615.26c-55.542,33.625 -108.167,58.917 -169.708,73.125c-72.626,17.209 -161.875,12.125 -191.751,16.667c-3.083,0.417 -5.958,-0.375 -8.708,-2.208c-2.333,-1.209 -15.5,-89.792 -28.708,-201.584c-0.583,-4.5 -1.209,-9.041 -1.458,-13.583l-0.209,-1.5c-5.125,-43.708 -9.625,-89.625 -13.5,-135.625c-3.208,-35.834 -5.833,-71.209 -7.625,-104.5c-2.292,-41.625 -3.25,-79.834 -2.292,-111.292c0.417,-14.375 1.251,-27.292 2.542,-38.5c7.875,-65.333 39,-111.958 68.334,-146.708l24.333,-27.708c28.208,1.791 57,-3.542 84.208,-21.459c29.709,-19.583 61.792,-40.625 67.833,-37.125c45.542,24.958 82.626,89.5 109.126,174.792c15.166,49.083 26.833,104.791 34.291,163.792c2.417,18.333 4.459,37.083 6,55.791c0.334,3.458 0.583,6.917 0.834,10.334c3.583,51.124 9.416,99.041 15.875,141.833c8.708,57.708 18.625,106.042 25.624,140.083c3.542,17.334 6.209,30.708 7.792,40.333c1.417,8.375 -15.333,20.375 -22.833,25.042Z" style="fill:#2b478b;fill-rule:nonzero;"/><path d="M5405.11,4782.35c-0,-0 -33.834,64.708 -100.334,83.958c-3.916,-27.25 -4.25,-42.709 -4.25,-42.709l52.792,-43.25l51.792,2.001Z" style="fill:#ed985f;fill-rule:nonzero;"/><path d="M5276.07,4822.22c0,0 132.958,19.042 143.792,-62.666c10.833,-81.75 35.291,-134.333 -49.167,-149.958c-84.459,-15.625 -105.125,13.458 -115.458,39.875c-10.375,26.416 -13.5,165.666 20.833,172.749Z" style="fill:#ffb27d;fill-rule:nonzero;"/><path d="M5464.86,4597.97c1.167,-1.417 3.917,-2.584 10.084,-3.042c-0,-0 -5,-3 -11.583,-3.042c-1.459,-8.541 -6.334,-23.666 -21.209,-27.041c0,-0 8.042,4.041 9.25,13.166c-17.458,-17.25 -54.416,-29.291 -155.833,-19.292c-133.667,13.25 -87.833,98.084 -70.334,107.959c17.542,9.875 60.626,-19 92.959,-17.084c32.375,1.917 39.417,48.459 50.5,54.667c11.083,6.167 6.541,-5.083 21.25,-12.041c14.708,-7 16.583,17.541 12.625,33.583c-3.959,16.041 16.833,36.708 16.833,36.708l20.125,-22.583c20.167,-22.542 37.667,-116.834 27.917,-136.667c-0.833,-1.75 -1.708,-3.541 -2.584,-5.291Z" style="fill:#2c3a64;fill-rule:nonzero;"/><path d="M5422.65,5142.05c0,-0 -112.166,85.292 -231,104c-2.292,-41.625 -3.25,-79.834 -2.292,-111.292l233.292,7.292Z" style="fill:#233862;fill-rule:nonzero;"/><path d="M4734.03,5031.97c-1.791,-1.916 -24.625,-78.333 -64.166,-72.791c-25.792,3.666 -67.959,18.583 -56.792,52.583c4.416,13.375 83.041,59.375 83.041,59.375l37.917,-39.167Z" style="fill:#ffb27d;fill-rule:nonzero;"/><path d="M5436.49,4977.18c63.958,38.25 58.75,133.542 -9.626,163.125c-1.374,0.583 -2.791,1.208 -4.208,1.75c-105.292,42.25 -458,44.208 -489.583,39.125c-31.625,-5.083 -241.958,-103.125 -241.958,-103.125c-0,-0 14.5,-53.083 44.458,-61.417c-0,0 225.041,57 241.042,53.167c16,-3.834 350.5,-162.125 407.416,-125.084c15.083,9.834 33.5,21.126 52.459,32.459Z" style="fill:#2b478b;fill-rule:nonzero;"/><path d="M7809.32,2467.78l-280.745,-0c-11.833,-0 -21.458,-9.654 -21.458,-21.459c-0,-11.799 9.625,-21.453 21.458,-21.453l280.745,-0c11.838,-0 21.463,9.654 21.463,21.453c0,11.805 -9.625,21.459 -21.463,21.459Z" style="fill:#ebf3fa;fill-rule:nonzero;"/><path d="M7809.32,2551.62l-280.745,0c-11.833,0 -21.458,-9.658 -21.458,-21.458c-0,-11.804 9.625,-21.458 21.458,-21.458l280.745,-0c11.838,-0 21.463,9.654 21.463,21.458c0,11.8 -9.625,21.458 -21.463,21.458Z" style="fill:#ebf3fa;fill-rule:nonzero;"/><path d="M7809.32,2637.61l-280.745,0c-11.833,0 -21.458,-9.654 -21.458,-21.454c-0,-11.8 9.625,-21.458 21.458,-21.458l280.745,-0c11.838,-0 21.463,9.658 21.463,21.458c0,11.8 -9.625,21.454 -21.463,21.454Z" style="fill:#ebf3fa;fill-rule:nonzero;"/><path d="M6709.82,4662.09l-668.459,0c-15.625,0 -28.416,-12.791 -28.416,-28.458c-0,-15.625 12.791,-28.458 28.416,-28.458l668.459,-0c15.667,-0 28.458,12.833 28.458,28.458c0,15.667 -12.791,28.458 -28.458,28.458Z" style="fill:#ebf3fa;fill-rule:nonzero;"/><path d="M3442.36,2709.15l-668.434,0c-15.65,0 -28.454,-12.799 -28.454,-28.45c0,-15.649 12.804,-28.454 28.454,-28.454l668.434,0c15.662,0 28.458,12.805 28.458,28.454c0,15.651 -12.796,28.45 -28.458,28.45Z" style="fill:#ebf3fa;fill-rule:nonzero;"/><path d="M6709.82,4944.39l-668.459,0c-15.625,0 -28.416,-12.833 -28.416,-28.458c-0,-15.667 12.791,-28.458 28.416,-28.458l668.459,-0c15.667,-0 28.458,12.791 28.458,28.458c0,15.625 -12.791,28.458 -28.458,28.458Z" style="fill:#ebf3fa;fill-rule:nonzero;"/><path d="M6709.82,4803.22l-799.458,0c-15.667,0 -28.459,-12.791 -28.459,-28.416c0,-15.667 12.792,-28.458 28.459,-28.458l799.458,-0c15.667,-0 28.458,12.791 28.458,28.458c0,15.625 -12.791,28.416 -28.458,28.416Z" style="fill:#ebf3fa;fill-rule:nonzero;"/><path d="M3243.95,2888.07l-377.158,0c-11.917,0 -21.667,-9.745 -21.667,-21.662l-0,-13.579c-0,-11.913 9.75,-21.663 21.667,-21.663l377.158,0c11.917,0 21.663,9.75 21.663,21.663l-0,13.579c-0,11.917 -9.746,21.662 -21.663,21.662Z" style="fill:#ebf3fa;fill-rule:nonzero;"/><path d="M2720.22,2859.61c-0,-15.712 12.742,-28.45 28.454,-28.45c15.713,0 28.454,12.738 28.454,28.45c0,15.717 -12.741,28.454 -28.454,28.454c-15.712,0 -28.454,-12.737 -28.454,-28.454Z" style="fill:#ebf3fa;fill-rule:nonzero;"/><path d="M3315.54,3001.3l-446.938,-0c-12.912,-0 -23.479,-10.567 -23.479,-23.479l-0,-9.946c-0,-12.912 10.567,-23.479 23.479,-23.479l446.938,-0c12.912,-0 23.483,10.567 23.483,23.479l0,9.946c0,12.912 -10.571,23.479 -23.483,23.479Z" style="fill:#ebf3fa;fill-rule:nonzero;"/><path d="M2720.22,2972.85c-0,-15.717 12.742,-28.454 28.454,-28.454c15.713,-0 28.454,12.737 28.454,28.454c0,15.712 -12.741,28.45 -28.454,28.45c-15.712,-0 -28.454,-12.738 -28.454,-28.45Z" style="fill:#ebf3fa;fill-rule:nonzero;"/><path d="M3243.95,3124.22l-377.158,-0c-11.917,-0 -21.667,-9.75 -21.667,-21.667l-0,-13.575c-0,-11.917 9.75,-21.667 21.667,-21.667l377.158,0c11.917,0 21.663,9.75 21.663,21.667l-0,13.575c-0,11.917 -9.746,21.667 -21.663,21.667Z" style="fill:#ebf3fa;fill-rule:nonzero;"/><path d="M2720.22,3095.77c-0,-15.713 12.742,-28.455 28.454,-28.455c15.713,0 28.454,12.742 28.454,28.455c0,15.712 -12.741,28.454 -28.454,28.454c-15.712,-0 -28.454,-12.742 -28.454,-28.454Z" style="fill:#ebf3fa;fill-rule:nonzero;"/><path d="M3857.57,2792.38c-33.083,32.308 -33.708,85.504 -1.375,118.57c15.667,16.022 36.583,24.988 59,25.247c22.375,0.258 43.542,-8.217 59.583,-23.867c33.042,-32.313 33.667,-85.504 1.375,-118.579c-32.333,-33.071 -85.541,-33.683 -118.583,-1.371Zm72.458,159.412c-4.916,0.68 -9.958,0.996 -15.041,0.938c-26.792,-0.313 -51.875,-11.042 -70.625,-30.221c-38.667,-39.591 -37.959,-103.275 1.666,-141.954l0,-0.004c39.583,-38.684 103.25,-37.946 141.917,1.645c38.708,39.592 37.958,103.275 -1.625,141.959c-15.542,15.188 -35.125,24.733 -56.292,27.637Z" style="fill:#739af0;fill-rule:nonzero;"/><path d="M3758.07,3018.38l-11.542,-11.829l97.958,-95.738l11.584,11.825l-98,95.742Z" style="fill:#739af0;fill-rule:nonzero;"/><path d="M3718.24,3045.74c-5.709,-5.834 -5.584,-15.18 0.249,-20.879l57.709,-56.384c5.833,-5.696 15.166,-5.592 20.875,0.242c5.708,5.833 5.583,15.179 -0.25,20.875l-57.708,56.387c-5.834,5.696 -15.167,5.587 -20.875,-0.241Z" style="fill:#739af0;fill-rule:nonzero;"/><path d="M7584.07,6868.43c-12.792,0.083 -26.25,-9.167 -30,-20.667l-771.292,-2348.38c-3.791,-11.5 3.542,-20.875 16.333,-20.958c12.792,-0.042 26.251,9.208 30.042,20.708l771.25,2348.33c3.792,11.499 -3.541,20.874 -16.333,20.958Z" style="fill:#2a4e96;fill-rule:nonzero;"/><path d="M8205.65,6864.84c-12.792,0.042 -26.208,-9.208 -30,-20.666l-771.292,-2348.38c-3.749,-11.5 3.542,-20.875 16.376,-20.959c12.791,-0.083 26.208,9.167 29.999,20.667l771.292,2348.38c3.751,11.5 -3.541,20.875 -16.375,20.958Z" style="fill:#2a4e96;fill-rule:nonzero;"/><path d="M7536.36,4823.01l-624.209,3.625c-12,0.042 -24.75,-8.708 -28.333,-19.541c-3.542,-10.792 3.416,-19.667 15.458,-19.751l624.209,-3.625c12,-0.041 24.75,8.709 28.333,19.542c3.541,10.792 -3.417,19.667 -15.458,19.75Z" style="fill:#2a4e96;fill-rule:nonzero;"/><path d="M7671.03,5233.01l-624.208,3.625c-12.042,0.084 -24.75,-8.708 -28.334,-19.5c-3.541,-10.792 3.417,-19.708 15.459,-19.791l624.208,-3.584c12,-0.083 24.75,8.708 28.334,19.5c3.541,10.792 -3.417,19.708 -15.459,19.75Z" style="fill:#2a4e96;fill-rule:nonzero;"/><path d="M7800.74,5627.93l-624.209,3.625c-12.041,0.042 -24.792,-8.709 -28.333,-19.542c-3.542,-10.792 3.417,-19.667 15.417,-19.75l624.208,-3.625c12.042,-0.083 24.787,8.709 28.333,19.542c3.537,10.792 -3.375,19.667 -15.416,19.75Z" style="fill:#2a4e96;fill-rule:nonzero;"/><path d="M7946.74,6072.51l-624.209,3.583c-12.041,0.084 -24.791,-8.708 -28.333,-19.499c-3.542,-10.792 3.416,-19.709 15.458,-19.792l624.167,-3.584c12.041,-0.083 24.791,8.709 28.334,19.501c3.582,10.791 -3.376,19.708 -15.417,19.791Z" style="fill:#2a4e96;fill-rule:nonzero;"/><path d="M8099.57,6537.8l-624.208,3.625c-12.042,0.041 -24.792,-8.709 -28.334,-19.542c-3.542,-10.792 3.417,-19.667 15.417,-19.75l624.208,-3.625c12.042,-0.042 24.792,8.708 28.334,19.542c3.542,10.791 -3.376,19.667 -15.417,19.75Z" style="fill:#2a4e96;fill-rule:nonzero;"/><path d="M6755.86,3423.82c-4.917,0.946 -9.667,-2.279 -10.625,-7.174l-10,-51.601c-0.959,-4.891 2.291,-9.666 7.166,-10.616c4.917,-0.946 9.667,2.283 10.625,7.171l10,51.604c0.917,4.892 -2.291,9.667 -7.166,10.616Z" style="fill:#2a4e96;fill-rule:nonzero;"/><path d="M6743.07,3341.39l-6.125,1.183l-14.458,-74.579l6.125,-1.183l14.458,74.579Z" style="fill:#2a4e96;fill-rule:nonzero;"/><path d="M6728.65,2847.03c0,-0 -5.916,-51.367 -18.333,-71.004c-12.458,-19.633 -59.542,-32.246 -62.5,-29.363c-9.208,8.925 27.208,40.475 28.625,52.104c1.458,11.626 -18.459,3.588 -8.917,26.255c8.084,19.141 34.708,43.966 34.708,43.966l26.417,-21.958Z" style="fill:#ffb27d;fill-rule:nonzero;"/><path d="M6705.94,2841.31c17.166,-13.467 20.833,-13.208 20.833,-13.208c0,-0 158.709,137.504 174.167,149.75c15.458,12.245 253.833,81.375 253.833,81.375l37.875,193.787c0,0 -322.583,-155.8 -361.125,-187.596c-63.667,-52.541 -144.041,-199.579 -144.041,-199.579c-0,0 4.999,-13.95 18.458,-24.529Z" style="fill:#e58638;fill-rule:nonzero;"/><path d="M7159.9,4703.76c0,0 -2.75,66.208 -15.458,82.333l-176.917,1c1.209,-6.833 1.958,-22.625 26.417,-26.874c30.917,-5.376 67.25,-26.959 85.958,-67.834c19.709,-42.958 80,11.375 80,11.375Z" style="fill:#163560;fill-rule:nonzero;"/><path d="M7507.11,4694.22c-0,-0 12.333,87.958 -4.417,89.499c-2.25,0.209 -71.292,1.334 -101.208,1.834c-35.167,0.583 -92.959,-0.667 -92.959,-0.667c-7.292,0.292 -12.041,-7.583 -8.333,-13.833c4.042,-6.875 11.792,-14.209 26.583,-17.042c30.792,-5.917 82.125,-28.583 100.125,-69.75c18.959,-43.292 80.209,9.959 80.209,9.959Z" style="fill:#163560;fill-rule:nonzero;"/><path d="M7067.9,3792.51c0,0 49.209,172.167 190.167,471.084c141,298.958 147.125,442.999 147.125,442.999c0,0 21.333,7.542 49.666,4.542c30.626,-3.25 52.251,-16.916 52.251,-16.916c-0,-0 -9.167,-355.834 -75.75,-506.709c-66.584,-150.833 -80.167,-563.667 -80.167,-563.667l-283.292,168.667Z" style="fill:#233862;fill-rule:nonzero;"/><path d="M6988.9,3644.43c0,-0 -3.916,266.542 42.209,593.833c46.124,327.292 24.583,479.5 24.583,479.5c0,0 12.208,8.875 49.791,8.75c44.042,-0.208 66.584,-18.375 66.584,-18.375c-0,0 66,-327.416 47.083,-491.208c-18.917,-163.833 90.375,-562.125 90.375,-562.125l-320.625,-10.375Z" style="fill:#2a4e96;fill-rule:nonzero;"/><path d="M7206.86,3020.64l-52.084,38.588l-75.291,-15.855c1.041,-6.866 6,-35.32 10.541,-61.099c0.25,-1.517 0.542,-3.038 0.792,-4.526c3.875,-21.933 7.25,-40.77 7.25,-40.77l70.292,-35.051l26.25,-13.07c-0.084,0.462 -2.042,24.342 -2.334,27.829c-4.916,61.9 14.584,103.954 14.584,103.954Z" style="fill:#ffb27d;fill-rule:nonzero;"/><path d="M7356.11,3677.35c-17.042,77.916 -381.625,43.708 -376.875,-3.875c0.166,-1.584 1.124,-23.584 2.458,-53.251c2.75,-64.183 6.958,-164.466 7.5,-172.304l0.041,-0.408c6.584,-66.221 12.876,-130.992 13.292,-173.3c0.375,-36.687 5.417,-74.191 12.125,-108.254c6.209,-31.433 13.834,-59.971 20.458,-82.208c4.625,-15.676 13.334,-29.446 24.834,-40.271c8.208,-7.7 17.833,-13.905 28.417,-18.117c2.875,-1.221 5.833,-2.221 8.833,-3.079c42.875,-12.454 102.292,-27.858 118.333,-23.146c43.583,12.816 76,89.546 98.917,187.342c42.875,183.037 52.792,440.079 41.667,490.871Z" style="fill:#f99746;fill-rule:nonzero;"/><path d="M7187.03,2917.77c-15.458,29.55 -73,55.104 -97,64.496c0.25,-1.517 0.542,-3.038 0.792,-4.526c3.875,-21.933 7.25,-40.77 7.25,-40.77l70.292,-35.051c15.541,-0.241 25,3.688 18.666,15.851Z" style="fill:#fca56b;fill-rule:nonzero;"/><path d="M7063.86,2932.86c-0,0 126.875,39.575 150.333,-39.813c23.417,-79.387 55.583,-127.745 -24.459,-156.37c-79.999,-28.625 -104.749,-3 -118.999,21.6c-14.292,24.591 -39.251,162.241 -6.875,174.583Z" style="fill:#ffb27d;fill-rule:nonzero;"/><path d="M7075.69,2750.62c-0,-0 8.083,92.379 27.208,88.371c19.084,-4.013 36.417,-6.984 33.625,20.862c-2.791,27.846 -29.291,60.004 29.584,64.929c58.875,4.929 143.541,-146.917 127.374,-175.667c-46.708,-82.954 -285.249,-99.695 -217.791,1.505Z" style="fill:#163560;fill-rule:nonzero;"/><path d="M6981.69,3620.22c2.75,-64.183 6.958,-164.466 7.5,-172.304l0.041,-0.408l215.376,-128.775c-0,-0 8.333,300.612 -222.917,301.487Z" style="fill:#e58638;fill-rule:nonzero;"/><path d="M6810.49,3350.74c-0,0 -43.75,-29.608 -52.084,-32.187c-8.291,-2.579 -35.5,-5.375 -36.792,-3.233c-1.249,2.146 -4.958,8.712 -0.208,10.933c4.75,2.225 10.667,1.446 8.875,3c-1.75,1.55 -19.667,-6.967 -23.792,2.158c-4.125,9.125 -7.75,40.387 13.251,49.863c21,9.479 72.833,0.916 76.541,2c31.709,9.212 14.209,-32.534 14.209,-32.534Z" style="fill:#ffb27d;fill-rule:nonzero;"/><path d="M6810.07,3342.74c-0,0 213.625,36.321 232.583,27.104c30.209,-14.712 -11.75,-231.466 -11.75,-231.466c0,-0 -1.791,-49.121 55.584,-60.708c49.875,-10.071 98,27.283 98,27.283c-0,-0 43.75,39.15 38.166,82.571c-12.416,96.254 -31.666,292.025 -96.083,322.033c-83,38.704 -323.292,-107.329 -323.292,-107.329c0,-0 -8,-9.8 -6.875,-27.992c1,-16.05 13.667,-31.496 13.667,-31.496Z" style="fill:#f99746;fill-rule:nonzero;"/><path d="M6666.53,2822.44c0,0 -13.667,-27.179 -15.875,-32.279c-2.166,-5.1 3.167,-4.004 8.417,-1.154c5.25,2.846 12.458,18.621 20.542,16.716c6.458,-1.508 -13.084,16.717 -13.084,16.717Z" style="fill:#ffb27d;fill-rule:nonzero;"/></g></svg>