<?xml version="1.0" encoding="UTF-8" standalone="no"?><!DOCTYPE svg PUBLIC "-//W3C//DTD SVG 1.1//EN" "http://www.w3.org/Graphics/SVG/1.1/DTD/svg11.dtd"><svg width="100%" height="100%" viewBox="0 0 11667 8334" version="1.1" xmlns="http://www.w3.org/2000/svg" xmlns:xlink="http://www.w3.org/1999/xlink" xml:space="preserve" xmlns:serif="http://www.serif.com/" style="fill-rule:evenodd;clip-rule:evenodd;stroke-linejoin:round;stroke-miterlimit:2;"><g><rect x="0" y="0" width="11666.7" height="8333.33" style="fill:#fff;fill-rule:nonzero;"/><path d="M1755.89,7484.54c0,-0 -1302.04,-1409.96 -844.095,-3053.5c299.108,-1073.5 1290.88,-423.121 1238.06,-2163.42c-52.812,-1740.3 2922.23,-1921.15 3747.03,-1416.25c824.833,504.896 842.292,827.483 2545.5,626.987c1703.21,-200.496 2444.42,1329.63 1561.96,2615.12c-772.749,1125.73 1744.46,1012.77 248.084,3394.19l-8496.53,-3.125Z" style="fill:#ebf3fa;fill-rule:nonzero;"/><path d="M5878.29,2340.4c8.499,21.225 15.375,44.096 20.166,68.554c9.084,46.642 -0.375,120.246 -21.458,162.917c-2.25,4.587 -4.542,9.046 -6.875,13.504c-145.25,269.588 -525.917,215.971 -588.584,-88.204c-8.166,-39.775 -3.083,-97.688 11.126,-142.075c3.458,-10.238 7.166,-19.862 11.375,-28.021c19.375,-38.708 43.416,-71.112 70.833,-97.488c156.333,-150.154 417.542,-100.991 503.417,110.813Zm-949.5,421.463l148.416,-16.721c12.375,-1.276 24.375,4.491 31.167,14.912c8.583,13.338 17.792,26.404 27.583,39.204c18.25,23.788 37.792,45.771 58.792,65.621c9.792,9.313 13.042,23.454 8.042,35.929l-56.917,145.346c-6.208,15.45 0.625,33.204 15.792,40.667l127.875,63.333c14.541,7.142 31.916,2.225 40.666,-11.266l77.334,-121.159c7.25,-11.941 21.708,-17.479 35.625,-13.783c58.75,15.521 119.916,21.6 181.042,18.025c14.749,-0.846 28.499,8.754 32.916,22.817l26.208,83.416c5.125,15.784 21.25,25.584 37.709,22.404l138.875,-28.087c2.874,-0.554 5.541,-1.367 8.042,-2.663c12.041,-5.742 19.416,-18.824 17.749,-32.529l-12.375,-110.883l-3.041,-27.021c23.083,-12.996 45.75,-27.913 67.333,-44.479c29.083,-22.321 55.583,-46.959 79.042,-73.162c8.958,-9.976 23.041,-13.584 35.5,-8.571l117.041,45.978c16.042,6.184 34.167,-0.728 41.667,-16.133l48.417,-97.762l13.791,-28.05c7.625,-15.275 2.5,-33.958 -11.875,-43.059l-101.166,-64.699c-11.834,-7.367 -17.667,-21.388 -14.292,-34.659c9.458,-39.9 14.708,-80.7 15.417,-121.517c0.375,-3.558 0.333,-6.816 0.333,-10.303c-0.083,-1.176 0.083,-2.317 0.209,-3.459c1.249,-13.084 10.375,-23.971 22.957,-27.892l135.376,-42.845c1.542,-0.376 3.041,-1.109 4.416,-1.742c13.167,-6.404 20.667,-21.221 17.834,-35.888l-27.792,-138.487c-3.375,-16.713 -18.833,-28.05 -35.917,-26.234l-154.791,17.505c-13.125,1.642 -25.709,-5.129 -31.959,-16.763c-13.999,-25.433 -30.124,-50.225 -48.5,-74.146c-9.708,-12.671 -19.833,-24.812 -30.416,-36.429c-8.5,-9.491 -11.042,-22.958 -6.334,-34.775l54.667,-139.716c6.083,-15.351 -0.667,-32.98 -15.625,-40.409l-126.584,-62.467c-15.249,-7.587 -33.833,-2.591 -43.166,11.98l-61.208,95.85c-8.208,12.866 -23.917,18.354 -38.292,13.554c-56.25,-19.496 -115.208,-29.93 -174.625,-31.367c-14.041,-0.108 -26.541,-9.421 -30.792,-23l-38.583,-122c-5.167,-16.375 -21.875,-26.129 -38.708,-22.883l-138,27.621c-16.584,3.279 -27.833,18.883 -25.792,35.416l0.625,6.484l14.417,128.817c1.583,13.804 -5.5,26.82 -17.834,33.216l-0.125,0.1c-29.583,15.283 -58.208,33.362 -85.624,54.392c-14.626,11.208 -28.376,22.996 -41.709,35.3c-9.167,8.67 -22.417,11.229 -34.125,6.666l-118.792,-46.679c-16.249,-6.437 -34.75,0.771 -42.375,16.275l-62.291,126.042c-1.75,3.604 -2.709,7.429 -3.209,11.083c-1.208,12.042 4.375,24.4 14.959,31.258l81,51.459c9.833,6.412 15.541,17.629 15.083,29.075c-0.166,3 -0.666,6.067 -1.667,9.079c-24.625,72.304 -34.416,148.65 -29.125,224.9c1.084,12.925 -6.083,25 -17.333,30.958c-1.625,0.834 -3.333,1.534 -5.166,2.108l-109.626,34.613c-15.874,5 -25.458,21.171 -22.291,37.629l0.625,3.221l27,135.004c3.541,16.979 19.25,28.342 36.5,26.43Z" style="fill:#dfebfd;fill-rule:nonzero;"/><path d="M9641.42,2242.01c-142.499,-287.171 -635.832,-90.584 -635.832,-90.584c-0,0 -242.251,600.213 -340.876,632.954c-98.666,32.746 106.875,-553.604 106.875,-553.604c-199.75,19.967 -651.541,359.471 -651.541,359.471c-0,0 154.708,613.367 51.042,620.821c-103.709,7.45 -109.293,-550.096 -109.293,-550.096c-178.374,94.587 -311.458,351.063 -311.458,351.063c-149.708,404.37 377.292,575.724 377.292,575.724c0,0 49,213.721 -34.792,486.692l0,0.013c0,-0 -20.916,51.479 -36,134.908l51.709,-10.25c1.458,-14.708 3.458,-29.042 6.041,-42.942l0.084,-0.25l0.083,-0.604c1.958,-8.696 4.791,-21.075 8.417,-36.187l-0,-0.13c9.666,-34.07 15.791,-59.037 19.291,-76.874l0,-0.163c28.084,-106.492 71.125,-246.541 111.334,-282.108c-0,-0 -7.292,-6.917 -15.75,-21.521c4.999,6.862 10.25,14.017 15.75,21.521c126.208,172.1 575.124,115.787 811.666,16.216c236.542,-99.57 115.209,-147.77 -39.999,-234.274c-155.209,-86.505 -427.501,-1.48 -518.5,-29.413c-90.959,-27.929 20.375,-96.058 187.291,-116.067c166.916,-20.017 281.75,128.055 552.333,100.588c270.584,-27.467 373.709,-567.171 373.709,-567.171c-172.083,93.333 -520.958,57.483 -546.167,-3.233c-25.208,-60.717 462.916,-151.113 535.041,-185.159c72.084,-34.041 174.709,-212.171 32.25,-499.341Z" style="fill:#dfebfd;fill-rule:nonzero;"/><path d="M1501.89,4449.25c-58.001,-315.296 454.741,-453.504 454.741,-453.504c0,-0 553.596,335.379 652.2,302.462c98.6,-32.916 -417.321,-379.15 -417.321,-379.15c171.909,-103.72 737.034,-102.625 737.034,-102.625c-0,0 243.67,583.775 331.141,527.609c87.467,-56.167 -242.133,-505.888 -242.133,-505.888c199.492,-31.158 459.713,94.429 459.713,94.429c362.154,234.034 42.937,687 42.937,687c0,0 88.813,200.459 319.462,368.792l0.009,0c-0,0 47.596,28.708 109.675,86.458l-47.558,22.75c-9.988,-10.875 -20.171,-21.166 -30.575,-30.75l-0.196,-0.166l-0.45,-0.375c-6.775,-5.792 -16.467,-14.042 -28.396,-23.959l-0.046,-0.041l-0.058,-0.042c-28.142,-21.5 -48.017,-37.833 -61.488,-50l-0.112,-0.125c-86.275,-68.458 -204.671,-154.75 -258.18,-159.167c0,0 1.721,-9.916 -0.258,-26.666c0.084,8.5 0.167,17.375 0.258,26.666c2.088,213.417 -391.033,437.334 -640.074,499.334c-249.038,62.041 -180.801,-49.25 -108.38,-211.5c72.425,-162.25 341.371,-257.334 397.484,-334.25c56.108,-76.875 -73.855,-64.709 -219.471,19.291c-145.617,84 -148.85,271.375 -381.938,411.5c-233.087,140.167 -639.025,-230.166 -639.025,-230.166c193.675,-28.375 451.513,-266.125 435.313,-329.834c-16.2,-63.708 -461.158,156.417 -539.283,172.375c-78.125,15.917 -267.03,-65.166 -325.025,-380.458Z" style="fill:#dfebfd;fill-rule:nonzero;"/><path d="M9945.58,6472.92c252.292,-197.792 -40.25,-640.959 -40.25,-640.959c0,0 -636.875,-115.5 -688.958,-205.458c-52.042,-90 563.792,-7.583 563.792,-7.583c-60.083,-191.584 -484.125,-565.125 -484.125,-565.125c-0,-0 -569.255,275.875 -597.588,175.875c-28.329,-100 516.505,-218.584 516.505,-218.584c-128.793,-155.5 -406.918,-233.791 -406.918,-233.791c-426.333,-64.584 -487.249,486.208 -487.249,486.208c-0,-0 -199.334,91.333 -483.625,64.667l-0.042,-0.042c0,-0 -54.625,-10.042 -139.417,-7.875l20.542,48.542c14.708,-1.542 29.167,-2.5 43.292,-2.75l0.875,-0c8.916,0.125 21.583,0.416 37.125,0.833l0.041,-0l0.084,0.042c35.333,2.541 61.041,3.458 79.208,3.25l0.167,-0c109.958,5.875 255.833,19.625 298.792,51.791c-0,0 5.291,-8.541 17.874,-19.791c-5.666,6.291 -11.624,12.916 -17.874,19.791c-142.917,158.5 3.249,586.625 148.749,798.084c145.459,211.416 168.042,82.875 221.292,-86.667c53.25,-169.5 -85.25,-418.917 -76.333,-513.667c8.875,-94.791 98.166,0.417 151.625,159.834c53.412,159.375 -68.255,301.875 13.5,561.25c81.787,259.416 631.166,250.916 631.166,250.916c-126.291,-149.583 -161.917,-498.458 -107.583,-535.458c54.333,-37 241.833,422.625 289.833,486.333c47.917,63.709 243.167,128.084 495.5,-69.666Z" style="fill:#dfebfd;fill-rule:nonzero;"/><path d="M7690.42,2667.36l-26.958,0c20.708,-181.516 88.584,-587.254 297.25,-867.12c13.542,-18.125 32.709,-26.28 51.667,-26.28c32.542,0 64.5,23.971 66.375,62.705c0.042,1.025 0.084,2.058 0.125,3.108c3.042,95.696 -251.792,491.058 -388.459,827.587Z" style="fill:#d8e8fd;fill-rule:nonzero;"/><path d="M7836.33,2667.36l-98.583,0c116.5,-252.1 327.084,-625.475 629.708,-847.833c12.625,-9.275 27.542,-13.858 42.334,-13.858c20.083,-0 39.875,8.487 53.125,25.183c14.999,18.863 23.208,49.375 11.292,98.729c-24.959,103.159 -362.126,415.942 -637.876,737.779Z" style="fill:#d8e8fd;fill-rule:nonzero;"/><path d="M3250.36,3592.23c-221.729,-174.825 -490.854,-337.291 -521.045,-401.604c-0.371,-0.8 -0.738,-1.591 -1.092,-2.379c-17.462,-38.817 13.021,-78.337 50.2,-78.337c8.004,-0 16.317,1.829 24.529,5.895c184.725,91.421 341.121,255.65 447.408,389.959l0,86.466Z" style="fill:#d8e8fd;fill-rule:nonzero;"/><path d="M3250.36,3729.03c-335.416,-140.95 -724.158,-250.429 -783.65,-319.937c-27.82,-32.509 -33.283,-58.571 -29.245,-78.458c5.541,-27.296 30.446,-45.776 57.629,-45.776c3.225,0 6.487,0.263 9.75,0.8c284.671,46.871 559.862,217.275 745.516,356.759l0,86.612Z" style="fill:#d8e8fd;fill-rule:nonzero;"/><path d="M8872.92,2786.2l-0,3750.43c-0,65.583 -47.334,118.833 -105.75,118.833l-5411.04,0c-58.396,0 -105.767,-53.25 -105.767,-118.833l0,-3750.43c0,-65.667 47.371,-118.834 105.767,-118.834l5411.04,0c58.416,0 105.75,53.167 105.75,118.834Z" style="fill:#aec3ff;fill-rule:nonzero;"/><path d="M8605.46,2572.09l-0,304.137l-6038.72,-0l-0,-304.137c-0,-62.771 50.875,-113.596 113.596,-113.596l5811.54,-0c62.709,-0 113.584,50.825 113.584,113.596Z" style="fill:#f99746;fill-rule:nonzero;"/><path d="M2751.47,2667.36c-0,-29.208 23.675,-52.887 52.883,-52.887c29.208,-0 52.883,23.679 52.883,52.887c0,29.205 -23.675,52.88 -52.883,52.88c-29.208,-0 -52.883,-23.675 -52.883,-52.88Z" style="fill:#dfebfd;fill-rule:nonzero;"/><path d="M2959.85,2667.36c0,-29.208 23.675,-52.887 52.883,-52.887c29.209,-0 52.884,23.679 52.884,52.887c-0,29.205 -23.675,52.88 -52.884,52.88c-29.208,-0 -52.883,-23.675 -52.883,-52.88Z" style="fill:#dfebfd;fill-rule:nonzero;"/><path d="M3173.5,2667.36c-0,-29.208 23.675,-52.887 52.883,-52.887c29.209,-0 52.884,23.679 52.884,52.887c-0,29.205 -23.675,52.88 -52.884,52.88c-29.208,-0 -52.883,-23.675 -52.883,-52.88Z" style="fill:#dfebfd;fill-rule:nonzero;"/><path d="M6941.33,1925.63c4.124,10.338 7.458,21.475 9.791,33.388c4.416,22.712 -0.167,58.558 -10.458,79.342c-1.084,2.233 -2.209,4.404 -3.334,6.575c-70.708,131.291 -256.125,105.178 -286.666,-42.955c-3.959,-19.37 -1.458,-47.575 5.458,-69.191c1.667,-4.988 3.459,-9.675 5.542,-13.65c9.417,-18.851 21.125,-34.63 34.499,-47.476c76.126,-73.124 203.334,-49.183 245.168,53.967Zm-462.459,205.254l72.292,-8.141c6.041,-0.621 11.875,2.187 15.167,7.262c4.208,6.496 8.666,12.859 13.458,19.092c8.916,11.583 18.416,22.292 28.625,31.958c4.792,4.534 6.375,11.421 3.916,17.496l-27.708,70.788c-3.042,7.525 0.292,16.17 7.708,19.804l62.25,30.841c7.084,3.479 15.542,1.088 19.792,-5.487l37.667,-59.004c3.541,-5.817 10.583,-8.513 17.375,-6.713c28.583,7.559 58.374,10.521 88.166,8.779c7.167,-0.412 13.876,4.263 16.001,11.113l12.791,40.625c2.5,7.688 10.333,12.459 18.375,10.908l67.625,-13.679c1.375,-0.266 2.709,-0.663 3.917,-1.296c5.833,-2.796 9.458,-9.166 8.625,-15.841l-6,-54l-1.5,-13.158c11.25,-6.33 22.291,-13.597 32.791,-21.663c14.167,-10.871 27.084,-22.871 38.5,-35.634c4.375,-4.853 11.209,-6.612 17.292,-4.17l57,22.391c7.792,3.013 16.625,-0.354 20.292,-7.858l23.583,-47.608l6.709,-13.663c3.707,-7.437 1.208,-16.542 -5.792,-20.971l-49.292,-31.508c-5.75,-3.587 -8.583,-10.417 -6.916,-16.879c4.583,-19.429 7.166,-39.3 7.499,-59.18c0.167,-1.728 0.167,-3.32 0.167,-5.02c-0.042,-0.567 0,-1.125 0.083,-1.679c0.625,-6.375 5.042,-11.679 11.209,-13.588l65.917,-20.862c0.749,-0.184 1.458,-0.542 2.125,-0.85c6.416,-3.121 10.083,-10.334 8.708,-17.479l-13.542,-67.442c-1.625,-8.142 -9.167,-13.663 -17.5,-12.779l-75.375,8.525c-6.417,0.804 -12.542,-2.496 -15.583,-8.163c-6.792,-12.387 -14.667,-24.458 -23.584,-36.108c-4.75,-6.171 -9.666,-12.084 -14.833,-17.742c-4.125,-4.621 -5.375,-11.179 -3.083,-16.937l26.625,-68.042c2.958,-7.475 -0.334,-16.058 -7.584,-19.679l-61.666,-30.421c-7.459,-3.696 -16.5,-1.262 -21.042,5.833l-29.792,46.68c-4,6.266 -11.666,8.937 -18.666,6.6c-27.375,-9.492 -56.084,-14.576 -85.042,-15.275c-6.834,-0.05 -12.917,-4.588 -15,-11.2l-18.75,-59.417c-2.542,-7.971 -10.666,-12.725 -18.875,-11.142l-67.209,13.45c-8.083,1.596 -13.541,9.196 -12.582,17.25l0.333,3.155l7.041,62.737c0.75,6.721 -2.708,13.062 -8.708,16.175l-0.083,0.046c-14.375,7.445 -28.333,16.25 -41.667,26.492c-7.125,5.458 -13.833,11.199 -20.333,17.191c-4.459,4.225 -10.917,5.471 -16.625,3.25l-57.834,-22.733c-7.917,-3.138 -16.916,0.374 -20.625,7.92l-30.333,61.388c-0.875,1.754 -1.333,3.616 -1.583,5.396c-0.584,5.867 2.125,11.883 7.291,15.225l39.417,25.058c4.792,3.125 7.583,8.587 7.375,14.158c-0.084,1.463 -0.333,2.959 -0.792,4.425c-12,35.209 -16.791,72.392 -14.208,109.526c0.542,6.295 -2.958,12.175 -8.458,15.079c-0.792,0.404 -1.626,0.745 -2.5,1.025l-53.375,16.858c-7.751,2.433 -12.417,10.312 -10.876,18.325l0.334,1.566l13.125,65.751c1.75,8.27 9.375,13.804 17.75,12.87Z" style="fill:#dfebfd;fill-rule:nonzero;"/><path d="M3130.97,5524.17c0,-0 8.05,-87.75 -90.013,-87.75c0,-0 29.713,8.041 45.084,24.166c-0,0 -62.546,-36.708 -130.609,19.709c-68.066,56.416 -25.774,197.916 -46.474,224.791c-20.696,26.875 -101.301,32.25 -91.45,119.125c9.85,86.875 255.816,195.667 240.02,267.542c0,0 96.392,-141.667 27.467,-206.333c0,-0 33.596,31.625 37.017,69.25c-0,-0 9.116,-73.459 -37.617,-96.917c-41.354,-20.792 -75.229,-96.833 -71.646,-110.417c3.584,-13.583 118.221,-223.166 118.221,-223.166Z" style="fill:#2c3a64;fill-rule:nonzero;"/><path d="M3034.43,5945.58c0,0 73.259,303.084 145.175,363.667c43.23,36.417 171.759,120 171.759,120l-53.463,19.375c0,0 -178.271,-60.167 -218.183,-107.125c-39.913,-46.917 -149.188,-282.042 -149.188,-282.042l103.9,-113.875Z" style="fill:#ffb27d;fill-rule:nonzero;"/><path d="M2345.88,6478.04c0.646,1.166 1.329,2.375 2.017,3.583c16.029,27.833 52.808,96.125 93.317,170.833c19.158,35.459 39.22,72.375 58.254,107.084c32.791,59.916 62.621,113.291 80.029,141.5c17.7,28.666 30.733,48.833 36.004,56.875l0.042,0.041c1.587,2.5 1.929,5.417 1.717,8.334c-1.846,25.291 -1.33,50.375 1.154,75.125c24.433,243.083 188.35,373.333 188.35,373.333l48.737,7.208c0,0 -68.971,-255.5 -89.287,-399.958c-3.43,-24.458 -4.93,-44.333 -3.729,-57.25c3.6,-37.667 -3.088,-92.917 -15.734,-156.333c-22.504,-112.75 -63.779,-251.125 -99.658,-361.875c-2.271,-7.084 -70.813,-255 -70.813,-255c-57.525,50.291 -267.345,71.041 -267.345,71.041c-0,0 -35.58,86.5 36.945,215.459Z" style="fill:#2f539b;fill-rule:nonzero;"/><path d="M2957.79,7483.62l-203.409,0c0,0 -4.875,-31 5.75,-54.5c10.18,-22.583 24.688,-23.292 1.85,-58.667c12.93,13.292 54.479,18.792 83.884,14.875c3.604,5.834 23.229,45 35.266,53.667c13.292,9.542 72.567,6.125 76.659,44.625Z" style="fill:#234375;fill-rule:nonzero;"/><path d="M2345.88,6478.04c0.646,1.166 1.329,2.375 2.017,3.583c16.029,27.833 102.729,188 143.237,262.708c-46.937,-193.125 -14.291,-386.208 -14.291,-386.208l-130.963,119.917Z" style="fill:#233862;fill-rule:nonzero;"/><path d="M3103.23,5511.83c1.333,-5.333 -116.175,53.125 -122.133,59.709c-55.109,61.125 -39.396,140.916 -7.863,141.666c20.225,0.5 16.305,34.125 16.305,34.125l225.304,-95.291c-0,-0 -27.129,-158.209 -111.613,-140.209Z" style="fill:#2c3a64;fill-rule:nonzero;"/><path d="M3027.52,5900.04c-0,-0 34.287,68.5 30.008,124.083c0,-0 -41.342,65.25 -148.562,81.792c-0,-0 92.183,-205.917 118.554,-205.875Z" style="fill:#f99746;fill-rule:nonzero;"/><path d="M2504.45,6277.71l0.692,-38.041c-75.8,9.541 -261.354,-90.584 -261.354,-90.584c-0,0 -79.296,52.75 -90.15,203.375c-5.3,73.5 -38.821,384.417 -42.53,477.25c-1.35,33.667 -1.8,57.667 -1.954,67.292l0.013,0.083c-0.046,2.917 -1.421,5.5 -3.221,7.834c-15.683,19.916 -29.292,41.041 -41.075,62.958c-115.658,215.167 -55.175,507.583 -55.175,507.583l26.858,-6.833c0,0 97.796,-303.125 161.713,-434.25c10.85,-22.208 20.704,-39.5 28.95,-49.542c24.033,-29.166 49.375,-78.75 74.354,-138.416c47.217,-112.792 202.879,-568.709 202.879,-568.709Z" style="fill:#2f539b;fill-rule:nonzero;"/><path d="M2171.45,7483.62l-203.408,0c-0,0 -4.875,-31 5.746,-54.5c10.183,-22.583 26.129,-32.833 22.308,-60.125c12.929,13.292 33.996,28.208 63.4,24.25c3.604,5.833 23.258,37.083 35.292,45.75c13.296,9.542 72.57,6.125 76.662,44.625Z" style="fill:#234375;fill-rule:nonzero;"/><path d="M2895.23,6149.58c-27.321,4.667 4.463,26.375 -33.117,30.459c-53.483,5.875 -108.708,9.833 -137.633,21.375c-10.55,4.208 -17.608,9.416 -19.812,16.041c-12.538,37.709 -91.95,102.5 -91.95,102.5c-354.196,-16.125 -377.009,-173.958 -377.009,-173.958c229.88,-223.25 425.442,-344.958 587.067,-360.042c39.337,-3.666 92.358,1.292 117.238,12.334c56.529,25.166 87.504,101.75 87.504,101.75c-0,-0 -28.471,231.833 -132.288,249.541Z" style="fill:#f99746;fill-rule:nonzero;"/><path d="M2862.11,6180.04c-53.483,5.875 -108.708,9.833 -137.633,21.375c-11.825,-176.625 71.538,-309.5 71.538,-309.5c-0,-0 54.383,221.291 66.095,288.125Z" style="fill:#ed7d2b;fill-rule:nonzero;"/><path d="M2936.99,5812.88c10.108,31.667 43.812,121.917 90.529,87.167c-1.584,-6.709 8.233,-26.292 19.804,-46.209c14.791,-25.416 32.408,-51.375 32.408,-51.375l-76.129,-66.708l-4.542,-3.958c-19.908,34.75 -39.487,51.5 -56.629,64.291c-5.212,3.875 -7.416,10.584 -5.441,16.792Z" style="fill:#ffb27d;fill-rule:nonzero;"/><path d="M3079.72,5802.5c-0,-0 -17.596,25.917 -32.392,51.333c-47.317,-29.166 -47.366,-87.708 -43.721,-118.083l76.113,66.75Z" style="fill:#ed985f;fill-rule:nonzero;"/><path d="M3081.83,5835.92c0,-0 -114.891,-63.959 -73.979,-134.875c40.913,-70.959 53.638,-126.959 128.725,-89.125c75.084,37.791 73.596,73 65.7,100c-7.896,27 -89.508,138.791 -120.446,124Z" style="fill:#ffb27d;fill-rule:nonzero;"/><path d="M3221.69,5670.54c-5.263,-31.459 -21.263,-34.5 -32.417,-32.375c-42.429,-70.167 -111.75,-42.792 -111.75,-42.792c-37.021,46.458 -90.55,54.375 -90.55,54.375c-0,0 13.333,24.833 68.262,40.167c16.78,4.708 35.825,1.875 54.192,-4.334c-38.113,21.25 -77.967,29.417 -77.967,29.417c72.388,6.625 141.263,-59.583 148.404,-66.667c3.342,10.292 9.2,31.75 5.692,47.459c-4.762,21.333 -23.7,59.958 -12.137,64.958c-0,0 56.162,-42.958 48.271,-90.208Z" style="fill:#2c3a64;fill-rule:nonzero;"/><path d="M4256.75,7224.12l-857.246,-417.958l109.613,-224.834l857.258,417.959l-109.625,224.833Z" style="fill:#2b478b;fill-rule:nonzero;"/><path d="M3131.38,6853.17c-78.687,-38.334 -134.604,-109.417 -153.413,-195c-7.637,-34.75 14.342,-69.125 49.084,-76.75c34.746,-7.625 69.1,14.333 76.733,49.083c10.308,46.917 40.942,85.875 84.046,106.875c77.321,37.708 170.896,5.458 208.592,-71.833c37.696,-77.334 5.458,-170.917 -71.863,-208.584c-35.121,-17.125 -75.075,-20.458 -112.496,-9.416c-34.116,10.083 -69.941,-9.417 -80.02,-43.542c-10.076,-34.083 9.412,-69.917 43.529,-80c68.358,-20.208 141.32,-14.125 205.433,17.167c141.171,68.791 200.029,239.666 131.208,380.833c-68.825,141.167 -239.666,200 -380.833,131.167Z" style="fill:#2b478b;fill-rule:nonzero;"/><path d="M4344.12,7444.42c-141.163,-68.834 -200.034,-239.667 -131.204,-380.834c68.833,-141.166 239.666,-200.041 380.833,-131.208c64.125,31.25 113.833,85 140.042,151.292c13.083,33.083 -3.125,70.5 -36.208,83.583c-33.084,13.083 -70.501,-3.167 -83.584,-36.25c-14.333,-36.292 -41.583,-65.708 -76.709,-82.833c-77.333,-37.667 -170.879,-5.459 -208.583,71.875c-37.712,77.333 -5.462,170.875 71.875,208.583c43.084,21.042 92.625,21.167 135.959,0.375c32.083,-15.375 70.541,-1.833 85.916,30.208c15.375,32.084 1.875,70.584 -30.208,85.959c-79,37.875 -169.458,37.625 -248.129,-0.75Z" style="fill:#2b478b;fill-rule:nonzero;"/><path d="M4057.84,7024.83l-451.613,-220.166c-12.954,-6.334 -18.383,-22.084 -12.071,-35.042l11.484,-23.542c6.312,-12.958 22.075,-18.375 35.029,-12.083l451.612,220.167c12.955,6.333 18.384,22.083 12.067,35.041l-11.475,23.542c-6.317,12.958 -22.083,18.417 -35.033,12.083Z" style="fill:#233862;fill-rule:nonzero;"/><path d="M3016.05,6624.79c0,-0 2.483,21.416 11.529,32.5c9.05,11.041 35.375,37.791 35.838,53.458c-0,-0 -1.329,6.958 -6.975,5.667c-5.646,-1.25 -25.25,-20.667 -35.309,-19.292c0,-0 5.367,31.375 10.692,40.208c5.321,8.834 15.109,42.167 11.917,49.792c-3.196,7.625 -56.463,-36.792 -72.596,-58.458c-16.133,-21.709 -0.254,-109.75 -0.254,-109.75l45.158,5.875Z" style="fill:#ffb27d;fill-rule:nonzero;"/><path d="M2908.26,5862c0,0 -134.504,-7.333 -158.404,77.083c-23.9,84.459 44.842,421.542 59.654,456.334c26.967,63.333 158.263,244.083 158.263,244.083l48.283,-14.708c0,-0 -87.546,-276.125 -107.091,-303.459c-30.68,-42.916 39.558,-422.583 -0.705,-459.333Z" style="fill:#ffb27d;fill-rule:nonzero;"/><path d="M2723.33,6052.04c0.35,1.958 127.283,23.333 206.675,-16.959c0,0 66.325,-207.791 -28.458,-197.833c-94.779,9.958 -150.904,39.792 -153.292,85.167c-2.391,45.375 -24.925,129.625 -24.925,129.625Z" style="fill:#f99746;fill-rule:nonzero;"/><path d="M3285.3,6294.12c-6.379,0.292 -18.088,2.375 -22.292,5.625c-7.333,5.667 -15.579,15.5 0.854,23.667c24.654,12.291 73.946,6.833 72.021,-0.542c-6.062,-23.333 -14.958,-30.417 -50.583,-28.75Z" style="fill:#ffb27d;fill-rule:nonzero;"/><path d="M3993.98,2986.45c-6.487,7.433 -7.312,15.738 -4.104,24.609l0.063,0.12c5.937,16.404 25.55,34.725 48.329,53.013c2.908,2.35 5.496,4.487 7.754,6.466c0.592,0.521 1.183,1.042 1.742,1.563c0.458,0.4 0.9,0.821 1.337,1.208c21.242,19.583 13.25,24.067 51.413,63.8c43.512,45.275 73.483,46.092 81.983,41.967c7.208,-3.517 -7.417,-27.529 -23.658,-54.517c-0.788,-1.3 -1.559,-2.621 -2.367,-3.933c-2.163,-3.592 -4.308,-7.233 -6.458,-10.842c-19.021,-32.479 -14.138,-47.721 -9.625,-96.062c3.662,-39.279 61.108,-219.455 61.108,-219.455l-83.383,-14.362c-0,0 -25.117,143.471 -52.784,165.563c-14.795,11.778 -31.358,11.924 -45.575,20.658c-1.008,0.604 -1.991,1.229 -2.958,1.871c-8.083,5.354 -16.317,10.883 -22.817,18.333Z" style="fill:#ffb27d;fill-rule:nonzero;"/><path d="M3993.98,2986.45c-6.487,7.433 -7.312,15.738 -4.104,24.609l0.063,0.12c7.27,16.388 26.387,34.613 48.408,52.846c2.875,2.387 5.412,4.583 7.675,6.633c0.592,0.521 1.183,1.042 1.742,1.563c0.458,0.4 0.9,0.821 1.337,1.208c21.242,19.583 13.25,24.067 51.413,63.8c43.512,45.275 73.483,46.092 81.983,41.967c7.208,-3.517 -7.417,-27.529 -23.658,-54.517c-8.475,-3.104 -47.821,-19.087 -77.567,-57.154c-26.204,-33.433 -43.679,-76.396 -61.517,-101.279c-1.008,0.604 -1.991,1.229 -2.958,1.871c-8.083,5.354 -16.317,10.883 -22.817,18.333Z" style="fill:#233862;fill-rule:nonzero;"/><path d="M4666.38,2934.37c5.167,25.737 41.833,21.446 82.834,11.429c40.999,-10.021 31.25,1.887 89.583,-4.567c58.333,-6.458 76.042,-28.212 77.791,-36.887c1.584,-7.7 -27.208,-10.413 -58.166,-13.975c-3.875,-0.438 -7.792,-0.917 -11.667,-1.396c-34.917,-4.383 -60.5,-26.908 -92.208,-45.408c-30.042,-17.525 -74.834,-88.921 -74.834,-88.921l-80.041,6.337c-0,0 42,63.767 58.25,91.496c9.541,16.305 9.041,37.871 7.833,54.521c-0.625,9.054 -1.208,18.304 0.625,27.371Z" style="fill:#ffb27d;fill-rule:nonzero;"/><path d="M4749.21,2945.8c40.999,-10.021 31.25,1.887 89.583,-4.567c58.333,-6.458 76.042,-28.212 77.791,-36.887c1.584,-7.7 -27.208,-10.413 -58.166,-13.975l-0.25,0.596c-0,-0 -35,24.808 -83.584,25.97c-39.583,0.959 -81.5,-10.379 -108.833,-9.937c-0.625,9.054 -1.208,18.304 0.625,27.371c5.167,25.737 41.833,21.446 82.834,11.429Z" style="fill:#233862;fill-rule:nonzero;"/><path d="M4359.75,2422.78l-74.788,201.263l-97.625,262.783c0,-0 -26.508,2.562 -51.883,-4.738c-23.362,-6.754 -50.171,-24.421 -50.171,-24.421c0,0 27.117,-282.158 77.692,-444.128c12.946,-41.576 27.487,-75.205 43.529,-94.134c78.417,-92.667 153.246,103.375 153.246,103.375Z" style="fill:#2c3a64;fill-rule:nonzero;"/><path d="M4283.7,2103.15c-48.996,-15.804 -188.737,4.492 -329.125,31.971l-29.396,-48.484l-303.233,-23.679c0,0 -100.063,221.9 -45.279,363.288c8.05,20.783 24.05,34.108 51.321,34.55l4.429,-0c-0,-0 180.479,-0.109 239.083,-0.109c150.8,0 319.163,-103.658 340.913,-108.012c35.666,-7.134 49.916,64.158 85.583,139.017c35.621,74.854 335.042,331.504 335.042,331.504c-0,-0 46.041,0.458 65.041,-6.671c20.458,-7.667 27.917,-17.629 27.917,-17.629c-0,-0 -331.792,-660.096 -442.296,-695.746Z" style="fill:#2f539b;fill-rule:nonzero;"/><path d="M3824.71,1163.51c-42.492,-10.929 -100.65,-0.041 -110.292,0.909c-115.384,11.362 -154.146,140.075 -136.688,239.925c16.117,92.154 -30.625,117.645 -84.796,190.437c-108.612,145.946 -37.624,269.004 48.084,300.729c51.425,19.034 122.816,-28.983 122.816,-28.983c1.292,0.512 224.334,-146.129 315.775,-228.796c152.263,-59.575 -46.62,-446.362 -154.899,-474.221Z" style="fill:#2b478b;fill-rule:nonzero;"/><path d="M3841.75,1585.64c3.034,10.684 -47.433,30.313 -85.962,23.092c-36.242,-6.758 -76.871,-49.196 -68.492,-53.179c13.871,-6.592 23.204,-22.983 15.617,-111.604l6.895,0.783l115.963,13.238c-0,-0 0.35,36.125 3.046,69.962c2.25,28.408 7.992,40.292 12.933,57.708Z" style="fill:#ffb27d;fill-rule:nonzero;"/><path d="M3825.78,1457.97c-0,-0 0.35,36.125 3.046,69.962c-64,3.433 -102.529,-52.05 -119.009,-83.2l115.963,13.238Z" style="fill:#ed975d;fill-rule:nonzero;"/><path d="M3849.72,1488.25c0,0 -150.871,14.875 -158.692,-79.221c-7.82,-94.096 -32.558,-155.549 63.438,-169.029c95.996,-13.479 117.721,20.871 127.971,51.646c10.25,30.771 6.329,190.309 -32.717,196.604Z" style="fill:#ffb27d;fill-rule:nonzero;"/><path d="M3833.56,1225.15c0,0 -19,114.95 -104.925,142.229c-62.683,19.9 -91.074,6.779 -91.074,6.779c-0,0 30.179,-40.02 40.899,-95.641c3.159,-16.396 14.821,-29.888 30.684,-35.104c44.542,-14.655 98.516,-54.721 124.416,-18.263Z" style="fill:#2b478b;fill-rule:nonzero;"/><path d="M3805.13,1249.67c0,-0 28.433,6.337 53.629,43.025c13.771,20.05 29.717,70.591 26.996,92.971c0,-0 26.409,-106.396 -12.096,-145.975c-40.829,-41.967 -68.529,9.979 -68.529,9.979Z" style="fill:#2b478b;fill-rule:nonzero;"/><path d="M3570.08,1894.75c2.688,11.429 4.992,21.942 6.863,31.638c3.075,15.654 5.187,29.141 6.675,41.05c4.608,37.108 3.217,59.096 6.337,83.149c1.725,13.442 4.896,27.555 11.279,45.271c6.242,17.238 170.192,32.6 263.471,26.405c29.621,-1.922 52.188,-6.096 60.205,-13.009c33.27,-28.9 29.954,34.663 34.516,-269.471c2.209,-148.346 -125.875,-280.466 -125.875,-280.466c0,-0 -10.229,63.37 -137.258,-12.05c-4.513,-2.642 -54.538,71.437 -102.692,162.654c-53.046,100.766 -38.5,122.083 -23.521,184.829Z" style="fill:#f99746;fill-rule:nonzero;"/><path d="M4284.96,2624.04l-97.625,262.783c0,-0 -26.508,2.562 -51.883,-4.738c-23.362,-6.754 -50.171,-24.421 -50.171,-24.421c0,0 27.117,-282.158 77.692,-444.128l121.987,210.504Z" style="fill:#2b478b;fill-rule:nonzero;"/><path d="M3833.56,1559.29c0,-0 130.7,22.162 146.05,78.437c15.346,56.275 121.384,371.004 121.384,371.004c-0,0 -82.163,28.038 -112.858,-2.658c-30.696,-30.696 -106.809,-284.787 -106.809,-284.787l-47.767,-161.996Z" style="fill:#f99746;fill-rule:nonzero;"/><path d="M3814.9,1432.76c0,-0 6.321,15.475 23.029,15.475c16.704,-0 21.221,-2.496 24.38,-6.038c3.162,-3.537 6.299,-10.354 6.299,-10.354c0,-0 -27.683,-5.467 -53.708,0.917Z" style="fill:#fff;fill-rule:nonzero;"/><path d="M3583.62,1967.44c4.608,37.108 3.217,59.096 6.337,83.149c118.675,0.384 277.342,-91.645 277.342,-91.645l-283.679,8.496Z" style="fill:#ed7d2b;fill-rule:nonzero;"/><path d="M3867.3,1881.1c-0,0 -184.879,-5.508 -216.042,-110.596c-34.237,-115.446 -72.583,47.48 -72.583,47.48l20.404,103.979l202.833,-0l65.388,-40.863Z" style="fill:#ed7d2b;fill-rule:nonzero;"/><path d="M4189.58,1595.96l-9.958,-24.741c-10.708,-26.53 -36.475,-43.896 -65.083,-43.896l-184.304,-0l-0,616.22l762.387,0l-0,-499.274l-431.417,-0c-31.5,-0 -59.833,-19.113 -71.625,-48.309Z" style="fill:#739af0;fill-rule:nonzero;"/><path d="M4045.24,1902.05l0,-44.421l155.805,-68.246l-0,45.388l-108.809,44.746l108.809,44.741l-0,46.034l-155.805,-68.242Z" style="fill:#fff;fill-rule:nonzero;"/><path d="M4362.96,1736.27l41.5,-0l-142.583,298.075l-41.542,0l142.625,-298.075Z" style="fill:#fff;fill-rule:nonzero;"/><path d="M4577.62,1857.63l0,44.421l-155.792,68.242l0,-45.388l108.834,-44.746l-108.834,-44.741l0,-46.034l155.792,68.246Z" style="fill:#fff;fill-rule:nonzero;"/><path d="M3867.28,1905.47l13.379,-20.996c0,-0 10.588,-3.446 25.438,-13.875c17.658,-12.405 15.329,-30.975 24.146,-29.013l0.112,40.825l-0.958,0.142c37.887,10.117 82.191,-0.879 83.083,8.55c2.437,25.954 -17.633,37.633 -34.45,45.763c-12.871,6.22 -27.496,15.553 -50.75,8.316c-16.996,-5.292 -43.746,-10.675 -43.746,-10.675l-16.254,-29.037Z" style="fill:#ffb27d;fill-rule:nonzero;"/><path d="M3696.28,1547.29c0,0 -120.008,7.855 -150.012,54.663c-30.008,46.808 -67.213,284.446 -51.609,366.062c15.601,81.613 399.925,-15.6 399.925,-15.6l-12.258,-70.816c0,-0 -221.804,1.287 -234.442,-27.604c-16.804,-38.405 48.396,-306.705 48.396,-306.705Z" style="fill:#f99746;fill-rule:nonzero;"/><path d="M4275.62,1644c-1.042,3.109 18.042,34.554 45.292,29.088c16.954,-3.409 39.083,-39.996 19.666,-48.058c-32.421,-13.459 -62.208,10.658 -64.958,18.97Z" style="fill:#ffb27d;fill-rule:nonzero;"/><path d="M5449.04,3294.67l-4.042,-2.15l445.542,-835.104l3.999,2.154l-445.499,835.1Z" style="fill:#2a4e96;fill-rule:nonzero;"/><path d="M7522.88,3000.61l-501.042,-540.566l3.376,-3.104l501.041,540.566l-3.375,3.104Z" style="fill:#2a4e96;fill-rule:nonzero;"/><path d="M7835.96,3156.85c7.459,54.141 -7.416,106.329 -37.375,146.821c-29.958,40.483 -74.958,69.212 -127.833,76.479l-2240.17,307.804c-114.333,15.709 -220.041,-60.038 -234.916,-168.317c-7.458,-54.141 9.166,-106.57 41.958,-147.425c32.75,-40.871 81.708,-70.141 138.875,-77.996l2240.12,-307.804c105.792,-14.533 204.459,62.159 219.333,170.438Z" style="fill:#ebf3fa;fill-rule:nonzero;"/><path d="M7835.96,3156.85c7.459,54.141 -7.416,106.329 -37.375,146.821c-29.958,40.483 -74.958,69.212 -127.833,76.479l-405.375,55.7l-54.125,-393.738l405.375,-55.7c105.792,-14.533 204.459,62.159 219.333,170.438Z" style="fill:#f99746;fill-rule:nonzero;"/><path d="M7516.12,3102.83c-33.375,32.595 -34,86.262 -1.417,119.628c15.792,16.163 36.959,25.204 59.542,25.471c22.583,0.259 43.958,-8.291 60.083,-24.083c33.375,-32.6 34,-86.263 1.417,-119.629c-32.625,-33.371 -86.292,-33.988 -119.625,-1.387Zm73.125,160.833c-5,0.683 -10.083,1.004 -15.208,0.945c-27.042,-0.312 -52.334,-11.141 -71.25,-30.495c-39.042,-39.938 -38.292,-104.188 1.666,-143.217c39.959,-39.025 104.167,-38.283 143.208,1.662c39.043,39.942 38.292,104.192 -1.666,143.217c-15.667,15.325 -35.417,24.959 -56.75,27.888Z" style="fill:#fff;fill-rule:nonzero;"/><path d="M7415.75,3330.85l-11.667,-11.929l98.833,-96.592l11.667,11.934l-98.833,96.587Z" style="fill:#fff;fill-rule:nonzero;"/><path d="M7375.54,3358.45c-5.75,-5.883 -5.625,-15.312 0.249,-21.062l58.209,-56.888c5.875,-5.746 15.333,-5.637 21.083,0.246c5.75,5.883 5.625,15.313 -0.25,21.063l-58.208,56.883c-5.917,5.75 -15.333,5.642 -21.083,-0.242Z" style="fill:#fff;fill-rule:nonzero;"/><path d="M4074.13,5296.29l-468.021,-0c-9.741,-0 -17.641,-7.917 -17.641,-17.667l-0,-7.417c-0,-9.75 7.9,-17.625 17.641,-17.625l468.021,0c9.738,0 17.634,7.875 17.634,17.625l-0,7.417c-0,9.75 -7.896,17.667 -17.634,17.667Z" style="fill:#f99746;fill-rule:nonzero;"/><path d="M3833.96,5443.08l-230.925,0c-8.046,0 -14.571,-6.5 -14.571,-14.541c-0,-8.042 6.525,-14.584 14.571,-14.584l230.925,0c8.045,0 14.57,6.542 14.57,14.584c0,8.041 -6.525,14.541 -14.57,14.541Z" style="fill:#739af0;fill-rule:nonzero;"/><path d="M4010.79,5382l-408.758,-0c-7.491,-0 -13.562,-6.083 -13.562,-13.583l-0,-2c-0,-7.5 6.071,-13.584 13.562,-13.584l408.758,0c7.488,0 13.559,6.084 13.559,13.584l-0,2c-0,7.5 -6.071,13.583 -13.559,13.583Z" style="fill:#739af0;fill-rule:nonzero;"/><path d="M4458,5382l-380.825,-0c-7.238,-0 -13.104,-5.875 -13.104,-13.125l-0,-2.917c-0,-7.25 5.866,-13.125 13.104,-13.125l380.825,0c7.208,0 13.084,5.875 13.084,13.125l-0,2.917c-0,7.25 -5.876,13.125 -13.084,13.125Z" style="fill:#739af0;fill-rule:nonzero;"/><path d="M4121.99,5443.08l-230.92,0c-8.046,0 -14.571,-6.5 -14.571,-14.541c-0,-8.042 6.525,-14.584 14.571,-14.584l230.92,0c8.046,0 14.571,6.542 14.571,14.584c0,8.041 -6.525,14.541 -14.571,14.541Z" style="fill:#739af0;fill-rule:nonzero;"/><path d="M4644.04,5296.29l-468.041,-0c-9.733,-0 -17.625,-7.917 -17.625,-17.667l0,-7.417c0,-9.75 7.892,-17.625 17.625,-17.625l468.041,0c9.751,0 17.626,7.875 17.626,17.625l-0,7.417c-0,9.75 -7.875,17.667 -17.626,17.667Z" style="fill:#f99746;fill-rule:nonzero;"/><path d="M4074.13,5617.79l-468.021,-0c-9.741,-0 -17.641,-7.917 -17.641,-17.667l-0,-7.417c-0,-9.75 7.9,-17.625 17.641,-17.625l468.021,0c9.738,0 17.634,7.875 17.634,17.625l-0,7.417c-0,9.75 -7.896,17.667 -17.634,17.667Z" style="fill:#f99746;fill-rule:nonzero;"/><path d="M3833.96,5764.58l-230.925,0c-8.046,0 -14.571,-6.5 -14.571,-14.541c-0,-8.042 6.525,-14.584 14.571,-14.584l230.925,0c8.045,0 14.57,6.542 14.57,14.584c0,8.041 -6.525,14.541 -14.57,14.541Z" style="fill:#739af0;fill-rule:nonzero;"/><path d="M4010.79,5703.5l-408.758,0c-7.491,0 -13.562,-6.083 -13.562,-13.583l-0,-2c-0,-7.5 6.071,-13.584 13.562,-13.584l408.758,0c7.488,0 13.559,6.084 13.559,13.584l-0,2c-0,7.5 -6.071,13.583 -13.559,13.583Z" style="fill:#739af0;fill-rule:nonzero;"/><path d="M4458,5703.5l-380.825,0c-7.238,0 -13.104,-5.875 -13.104,-13.125l-0,-2.917c-0,-7.25 5.866,-13.125 13.104,-13.125l380.825,0c7.208,0 13.084,5.875 13.084,13.125l-0,2.917c-0,7.25 -5.876,13.125 -13.084,13.125Z" style="fill:#739af0;fill-rule:nonzero;"/><path d="M4121.99,5764.58l-230.92,0c-8.046,0 -14.571,-6.5 -14.571,-14.541c-0,-8.042 6.525,-14.584 14.571,-14.584l230.92,0c8.046,0 14.571,6.542 14.571,14.584c0,8.041 -6.525,14.541 -14.571,14.541Z" style="fill:#739af0;fill-rule:nonzero;"/><path d="M4644.04,5617.79l-468.041,-0c-9.733,-0 -17.625,-7.917 -17.625,-17.667l0,-7.417c0,-9.75 7.892,-17.625 17.625,-17.625l468.041,0c9.751,0 17.626,7.875 17.626,17.625l-0,7.417c-0,9.75 -7.875,17.667 -17.626,17.667Z" style="fill:#f99746;fill-rule:nonzero;"/><path d="M6506.79,3663.7l-267.292,62.2l-132.167,240.508l-100.916,-548.108l500.375,245.4Z" style="fill:#233862;fill-rule:nonzero;"/><path d="M6395.62,3898.41l-38.917,29.512l-170.75,-225.313l38.959,-29.508l170.708,225.309Z" style="fill:#233862;fill-rule:nonzero;"/><path d="M6331.79,4796.67l-657.25,-0c-26.625,-0 -48.167,-21.542 -48.167,-48.167l-0,-657.25c-0,-26.6 21.542,-48.163 48.167,-48.163l657.25,0c26.625,0 48.166,21.563 48.166,48.163l0,657.25c0,26.625 -21.541,48.167 -48.166,48.167Z" style="fill:#d4e1ff;fill-rule:nonzero;"/><path d="M5722.67,4639.04l146.417,-264c17.042,-30.709 60.209,-33.417 80.959,-5.084l84.458,115.209c17.958,24.5 53.875,26.458 74.375,4c21.292,-23.25 58.833,-20.125 76,6.333l91.125,140.75c20.75,32.042 -2.25,74.333 -40.417,74.333l-470.833,0c-36.708,0 -59.917,-39.416 -42.084,-71.541Z" style="fill:#739af0;fill-rule:nonzero;"/><path d="M6011.62,4251.67c0,-31.792 25.792,-57.584 57.625,-57.584c31.792,0 57.583,25.792 57.583,57.584c0,31.837 -25.791,57.625 -57.583,57.625c-31.833,-0 -57.625,-25.788 -57.625,-57.625Z" style="fill:#739af0;fill-rule:nonzero;"/><path d="M7295.88,4817l-651.25,88.792c-26.333,3.625 -50.625,-14.834 -54.209,-41.209l-88.833,-651.208c-3.583,-26.375 14.833,-50.65 41.209,-54.246l651.249,-88.829c26.334,-3.596 50.626,14.858 54.209,41.213l88.833,651.237c3.584,26.333 -14.833,50.625 -41.208,54.25Z" style="fill:#d4e1ff;fill-rule:nonzero;"/><path d="M6671,4743.12l109.417,-281.375c12.75,-32.75 55.125,-41.25 79.541,-16l99.25,102.75c21.125,21.833 56.959,18.917 74.25,-6.083c17.959,-25.917 55.542,-27.875 76.126,-4l109.333,127.125c24.875,28.958 7.791,73.958 -30.042,79.125l-466.458,63.625c-36.375,5 -64.709,-30.959 -51.417,-65.167Z" style="fill:#739af0;fill-rule:nonzero;"/><path d="M6905,4320.25c-4.291,-31.537 17.75,-60.583 49.292,-64.875c31.5,-4.292 60.542,17.796 64.833,49.292c4.333,31.541 -17.75,60.587 -49.292,64.875c-31.5,4.291 -60.541,-17.788 -64.833,-49.292Z" style="fill:#739af0;fill-rule:nonzero;"/><rect x="5001.25" y="7145.04" width="379.791" height="325.625" style="fill:#f99746;fill-rule:nonzero;"/><rect x="4985.92" y="7131.12" width="407.958" height="25.167" style="fill:#aec3ff;fill-rule:nonzero;"/><rect x="5001.25" y="7233.17" width="379.791" height="103.417" style="fill:#f9ddbf;fill-rule:nonzero;"/><path d="M5843.08,7470.92l-358.583,-0c-13.125,-0 -23.792,-10.625 -23.792,-23.792l0,-39.75c0,-14.167 12.334,-25.208 26.417,-23.625l358.583,39.75c12.042,1.333 21.167,11.542 21.167,23.625c0,13.167 -10.667,23.792 -23.792,23.792Z" style="fill:#f99746;fill-rule:nonzero;"/><path d="M10858.9,7503.12l-9984.1,-3.458c-6.692,-0 -12.167,-5.5 -12.167,-12.167l0.004,-6.25c0,-6.667 5.479,-12.167 12.171,-12.167l9984.09,3.459c6.709,-0 12.168,5.458 12.168,12.166l-0,6.25c-0,6.667 -5.459,12.167 -12.168,12.167Z" style="fill:#2e3552;fill-rule:nonzero;"/><path d="M3866.17,3915.8l-41.046,-0c-3.754,-0 -6.796,-3.046 -6.796,-6.796c0,-3.754 3.042,-6.796 6.796,-6.796l41.046,0c3.75,0 6.791,3.042 6.791,6.796c0,3.75 -3.041,6.796 -6.791,6.796Zm82.092,-0l-41.046,-0c-3.75,-0 -6.796,-3.046 -6.796,-6.796c-0,-3.754 3.046,-6.796 6.796,-6.796l41.046,0c3.749,0 6.791,3.042 6.791,6.796c0,3.75 -3.042,6.796 -6.791,6.796Zm82.095,-0l-41.05,-0c-3.75,-0 -6.796,-3.046 -6.796,-6.796c0,-3.754 3.046,-6.796 6.796,-6.796l41.05,0c3.75,0 6.796,3.042 6.796,6.796c0,3.75 -3.046,6.796 -6.796,6.796Zm82.092,-0l-41.046,-0c-3.754,-0 -6.796,-3.046 -6.796,-6.796c0,-3.754 3.042,-6.796 6.796,-6.796l41.046,0c3.75,0 6.796,3.042 6.796,6.796c-0,3.75 -3.046,6.796 -6.796,6.796Zm82.092,-0l-41.046,-0c-3.754,-0 -6.796,-3.046 -6.796,-6.796c0,-3.754 3.042,-6.796 6.796,-6.796l41.046,0c3.75,0 6.791,3.042 6.791,6.796c0,3.75 -3.041,6.796 -6.791,6.796Zm82.083,-0l-41.042,-0c-3.75,-0 -6.791,-3.046 -6.791,-6.796c-0,-3.754 3.041,-6.796 6.791,-6.796l41.042,0c3.75,0 6.792,3.042 6.792,6.796c-0,3.75 -3.042,6.796 -6.792,6.796Zm82.079,-0l-41.037,-0c-3.755,-0 -6.792,-3.046 -6.792,-6.796c-0,-3.754 3.037,-6.796 6.792,-6.796l41.037,0c3.796,0 6.838,3.042 6.838,6.796c-0,3.75 -3.042,6.796 -6.838,6.796Zm82.13,-0l-41.043,-0c-3.749,-0 -6.832,-3.046 -6.832,-6.796c-0,-3.754 3.083,-6.796 6.832,-6.796l41.043,0c3.749,0 6.791,3.042 6.791,6.796c0,3.75 -3.042,6.796 -6.791,6.796Zm82.083,-0l-41.042,-0c-3.75,-0 -6.792,-3.046 -6.792,-6.796c0,-3.754 3.042,-6.796 6.792,-6.796l41.042,0c3.75,0 6.791,3.042 6.791,6.796c0,3.75 -3.041,6.796 -6.791,6.796Zm82.083,-0l-41.042,-0c-3.75,-0 -6.791,-3.046 -6.791,-6.796c-0,-3.754 3.041,-6.796 6.791,-6.796l41.042,0c3.75,0 6.791,3.042 6.791,6.796c0,3.75 -3.041,6.796 -6.791,6.796Zm82.083,-0l-41.041,-0c-3.75,-0 -6.792,-3.046 -6.792,-6.796c0,-3.754 3.042,-6.796 6.792,-6.796l41.041,0c3.751,0 6.792,3.042 6.792,6.796c0,3.75 -3.041,6.796 -6.792,6.796Zm82.125,-0l-41.083,-0c-3.75,-0 -6.792,-3.046 -6.792,-6.796c0,-3.754 3.042,-6.796 6.792,-6.796l41.083,0c3.75,0 6.792,3.042 6.792,6.796c-0,3.75 -3.042,6.796 -6.792,6.796Zm82.084,-0l-41.042,-0c-3.75,-0 -6.792,-3.046 -6.792,-6.796c0,-3.754 3.042,-6.796 6.792,-6.796l41.042,0c3.75,0 6.791,3.042 6.791,6.796c0,3.75 -3.041,6.796 -6.791,6.796Zm82.083,-0l-41.042,-0c-3.75,-0 -6.791,-3.046 -6.791,-6.796c-0,-3.754 3.041,-6.796 6.791,-6.796l41.042,0c3.75,0 6.792,3.042 6.792,6.796c-0,3.75 -3.042,6.796 -6.792,6.796Zm82.083,-0l-41.041,-0c-3.75,-0 -6.792,-3.046 -6.792,-6.796c-0,-3.754 3.042,-6.796 6.792,-6.796l41.041,0c3.75,0 6.792,3.042 6.792,6.796c-0,3.75 -3.042,6.796 -6.792,6.796Zm82.126,-0l-41.084,-0c-3.75,-0 -6.791,-3.046 -6.791,-6.796c-0,-3.754 3.041,-6.796 6.791,-6.796l41.084,0c3.749,0 6.791,3.042 6.791,6.796c0,3.75 -3.042,6.796 -6.791,6.796Zm82.083,-0l-41.042,-0c-3.75,-0 -6.792,-3.046 -6.792,-6.796c0,-3.754 3.042,-6.796 6.792,-6.796l41.042,0c3.75,0 6.791,3.042 6.791,6.796c0,3.75 -3.041,6.796 -6.791,6.796Zm-1434.24,11.863c-2.179,-0 -4.321,-1.051 -5.633,-2.992c-2.104,-3.108 -1.288,-7.329 1.821,-9.434c12.558,-8.491 27.233,-13 42.445,-13.029l0.017,0c3.746,0 6.788,3.034 6.792,6.779c0.008,3.755 -3.025,6.805 -6.779,6.813c-12.496,0.021 -24.55,3.721 -34.863,10.692c-1.162,0.791 -2.487,1.171 -3.8,1.171Zm1513.11,2.437c-1.417,-0 -2.875,-0.458 -4.125,-1.404c-9.876,-7.6 -21.709,-12.021 -34.125,-12.784c-3.75,-0.229 -6.625,-3.45 -6.375,-7.195c0.208,-3.746 3.5,-6.642 7.208,-6.367c15.125,0.933 29.542,6.312 41.584,15.567c2.958,2.287 3.541,6.549 1.249,9.525c-1.333,1.741 -3.375,2.658 -5.416,2.658Zm-1543.64,69.371c-3.754,0 -6.796,-3.046 -6.796,-6.796l0,-14.354c0,-9.879 1.871,-19.496 5.554,-28.588c1.413,-3.479 5.375,-5.158 8.85,-3.746c3.475,1.409 5.154,5.372 3.742,8.851c-3.025,7.462 -4.554,15.362 -4.554,23.483l-0,14.354c-0,3.75 -3.046,6.796 -6.796,6.796Zm1570.81,4.175c-3.749,-0 -6.792,-3.046 -6.792,-6.796l0,-18.529c0,-6.83 -1.082,-13.542 -3.249,-19.954c-1.209,-3.554 0.708,-7.409 4.25,-8.605c3.583,-1.208 7.416,0.713 8.625,4.271c2.625,7.813 3.958,15.983 3.958,24.288l-0,18.529c-0,3.75 -3.042,6.796 -6.792,6.796Zm-1570.81,77.917c-3.754,-0 -6.796,-3.046 -6.796,-6.796l0,-41.046c0,-3.754 3.042,-6.796 6.796,-6.796c3.75,0 6.796,3.042 6.796,6.796l-0,41.046c-0,3.75 -3.046,6.796 -6.796,6.796Zm1570.81,4.175c-3.749,-0 -6.792,-3.046 -6.792,-6.796l0,-41.046c0,-3.754 3.043,-6.796 6.792,-6.796c3.75,-0 6.792,3.042 6.792,6.796l-0,41.046c-0,3.75 -3.042,6.796 -6.792,6.796Zm-1570.81,77.916c-3.754,0 -6.796,-3.046 -6.796,-6.796l0,-41.046c0,-3.749 3.042,-6.795 6.796,-6.795c3.75,-0 6.796,3.046 6.796,6.795l-0,41.046c-0,3.75 -3.046,6.796 -6.796,6.796Zm1570.81,4.179c-3.749,0 -6.792,-3.045 -6.792,-6.8l0,-41.046c0,-3.754 3.043,-6.791 6.792,-6.791c3.75,-0 6.792,3.037 6.792,6.791l-0,41.046c-0,3.755 -3.042,6.8 -6.792,6.8Zm-1570.81,77.917c-3.754,-0 -6.796,-3.042 -6.796,-6.792l0,-41.041c0,-3.75 3.042,-6.792 6.796,-6.792c3.75,-0 6.796,3.042 6.796,6.792l-0,41.041c-0,3.75 -3.046,6.792 -6.796,6.792Zm1570.81,4.167c-3.749,-0 -6.792,-3.042 -6.792,-6.792l0,-41.042c0,-3.75 3.043,-6.791 6.792,-6.791c3.75,-0 6.792,3.041 6.792,6.791l-0,41.042c-0,3.75 -3.042,6.792 -6.792,6.792Zm-1570.81,77.921c-3.754,-0 -6.796,-3.046 -6.796,-6.792l0,-41.046c0,-3.746 3.042,-6.792 6.796,-6.792c3.75,0 6.796,3.046 6.796,6.792l-0,41.046c-0,3.746 -3.046,6.792 -6.796,6.792Zm1570.81,4.166c-3.749,0 -6.792,-3.046 -6.792,-6.791l0,-41.046c0,-3.746 3.043,-6.792 6.792,-6.792c3.75,0 6.792,3.046 6.792,6.792l-0,41.046c-0,3.745 -3.042,6.791 -6.792,6.791Zm-1570.81,77.913c-3.754,-0 -6.796,-3.042 -6.796,-6.792l0,-41.042c0,-3.75 3.042,-6.791 6.796,-6.791c3.75,-0 6.796,3.041 6.796,6.791l-0,41.042c-0,3.75 -3.046,6.792 -6.796,6.792Zm1570.81,4.208c-3.749,0 -6.792,-3.042 -6.792,-6.833l0,-41.042c0,-3.75 3.043,-6.792 6.792,-6.792c3.75,0 6.792,3.042 6.792,6.792l-0,41.042c-0,3.791 -3.042,6.833 -6.792,6.833Zm-1570.81,77.917c-3.754,-0 -6.796,-3.042 -6.796,-6.792l0,-41.083c0,-3.75 3.042,-6.792 6.796,-6.792c3.75,-0 6.796,3.042 6.796,6.792l-0,41.083c-0,3.75 -3.046,6.792 -6.796,6.792Zm1570.81,4.166c-3.749,0 -6.792,-3.041 -6.792,-6.791l0,-41.042c0,-3.75 3.043,-6.792 6.792,-6.792c3.75,0 6.792,3.042 6.792,6.792l-0,41.042c-0,3.75 -3.042,6.791 -6.792,6.791Zm-1570.81,77.917c-3.754,-0 -6.796,-3.042 -6.796,-6.792l0,-41.041c0,-3.75 3.042,-6.792 6.796,-6.792c3.75,-0 6.796,3.042 6.796,6.792l-0,41.041c-0,3.75 -3.046,6.792 -6.796,6.792Zm1570.81,4.167c-3.749,-0 -6.792,-3.042 -6.792,-6.792l0,-41.042c0,-3.75 3.043,-6.791 6.792,-6.791c3.75,-0 6.792,3.041 6.792,6.791l-0,41.042c-0,3.75 -3.042,6.792 -6.792,6.792Zm-1570.81,77.916c-3.754,0 -6.796,-3.041 -6.796,-6.791l0,-41.042c0,-3.75 3.042,-6.792 6.796,-6.792c3.75,0 6.796,3.042 6.796,6.792l-0,41.042c-0,3.75 -3.046,6.791 -6.796,6.791Zm1570.81,4.167c-3.749,-0 -6.792,-3.042 -6.792,-6.792l0,-41.041c0,-3.75 3.043,-6.792 6.792,-6.792c3.75,0 6.792,3.042 6.792,6.792l-0,41.041c-0,3.75 -3.042,6.792 -6.792,6.792Zm-1570.81,77.917c-3.754,-0 -6.796,-3.042 -6.796,-6.792l0,-41.042c0,-3.75 3.042,-6.791 6.796,-6.791c3.75,-0 6.796,3.041 6.796,6.791l-0,41.042c-0,3.75 -3.046,6.792 -6.796,6.792Zm1570.81,4.208c-3.749,0 -6.792,-3.083 -6.792,-6.833l0,-41.042c0,-3.75 3.043,-6.792 6.792,-6.792c3.75,0 6.792,3.042 6.792,6.792l-0,41.042c-0,3.75 -3.042,6.833 -6.792,6.833Zm-1543.78,69.417c-1.45,-0 -2.908,-0.459 -4.146,-1.417c-12.054,-9.292 -20.962,-21.833 -25.762,-36.167c-1.192,-3.583 0.729,-7.416 4.291,-8.625c3.55,-1.166 7.404,0.75 8.596,4.292c3.942,11.792 11.263,22.083 21.171,29.708c2.971,2.292 3.525,6.584 1.233,9.542c-1.337,1.75 -3.35,2.667 -5.383,2.667Zm1513.37,2.416c-2.167,0 -4.292,-1.041 -5.625,-2.958c-2.083,-3.125 -1.292,-7.333 1.791,-9.458c10.375,-7 18.292,-16.834 22.959,-28.375c1.374,-3.459 5.333,-5.167 8.833,-3.75c3.459,1.375 5.167,5.333 3.75,8.833c-5.667,14.042 -15.292,26 -27.875,34.542c-1.167,0.791 -2.5,1.166 -3.833,1.166Zm-1434.48,11.959l-36.591,-0c-1.638,-0 -3.267,-0.042 -4.884,-0.167c-3.741,-0.25 -6.587,-3.458 -6.35,-7.208c0.238,-3.75 3.463,-6.625 7.213,-6.334c1.329,0.084 2.671,0.125 4.021,0.125l36.591,0c3.75,0 6.792,3.042 6.792,6.792c0,3.75 -3.042,6.792 -6.792,6.792Zm82.092,-0l-41.046,-0c-3.754,-0 -6.796,-3.042 -6.796,-6.792c0,-3.75 3.042,-6.792 6.796,-6.792l41.046,0c3.75,0 6.792,3.042 6.792,6.792c-0,3.75 -3.042,6.792 -6.792,6.792Zm82.092,-0l-41.046,-0c-3.754,-0 -6.792,-3.042 -6.792,-6.792c0,-3.75 3.038,-6.792 6.792,-6.792l41.046,0c3.754,0 6.795,3.042 6.795,6.792c0,3.75 -3.041,6.792 -6.795,6.792Zm82.096,-0l-41.046,-0c-3.755,-0 -6.796,-3.042 -6.796,-6.792c-0,-3.75 3.041,-6.792 6.796,-6.792l41.046,0c3.749,0 6.791,3.042 6.791,6.792c0,3.75 -3.042,6.792 -6.791,6.792Zm82.091,-0l-41.046,-0c-3.754,-0 -6.796,-3.042 -6.796,-6.792c0,-3.75 3.042,-6.792 6.796,-6.792l41.046,0c3.75,0 6.796,3.042 6.796,6.792c0,3.75 -3.046,6.792 -6.796,6.792Zm82.071,-0l-41.042,-0c-3.75,-0 -6.791,-3.042 -6.791,-6.792c-0,-3.75 3.041,-6.792 6.791,-6.792l41.042,0c3.792,0 6.833,3.042 6.833,6.792c0,3.75 -3.041,6.792 -6.833,6.792Zm82.121,-0l-41.038,-0c-3.754,-0 -6.791,-3.042 -6.791,-6.792c-0,-3.75 3.037,-6.792 6.791,-6.792l41.038,0c3.754,0 6.791,3.042 6.791,6.792c0,3.75 -3.037,6.792 -6.791,6.792Zm82.087,-0l-41.041,-0c-3.75,-0 -6.792,-3.042 -6.792,-6.792c0,-3.75 3.042,-6.792 6.792,-6.792l41.041,0c3.751,0 6.792,3.042 6.792,6.792c0,3.75 -3.041,6.792 -6.792,6.792Zm82.084,-0l-41.042,-0c-3.75,-0 -6.792,-3.042 -6.792,-6.792c0,-3.75 3.042,-6.792 6.792,-6.792l41.042,0c3.75,0 6.791,3.042 6.791,6.792c0,3.75 -3.041,6.792 -6.791,6.792Zm82.083,-0l-41.042,-0c-3.749,-0 -6.792,-3.042 -6.792,-6.792c0,-3.75 3.043,-6.792 6.792,-6.792l41.042,0c3.75,0 6.791,3.042 6.791,6.792c0,3.75 -3.041,6.792 -6.791,6.792Zm82.125,-0l-41.041,-0c-3.792,-0 -6.834,-3.042 -6.834,-6.792c0,-3.75 3.042,-6.792 6.834,-6.792l41.041,0c3.75,0 6.792,3.042 6.792,6.792c-0,3.75 -3.042,6.792 -6.792,6.792Zm82.083,-0l-41.041,-0c-3.75,-0 -6.792,-3.042 -6.792,-6.792c-0,-3.75 3.042,-6.792 6.792,-6.792l41.041,0c3.75,0 6.792,3.042 6.792,6.792c-0,3.75 -3.042,6.792 -6.792,6.792Zm82.084,-0l-41.042,-0c-3.75,-0 -6.792,-3.042 -6.792,-6.792c0,-3.75 3.042,-6.792 6.792,-6.792l41.042,0c3.749,0 6.792,3.042 6.792,6.792c-0,3.75 -3.043,6.792 -6.792,6.792Zm82.083,-0l-41.042,-0c-3.75,-0 -6.791,-3.042 -6.791,-6.792c-0,-3.75 3.041,-6.792 6.791,-6.792l41.042,0c3.75,0 6.792,3.042 6.792,6.792c-0,3.75 -3.042,6.792 -6.792,6.792Zm82.125,-0l-41.083,-0c-3.751,-0 -6.792,-3.042 -6.792,-6.792c-0,-3.75 3.041,-6.792 6.792,-6.792l41.083,0c3.75,0 6.792,3.042 6.792,6.792c-0,3.75 -3.042,6.792 -6.792,6.792Zm82.083,-0l-41.041,-0c-3.75,-0 -6.792,-3.042 -6.792,-6.792c0,-3.75 3.042,-6.792 6.792,-6.792l41.041,0c3.751,0 6.792,3.042 6.792,6.792c0,3.75 -3.041,6.792 -6.792,6.792Zm82.084,-0l-41.042,-0c-3.75,-0 -6.792,-3.042 -6.792,-6.792c0,-3.75 3.042,-6.792 6.792,-6.792l41.042,0c3.75,0 6.791,3.042 6.791,6.792c0,3.75 -3.041,6.792 -6.791,6.792Zm82.375,-0l-41.334,-0c-3.749,-0 -6.792,-3.042 -6.792,-6.792c0,-3.75 3.043,-6.792 6.792,-6.792l41.042,0c3.75,0 6.958,3.042 6.958,6.792c0,3.75 -2.916,6.792 -6.666,6.792Z" style="fill:#739af0;fill-rule:nonzero;"/><path d="M6896.29,5736.71l-36.208,0c-3.334,0 -6.084,-2.666 -6.084,-6c-0,-3.333 2.625,-6 5.917,-6l36.375,0c3.333,0 6,2.667 6,6c-0,3.334 -2.667,6 -6,6Zm72.708,0l-36.333,0c-3.334,0 -6.042,-2.666 -6.042,-6c0,-3.333 2.708,-6 6.042,-6l36.333,0c3.333,0 6.042,2.667 6.042,6c-0,3.334 -2.709,6 -6.042,6Zm72.75,0l-36.375,0c-3.333,0 -6,-2.666 -6,-6c-0,-3.333 2.667,-6 6,-6l36.375,0c3.333,0 6,2.667 6,6c-0,3.334 -2.667,6 -6,6Zm72.708,0l-36.375,0c-3.292,0 -5.999,-2.666 -5.999,-6c-0,-3.333 2.707,-6 5.999,-6l36.375,0c3.334,0 6.042,2.667 6.042,6c0,3.334 -2.708,6 -6.042,6Zm72.709,0l-36.334,0c-3.333,0 -6.041,-2.666 -6.041,-6c-0,-3.333 2.708,-6 6.041,-6l36.334,0c3.333,0 6.041,2.667 6.041,6c0,3.334 -2.708,6 -6.041,6Zm72.75,0l-36.375,0c-3.334,0 -6,-2.666 -6,-6c-0,-3.333 2.666,-6 6,-6l36.375,0c3.333,0 5.999,2.667 5.999,6c0,3.334 -2.666,6 -5.999,6Zm72.708,0l-36.333,0c-3.333,0 -6.042,-2.666 -6.042,-6c0,-3.333 2.709,-6 6.042,-6l36.333,0c3.333,0 6.042,2.667 6.042,6c-0,3.334 -2.709,6 -6.042,6Zm72.75,0l-36.375,0c-3.333,0 -6.042,-2.666 -6.042,-6c0,-3.333 2.709,-6 6.042,-6l36.375,0c3.291,0 6,2.667 6,6c-0,3.334 -2.709,6 -6,6Zm72.708,0l-36.375,0c-3.333,0 -6,-2.666 -6,-6c0,-3.333 2.667,-6 6,-6l36.375,0c3.334,0 6.001,2.667 6.001,6c-0,3.334 -2.667,6 -6.001,6Zm72.708,0.042l-0.249,0l-0.833,-0.042l-35.251,0c-3.333,0 -6.041,-2.666 -6.041,-6c-0,-3.333 2.708,-6 6.041,-6l36.625,0c3.292,0.167 5.876,2.959 5.75,6.292c-0.166,3.208 -2.833,5.75 -6.042,5.75Zm-714.499,59.25c-3.334,-0 -6.042,-2.708 -6.042,-6.042l0,-35.458c0,-0.375 0,-0.75 0.042,-1.125c0.125,-3.333 2.791,-5.958 6.25,-5.792c3.292,0.167 5.875,2.959 5.75,6.25l-0,36.125c-0,3.334 -2.709,6.042 -6,6.042Zm737.208,0.958c-3.333,0 -6.042,-2.708 -6.042,-6l0,-36.375c0,-3.333 2.709,-6 6.042,-6c3.333,0 6,2.667 6,6l-0,36.375c-0,3.292 -2.667,6 -6,6Zm-737.208,71.75c-3.334,0 -6.042,-2.708 -6.042,-6l0,-36.375c0,-3.333 2.708,-6 6.042,-6c3.291,0 6,2.667 6,6l-0,36.375c-0,3.292 -2.709,6 -6,6Zm737.208,0.959c-3.333,-0 -6.042,-2.667 -6.042,-6l0,-36.375c0,-3.292 2.709,-6 6.042,-6c3.333,-0 6,2.708 6,6l-0,36.375c-0,3.333 -2.667,6 -6,6Zm-737.208,71.75c-3.334,-0 -6.042,-2.667 -6.042,-6l0,-36.375c0,-3.292 2.708,-6 6.042,-6c3.291,-0 6,2.708 6,6l-0,36.375c-0,3.333 -2.709,6 -6,6Zm737.208,1l-0.208,-0c-3.334,-0.125 -5.917,-2.917 -5.834,-6.209l0,-36.166c0,-3.334 2.709,-6.042 6.042,-6.042c3.333,-0 6,2.708 6,6.042l-0,36.541c-0.125,3.25 -2.792,5.834 -6,5.834Zm-678.333,23.041l-35.083,0c-0.542,0 -1.042,-0.041 -1.542,-0.041c-3.334,-0.167 -5.875,-3 -5.75,-6.334c0.166,-3.291 2.875,-5.791 6.333,-5.708l0.959,0.042l35.083,-0c3.333,-0 6.041,2.666 6.041,6c0,3.333 -2.708,6.041 -6.041,6.041Zm72.75,0l-36.376,0c-3.333,0 -5.999,-2.708 -5.999,-6.041c-0,-3.334 2.666,-6 5.999,-6l36.376,-0c3.333,-0 6,2.666 6,6c-0,3.333 -2.667,6.041 -6,6.041Zm72.708,0l-36.375,0c-3.292,0 -6,-2.708 -6,-6.041c-0,-3.334 2.708,-6 6,-6l36.375,-0c3.334,-0 6.041,2.666 6.041,6c0,3.333 -2.707,6.041 -6.041,6.041Zm72.75,0l-36.375,0c-3.333,0 -6.042,-2.708 -6.042,-6.041c0,-3.334 2.709,-6 6.042,-6l36.375,-0c3.292,-0 6,2.666 6,6c0,3.333 -2.708,6.041 -6,6.041Zm72.708,0l-36.374,0c-3.334,0 -6.001,-2.708 -6.001,-6.041c0,-3.334 2.667,-6 6.001,-6l36.374,-0c3.334,-0 6,2.666 6,6c0,3.333 -2.666,6.041 -6,6.041Zm72.709,0l-36.375,0c-3.292,0 -6.001,-2.708 -6.001,-6.041c0,-3.334 2.709,-6 6.001,-6l36.375,-0c3.333,-0 6.042,2.666 6.042,6c-0,3.333 -2.709,6.041 -6.042,6.041Zm72.749,0l-36.374,0c-3.334,0 -6.042,-2.708 -6.042,-6.041c0,-3.334 2.708,-6 6.042,-6l36.374,-0c3.292,-0 6.001,2.666 6.001,6c-0,3.333 -2.709,6.041 -6.001,6.041Zm72.709,0l-36.375,0c-3.333,0 -6,-2.708 -6,-6.041c-0,-3.334 2.667,-6 6,-6l36.375,-0c3.333,-0 6,2.666 6,6c-0,3.333 -2.667,6.041 -6,6.041Zm72.708,0l-36.333,0c-3.334,0 -6.041,-2.708 -6.041,-6.041c-0,-3.334 2.707,-6 6.041,-6l36.333,-0c3.334,-0 6.042,2.666 6.042,6c0,3.333 -2.708,6.041 -6.042,6.041Zm73,0l-36.625,0c-3.333,0 -6.041,-2.708 -6.041,-6.041c-0,-3.334 2.708,-6 6.041,-6l36.376,-0c3.291,-0 6.124,2.666 6.124,6c0,3.333 -2.541,6.041 -5.875,6.041Z" style="fill:#739af0;fill-rule:nonzero;"/><path d="M4446.5,3253l-40.083,-0c-3.75,-0 -6.875,-3.046 -6.875,-6.796c-0,-3.754 3,-6.796 6.75,-6.796l40.208,0c3.75,0 6.792,3.042 6.792,6.796c-0,3.75 -3.042,6.796 -6.792,6.796Zm80.5,-0l-40.25,-0c-3.75,-0 -6.792,-3.046 -6.792,-6.796c0,-3.754 3.042,-6.796 6.792,-6.796l40.25,0c3.75,0 6.792,3.042 6.792,6.796c-0,3.75 -3.042,6.796 -6.792,6.796Zm80.458,-0l-40.25,-0c-3.75,-0 -6.791,-3.046 -6.791,-6.796c-0,-3.754 3.041,-6.796 6.791,-6.796l40.25,0c3.75,0 6.792,3.042 6.792,6.796c0,3.75 -3.042,6.796 -6.792,6.796Zm80.459,-0l-40.209,-0c-3.749,-0 -6.792,-3.046 -6.792,-6.796c0,-3.754 3.043,-6.796 6.792,-6.796l40.209,0c3.75,0 6.791,3.042 6.791,6.796c0,3.75 -3.041,6.796 -6.791,6.796Zm80.5,-0l-40.25,-0c-3.75,-0 -6.792,-3.046 -6.792,-6.796c0,-3.754 3.042,-6.796 6.792,-6.796l40.25,0c3.749,0 6.792,3.042 6.792,6.796c-0,3.75 -3.043,6.796 -6.792,6.796Zm80.458,-0l-40.25,-0c-3.75,-0 -6.792,-3.046 -6.792,-6.796c0,-3.754 3.042,-6.796 6.792,-6.796l40.25,0c3.75,0 6.792,3.042 6.792,6.796c-0,3.75 -3.042,6.796 -6.792,6.796Zm80.458,-0l-40.208,-0c-3.75,-0 -6.792,-3.046 -6.792,-6.796c0,-3.754 3.042,-6.796 6.792,-6.796l40.208,0c3.75,0 6.834,3.042 6.834,6.796c-0,3.75 -3.084,6.796 -6.834,6.796Zm56.584,38.233c-3.75,0 -6.792,-3.041 -6.792,-6.795l-0,-4.808c-0,-9.613 -5.208,-18.517 -13.625,-23.234c-3.25,-1.842 -4.417,-5.983 -2.583,-9.254c1.833,-3.271 6,-4.434 9.249,-2.592c12.667,7.121 20.542,20.563 20.542,35.08l0,4.808c0,3.754 -3.041,6.795 -6.791,6.795Zm-612.959,23.267c-3.75,-0 -6.791,-3.042 -6.791,-6.792l-0,-28.078c-0,-4.925 0.916,-9.738 2.625,-14.309c1.333,-3.504 5.25,-5.267 8.791,-3.933c3.5,1.333 5.25,5.258 3.917,8.766c-1.167,3.021 -1.708,6.209 -1.708,9.476l-0,28.078c-0,3.75 -3.084,6.792 -6.834,6.792Zm612.959,57.204c-3.75,0 -6.792,-3.041 -6.792,-6.792l-0,-40.237c-0,-3.754 3.042,-6.796 6.792,-6.796c3.75,0 6.791,3.042 6.791,6.796l0,40.237c0,3.751 -3.041,6.792 -6.791,6.792Zm-612.959,23.271c-3.75,0 -6.791,-3.042 -6.791,-6.791l-0,-40.238c-0,-3.754 3.041,-6.796 6.791,-6.796c3.75,-0 6.834,3.042 6.834,6.796l-0,40.238c-0,3.749 -3.084,6.791 -6.834,6.791Zm612.959,57.205c-3.75,-0 -6.792,-3.047 -6.792,-6.797l-0,-40.237c-0,-3.75 3.042,-6.796 6.792,-6.796c3.75,0 6.791,3.046 6.791,6.796l0,40.237c0,3.75 -3.041,6.797 -6.791,6.797Zm-612.959,23.27c-3.75,0 -6.791,-3.045 -6.791,-6.796l-0,-40.237c-0,-3.75 3.041,-6.796 6.791,-6.796c3.75,-0 6.834,3.046 6.834,6.796l-0,40.237c-0,3.751 -3.084,6.796 -6.834,6.796Zm612.959,57.2c-3.75,0 -6.792,-3.041 -6.792,-6.791l-0,-40.238c-0,-3.754 3.042,-6.796 6.792,-6.796c3.75,-0 6.791,3.042 6.791,6.796l0,40.238c0,3.75 -3.041,6.791 -6.791,6.791Zm-612.959,23.271c-3.75,-0 -6.791,-3.042 -6.791,-6.792l-0,-40.237c-0,-3.754 3.041,-6.796 6.791,-6.796c3.75,0 6.834,3.042 6.834,6.796l-0,40.237c-0,3.75 -3.084,6.792 -6.834,6.792Zm612.959,57.204c-3.75,0 -6.792,-3.041 -6.792,-6.792l-0,-40.237c-0,-3.754 3.042,-6.796 6.792,-6.796c3.75,0 6.791,3.042 6.791,6.796l0,40.237c0,3.751 -3.041,6.792 -6.791,6.792Zm-612.959,23.271c-3.75,-0 -6.791,-3.042 -6.791,-6.796l-0,-40.237c-0,-3.75 3.041,-6.796 6.791,-6.796c3.75,-0 6.834,3.046 6.834,6.796l-0,40.237c-0,3.754 -3.084,6.796 -6.834,6.796Zm612.959,57.204c-3.75,0 -6.792,-3.046 -6.792,-6.796l-0,-40.237c-0,-3.75 3.042,-6.796 6.792,-6.796c3.75,0 6.791,3.046 6.791,6.796l0,40.237c0,3.75 -3.041,6.796 -6.791,6.796Zm-612.959,23.271c-3.75,0 -6.791,-3.046 -6.791,-6.796l-0,-40.237c-0,-3.75 3.041,-6.796 6.791,-6.796c3.75,-0 6.834,3.046 6.834,6.796l-0,40.237c-0,3.75 -3.084,6.796 -6.834,6.796Zm610.834,56.946c-0.792,0 -1.625,-0.142 -2.417,-0.437c-3.5,-1.321 -5.25,-5.238 -3.959,-8.751c1.126,-2.996 1.709,-6.15 1.709,-9.383l-0,-28.204c-0,-3.754 3.042,-6.796 6.792,-6.796c3.75,-0 6.791,3.042 6.791,6.796l0,28.204c0,4.871 -0.875,9.637 -2.583,14.167c-1,2.725 -3.583,4.404 -6.333,4.404Zm-593.876,17.321c-1.124,-0 -2.291,-0.288 -3.333,-0.888c-12.583,-7.137 -20.416,-20.55 -20.416,-35.008l-0,-4.929c-0,-3.754 3.041,-6.796 6.791,-6.796c3.75,-0 6.834,3.042 6.834,6.796l-0,4.933c-0.042,9.571 5.166,18.454 13.5,23.183c3.25,1.855 4.416,6 2.541,9.263c-1.25,2.204 -3.541,3.446 -5.917,3.446Zm79.751,4.329l-40.25,-0c-3.75,-0 -6.792,-3.046 -6.792,-6.796c0,-3.754 3.042,-6.796 6.792,-6.796l40.25,0c3.75,0 6.791,3.042 6.791,6.796c0,3.75 -3.041,6.796 -6.791,6.796Zm80.458,-0l-40.25,-0c-3.75,-0 -6.792,-3.046 -6.792,-6.796c0,-3.754 3.042,-6.796 6.792,-6.796l40.25,0c3.75,0 6.792,3.042 6.792,6.796c-0,3.75 -3.042,6.796 -6.792,6.796Zm80.458,-0l-40.208,-0c-3.75,-0 -6.791,-3.046 -6.791,-6.796c-0,-3.754 3.041,-6.796 6.791,-6.796l40.208,0c3.75,0 6.834,3.042 6.834,6.796c-0,3.75 -3.084,6.796 -6.834,6.796Zm80.5,-0l-40.25,-0c-3.75,-0 -6.791,-3.046 -6.791,-6.796c-0,-3.754 3.041,-6.796 6.791,-6.796l40.25,0c3.751,0 6.792,3.042 6.792,6.796c0,3.75 -3.041,6.796 -6.792,6.796Zm80.459,-0l-40.25,-0c-3.75,-0 -6.792,-3.046 -6.792,-6.796c0,-3.754 3.042,-6.796 6.792,-6.796l40.25,0c3.75,0 6.791,3.042 6.791,6.796c0,3.75 -3.041,6.796 -6.791,6.796Zm80.5,-0l-40.25,-0c-3.75,-0 -6.792,-3.046 -6.792,-6.796c0,-3.754 3.042,-6.796 6.792,-6.796l40.25,0c3.749,0 6.792,3.042 6.792,6.796c-0,3.75 -3.043,6.796 -6.792,6.796Zm80.708,-0l-40.5,-0c-3.75,-0 -6.791,-3.046 -6.791,-6.796c-0,-3.754 3.041,-6.796 6.791,-6.796l40.25,0c3.75,0 6.917,3.042 6.917,6.796c-0,3.75 -2.917,6.796 -6.667,6.796Z" style="fill:#739af0;fill-rule:nonzero;"/><path d="M6896.29,6072.33l-36.208,0c-3.334,0 -6.084,-2.708 -6.084,-6.041c-0,-3.334 2.625,-6 5.917,-6l36.375,-0c3.333,-0 6,2.666 6,6c-0,3.333 -2.667,6.041 -6,6.041Zm72.708,0l-36.333,0c-3.334,0 -6.042,-2.708 -6.042,-6.041c0,-3.334 2.708,-6 6.042,-6l36.333,-0c3.333,-0 6.042,2.666 6.042,6c-0,3.333 -2.709,6.041 -6.042,6.041Zm72.75,0l-36.375,0c-3.333,0 -6,-2.708 -6,-6.041c-0,-3.334 2.667,-6 6,-6l36.375,-0c3.333,-0 6,2.666 6,6c-0,3.333 -2.667,6.041 -6,6.041Zm72.708,0l-36.375,0c-3.292,0 -5.999,-2.708 -5.999,-6.041c-0,-3.334 2.707,-6 5.999,-6l36.375,-0c3.334,-0 6.042,2.666 6.042,6c0,3.333 -2.708,6.041 -6.042,6.041Zm72.709,0l-36.334,0c-3.333,0 -6.041,-2.708 -6.041,-6.041c-0,-3.334 2.708,-6 6.041,-6l36.334,-0c3.333,-0 6.041,2.666 6.041,6c0,3.333 -2.708,6.041 -6.041,6.041Zm72.75,0l-36.375,0c-3.334,0 -6,-2.708 -6,-6.041c-0,-3.334 2.666,-6 6,-6l36.375,-0c3.333,-0 5.999,2.666 5.999,6c0,3.333 -2.666,6.041 -5.999,6.041Zm72.708,0l-36.333,0c-3.333,0 -6.042,-2.708 -6.042,-6.041c0,-3.334 2.709,-6 6.042,-6l36.333,-0c3.333,-0 6.042,2.666 6.042,6c-0,3.333 -2.709,6.041 -6.042,6.041Zm72.75,0l-36.375,0c-3.333,0 -6.042,-2.708 -6.042,-6.041c0,-3.334 2.709,-6 6.042,-6l36.375,-0c3.291,-0 6,2.666 6,6c-0,3.333 -2.709,6.041 -6,6.041Zm72.708,0l-36.375,0c-3.333,0 -6,-2.708 -6,-6.041c0,-3.334 2.667,-6 6,-6l36.375,-0c3.334,-0 6.001,2.666 6.001,6c-0,3.333 -2.667,6.041 -6.001,6.041Zm72.708,0l-36.333,0c-3.333,0 -6.041,-2.708 -6.041,-6.041c-0,-3.334 2.708,-6 6.041,-6l36.625,-0c3.292,0.166 5.876,2.958 5.75,6.291c-0.166,3.25 -2.833,5.75 -6.042,5.75Zm-714.499,59.25c-3.334,0 -6.042,-2.708 -6.042,-6.041l0,-35.459c0,-0.375 0,-0.75 0.042,-1.125c0.125,-3.333 2.791,-5.916 6.25,-5.791c3.292,0.166 5.875,2.958 5.75,6.291l-0,36.084c-0,3.333 -2.709,6.041 -6,6.041Zm737.208,0.959c-3.333,-0 -6.042,-2.667 -6.042,-6l0,-36.375c0,-3.334 2.709,-6 6.042,-6c3.333,-0 6,2.666 6,6l-0,36.375c-0,3.333 -2.667,6 -6,6Zm-737.208,71.75c-3.334,-0 -6.042,-2.667 -6.042,-6l0,-36.375c0,-3.334 2.708,-6 6.042,-6c3.291,-0 6,2.666 6,6l-0,36.375c-0,3.333 -2.709,6 -6,6Zm737.208,1c-3.333,-0 -6.042,-2.709 -6.042,-6.042l0,-36.375c0,-3.292 2.709,-6 6.042,-6c3.333,0 6,2.708 6,6l-0,36.375c-0,3.333 -2.667,6.042 -6,6.042Zm-737.208,71.75c-3.334,-0 -6.042,-2.709 -6.042,-6.042l0,-36.375c0,-3.292 2.708,-6 6.042,-6c3.291,-0 6,2.708 6,6l-0,36.375c-0,3.333 -2.709,6.042 -6,6.042Zm737.208,0.958l-0.208,0c-3.334,-0.125 -5.917,-2.875 -5.834,-6.208l0,-36.167c0,-3.333 2.709,-6.042 6.042,-6.042c3.333,0 6,2.709 6,6.042l-0,36.542c-0.125,3.25 -2.792,5.833 -6,5.833Zm-678.333,23.042l-35.083,-0c-0.542,-0 -1.042,-0 -1.542,-0.042c-3.334,-0.167 -5.875,-3 -5.75,-6.333c0.166,-3.292 2.875,-5.917 6.333,-5.709l0.959,0.042l35.083,-0c3.333,-0 6.041,2.708 6.041,6c0,3.333 -2.708,6.042 -6.041,6.042Zm72.75,-0l-36.376,-0c-3.333,-0 -5.999,-2.709 -5.999,-6.042c-0,-3.292 2.666,-6 5.999,-6l36.376,-0c3.333,-0 6,2.708 6,6c-0,3.333 -2.667,6.042 -6,6.042Zm72.708,-0l-36.375,-0c-3.292,-0 -6,-2.709 -6,-6.042c-0,-3.292 2.708,-6 6,-6l36.375,-0c3.334,-0 6.041,2.708 6.041,6c0,3.333 -2.707,6.042 -6.041,6.042Zm72.75,-0l-36.375,-0c-3.333,-0 -6.042,-2.709 -6.042,-6.042c0,-3.292 2.709,-6 6.042,-6l36.375,-0c3.292,-0 6,2.708 6,6c0,3.333 -2.708,6.042 -6,6.042Zm72.708,-0l-36.374,-0c-3.334,-0 -6.001,-2.709 -6.001,-6.042c0,-3.292 2.667,-6 6.001,-6l36.374,-0c3.334,-0 6,2.708 6,6c0,3.333 -2.666,6.042 -6,6.042Zm72.709,-0l-36.375,-0c-3.292,-0 -6.001,-2.709 -6.001,-6.042c0,-3.292 2.709,-6 6.001,-6l36.375,-0c3.333,-0 6.042,2.708 6.042,6c-0,3.333 -2.709,6.042 -6.042,6.042Zm72.749,-0l-36.374,-0c-3.334,-0 -6.042,-2.709 -6.042,-6.042c0,-3.292 2.708,-6 6.042,-6l36.374,-0c3.292,-0 6.001,2.708 6.001,6c-0,3.333 -2.709,6.042 -6.001,6.042Zm72.709,-0l-36.375,-0c-3.333,-0 -6,-2.709 -6,-6.042c-0,-3.292 2.667,-6 6,-6l36.375,-0c3.333,-0 6,2.708 6,6c-0,3.333 -2.667,6.042 -6,6.042Zm72.708,-0l-36.333,-0c-3.334,-0 -6.041,-2.709 -6.041,-6.042c-0,-3.292 2.707,-6 6.041,-6l36.333,-0c3.334,-0 6.042,2.708 6.042,6c0,3.333 -2.708,6.042 -6.042,6.042Zm73,-0l-36.625,-0c-3.333,-0 -6.041,-2.709 -6.041,-6.042c-0,-3.292 2.708,-6 6.041,-6l36.376,-0c3.291,-0 6.124,2.708 6.124,6c0,3.333 -2.541,6.042 -5.875,6.042Z" style="fill:#739af0;fill-rule:nonzero;"/><path d="M3605.89,5137.71l-35.925,0c-3.325,0 -6.079,-2.666 -6.079,-6c-0,-3.333 2.629,-6.041 5.954,-6.041l36.05,-0c3.325,-0 6.021,2.708 6.021,6.041c-0,3.334 -2.696,6 -6.021,6Zm72.095,0l-36.049,0c-3.321,0 -6.017,-2.666 -6.017,-6c-0,-3.333 2.696,-6.041 6.017,-6.041l36.049,-0c3.326,-0 6.021,2.708 6.021,6.041c0,3.334 -2.695,6 -6.021,6Zm72.096,0l-36.05,0c-3.325,0 -6.021,-2.666 -6.021,-6c0,-3.333 2.696,-6.041 6.021,-6.041l36.05,-0c3.321,-0 6.017,2.708 6.017,6.041c-0,3.334 -2.696,6 -6.017,6Zm72.092,0l-36.046,0c-3.325,0 -6.021,-2.666 -6.021,-6c0,-3.333 2.696,-6.041 6.021,-6.041l36.046,-0c3.325,-0 6.021,2.708 6.021,6.041c-0,3.334 -2.696,6 -6.021,6Zm72.096,0l-36.046,0c-3.325,0 -6.021,-2.666 -6.021,-6c0,-3.333 2.696,-6.041 6.021,-6.041l36.046,-0c3.325,-0 6.021,2.708 6.021,6.041c-0,3.334 -2.696,6 -6.021,6Zm72.096,0l-36.046,0c-3.325,0 -6.021,-2.666 -6.021,-6c-0,-3.333 2.696,-6.041 6.021,-6.041l36.046,-0c3.325,-0 6.02,2.708 6.02,6.041c0,3.334 -2.695,6 -6.02,6Zm72.096,0l-36.046,0c-3.325,0 -6.021,-2.666 -6.021,-6c-0,-3.333 2.696,-6.041 6.021,-6.041l36.046,-0c3.324,-0 6.02,2.708 6.02,6.041c0,3.334 -2.696,6 -6.02,6Zm72.095,0l-36.05,0c-3.325,0 -6.016,-2.666 -6.016,-6c-0,-3.333 2.691,-6.041 6.016,-6.041l36.05,-0c3.325,-0 6.021,2.708 6.021,6.041c0,3.334 -2.696,6 -6.021,6Zm72.109,0l-36.063,0c-3.325,0 -6.021,-2.666 -6.021,-6c0,-3.333 2.696,-6.041 6.021,-6.041l36.063,-0c3.291,-0 6,2.708 6,6.041c-0,3.334 -2.709,6 -6,6Zm72.083,0l-36.042,0c-3.333,0 -6.041,-2.666 -6.041,-6c-0,-3.333 2.708,-6.041 6.041,-6.041l36.042,-0c3.333,-0 6,2.708 6,6.041c0,3.334 -2.667,6 -6,6Zm72.079,0l-36.037,0c-3.334,0 -6,-2.666 -6,-6c-0,-3.333 2.666,-6.041 6,-6.041l36.037,-0c3.338,-0 6.046,2.708 6.046,6.041c0,3.334 -2.708,6 -6.046,6Zm72.129,0l-36.087,0c-3.287,0 -5.996,-2.666 -5.996,-6c0,-3.333 2.709,-6.041 5.996,-6.041l36.087,-0c3.292,-0 6,2.708 6,6.041c0,3.334 -2.708,6 -6,6Zm72.084,0l-36.042,0c-3.333,0 -6.042,-2.666 -6.042,-6c0,-3.333 2.709,-6.041 6.042,-6.041l36.042,-0c3.333,-0 6,2.708 6,6.041c-0,3.334 -2.667,6 -6,6Zm72.083,0l-36.042,0c-3.333,0 -6.041,-2.666 -6.041,-6c-0,-3.333 2.708,-6.041 6.041,-6.041l36.042,-0c3.333,-0 6.042,2.708 6.042,6.041c-0,3.334 -2.709,6 -6.042,6Zm72.083,0l-36.041,0c-3.334,0 -6,-2.666 -6,-6c-0,-3.333 2.666,-6.041 6,-6.041l36.041,-0c3.333,-0 6.042,2.708 6.042,6.041c-0,3.334 -2.709,6 -6.042,6Zm72.083,0.417l-0.666,-0.042c-2.125,-0.25 -4.292,-0.375 -6.458,-0.375l-28.917,0c-3.292,0 -6,-2.666 -6,-6c-0,-3.333 2.708,-6.041 6,-6.041l28.917,-0c2.625,-0 5.25,0.166 7.833,0.458c3.292,0.375 5.667,3.375 5.292,6.667c-0.375,3.083 -2.958,5.333 -6.001,5.333Zm-1174.02,37.333c-0.775,0 -1.563,-0.125 -2.321,-0.458c-3.066,-1.292 -4.517,-4.792 -3.233,-7.875c5.129,-12.25 13.704,-22.667 24.8,-30.083c2.762,-1.875 6.496,-1.125 8.35,1.666c1.846,2.75 1.104,6.5 -1.663,8.334c-9.116,6.083 -16.162,14.625 -20.379,24.75c-0.962,2.291 -3.204,3.666 -5.554,3.666Zm1225.93,6.625c-2.625,0 -5.042,-1.708 -5.791,-4.333c-3.042,-10.5 -9.042,-19.792 -17.417,-26.917c-2.542,-2.125 -2.875,-5.916 -0.708,-8.458c2.166,-2.542 5.958,-2.833 8.5,-0.708c10.166,8.666 17.5,19.958 21.208,32.75c0.917,3.166 -0.959,6.5 -4.125,7.458c-0.583,0.125 -1.125,0.208 -1.667,0.208Zm-1230.66,64.834c-3.325,-0 -6.021,-2.667 -6.021,-6l0,-36.042c0,-3.333 2.696,-6.042 6.021,-6.042c3.325,0 6.021,2.709 6.021,6.042l-0,36.042c-0,3.333 -2.696,6 -6.021,6Zm1233.03,7.041c-3.333,0 -6,-2.708 -6,-6l0,-36.041c0,-3.334 2.667,-6.042 6,-6.042c3.334,-0 6.042,2.708 6.042,6.042l0,36.041c0,3.292 -2.708,6 -6.042,6Zm-1233.03,65.084c-3.325,-0 -6.021,-2.709 -6.021,-6.042l0,-36.042c0,-3.333 2.696,-6 6.021,-6c3.325,0 6.021,2.667 6.021,6l-0,36.042c-0,3.333 -2.696,6.042 -6.021,6.042Zm1233.03,7c-3.333,-0 -6,-2.667 -6,-6l0,-36.042c0,-3.333 2.667,-6.042 6,-6.042c3.334,0 6.042,2.709 6.042,6.042l0,36.042c0,3.333 -2.708,6 -6.042,6Zm-1233.03,65.083c-3.325,-0 -6.021,-2.708 -6.021,-6l0,-36.042c0,-3.333 2.696,-6.041 6.021,-6.041c3.325,-0 6.021,2.708 6.021,6.041l-0,36.042c-0,3.292 -2.696,6 -6.021,6Zm1233.03,7.042c-3.333,-0 -6,-2.709 -6,-6.042l0,-36.042c0,-3.333 2.667,-6 6,-6c3.334,0 6.042,2.667 6.042,6l0,36.042c0,3.333 -2.708,6.042 -6.042,6.042Zm-1233.03,65.041c-3.325,0 -6.021,-2.666 -6.021,-6l0,-36.041c0,-3.334 2.696,-6.042 6.021,-6.042c3.325,0 6.021,2.708 6.021,6.042l-0,36.041c-0,3.334 -2.696,6 -6.021,6Zm1233.03,7.042c-3.333,-0 -6,-2.708 -6,-6l0,-36.083c0,-3.292 2.667,-6 6,-6c3.334,-0 6.042,2.708 6.042,6l0,36.083c0,3.292 -2.708,6 -6.042,6Zm-1233.03,65.083c-3.325,0 -6.021,-2.708 -6.021,-6.041l0,-36.042c0,-3.333 2.696,-6 6.021,-6c3.325,0 6.021,2.667 6.021,6l-0,36.042c-0,3.333 -2.696,6.041 -6.021,6.041Zm1233.03,7c-3.333,0 -6,-2.666 -6,-6l0,-36.041c0,-3.334 2.667,-6.042 6,-6.042c3.334,-0 6.042,2.708 6.042,6.042l0,36.041c0,3.334 -2.708,6 -6.042,6Zm-1233.03,65.084c-3.325,-0 -6.021,-2.709 -6.021,-6.042l0,-36.042c0,-3.291 2.696,-6 6.021,-6c3.325,0 6.021,2.709 6.021,6l-0,36.042c-0,3.333 -2.696,6.042 -6.021,6.042Zm1233.03,7c-3.333,-0 -6,-2.667 -6,-6l0,-36.042c0,-3.333 2.667,-6.042 6,-6.042c3.334,0 6.042,2.709 6.042,6.042l0,36.042c0,3.333 -2.708,6 -6.042,6Zm-1233.03,65.083c-3.325,0 -6.021,-2.667 -6.021,-6l0,-36.042c0,-3.333 2.696,-6.041 6.021,-6.041c3.325,-0 6.021,2.708 6.021,6.041l-0,36.042c-0,3.333 -2.696,6 -6.021,6Zm1233.03,7.042c-3.333,-0 -6,-2.709 -6,-6.042l0,-36.042c0,-3.333 2.667,-6 6,-6c3.334,0 6.042,2.667 6.042,6l0,36.042c0,3.333 -2.708,6.042 -6.042,6.042Zm-1233.03,65.041c-3.325,0 -6.021,-2.666 -6.021,-6l0,-36.041c0,-3.334 2.696,-6.042 6.021,-6.042c3.325,0 6.021,2.708 6.021,6.042l-0,36.041c-0,3.334 -2.696,6 -6.021,6Zm1233.03,7.042c-3.333,0 -6,-2.708 -6,-6l0,-36.083c0,-3.292 2.667,-6 6,-6c3.334,-0 6.042,2.708 6.042,6l0,36.083c0,3.292 -2.708,6 -6.042,6Zm-1233.03,65.083c-3.325,0 -6.021,-2.708 -6.021,-6.041l0,-36.042c0,-3.333 2.696,-6 6.021,-6c3.325,0 6.021,2.667 6.021,6l-0,36.042c-0,3.333 -2.696,6.041 -6.021,6.041Zm1233.03,7c-3.333,0 -6,-2.666 -6,-6l0,-36.041c0,-3.334 2.667,-6.042 6,-6.042c3.334,0 6.042,2.708 6.042,6.042l0,36.041c0,3.334 -2.708,6 -6.042,6Zm-1233.03,65.084c-3.325,-0 -6.021,-2.709 -6.021,-6l0,-36.084c0,-3.291 2.696,-6 6.021,-6c3.325,0 6.021,2.709 6.021,6l-0,36.084c-0,3.291 -2.696,6 -6.021,6Zm1233.03,7.041c-3.333,0 -6,-2.708 -6,-6.041l0,-36.042c0,-3.333 2.667,-6 6,-6c3.334,0 6.042,2.667 6.042,6l0,36.042c0,3.333 -2.708,6.041 -6.042,6.041Zm-1233.03,65.042c-3.325,-0 -6.021,-2.667 -6.021,-6l0,-36.042c0,-3.333 2.696,-6.041 6.021,-6.041c3.325,-0 6.021,2.708 6.021,6.041l-0,36.042c-0,3.333 -2.696,6 -6.021,6Zm1233.03,7.042c-3.333,-0 -6,-2.709 -6,-6l0,-36.084c0,-3.291 2.667,-6 6,-6c3.334,0 6.042,2.709 6.042,6l0,36.084c0,3.291 -2.708,6 -6.042,6Zm-1211.42,58.666c-1.384,0 -2.767,-0.5 -3.901,-1.458c-10.174,-8.667 -17.483,-20 -21.141,-32.792c-0.913,-3.166 0.937,-6.5 4.133,-7.416c3.2,-0.917 6.529,0.916 7.442,4.125c3.004,10.5 9.008,19.791 17.371,26.916c2.533,2.167 2.833,5.959 0.679,8.5c-1.192,1.375 -2.884,2.125 -4.583,2.125Zm1184.21,4.25c-1.917,0 -3.833,-0.958 -5,-2.666c-1.833,-2.792 -1.125,-6.5 1.667,-8.375c9.083,-6.125 16.125,-14.667 20.291,-24.792c1.292,-3.042 4.834,-4.5 7.875,-3.25c3.084,1.292 4.542,4.792 3.25,7.875c-5.083,12.292 -13.666,22.708 -24.708,30.167c-1.042,0.708 -2.208,1.041 -3.375,1.041Zm-1115.63,10.375l-28.775,0c-2.667,0 -5.346,-0.166 -7.959,-0.458c-3.3,-0.375 -5.662,-3.375 -5.27,-6.667c0.387,-3.333 3.391,-5.708 6.683,-5.291c2.146,0.25 4.35,0.375 6.546,0.375l28.775,-0c3.325,-0 6.021,2.708 6.021,6.041c-0,3.292 -2.696,6 -6.021,6Zm72.095,0l-36.045,0c-3.325,0 -6.021,-2.708 -6.021,-6c-0,-3.333 2.696,-6.041 6.021,-6.041l36.045,-0c3.326,-0 6.021,2.708 6.021,6.041c0,3.292 -2.695,6 -6.021,6Zm72.096,0l-36.045,0c-3.326,0 -6.021,-2.708 -6.021,-6c-0,-3.333 2.695,-6.041 6.021,-6.041l36.045,-0c3.325,-0 6.021,2.708 6.021,6.041c0,3.292 -2.696,6 -6.021,6Zm72.096,0l-36.046,0c-3.325,0 -6.021,-2.708 -6.021,-6c0,-3.333 2.696,-6.041 6.021,-6.041l36.046,-0c3.325,-0 6.021,2.708 6.021,6.041c0,3.292 -2.696,6 -6.021,6Zm72.096,0l-36.05,0c-3.325,0 -6.021,-2.708 -6.021,-6c0,-3.333 2.696,-6.041 6.021,-6.041l36.05,-0c3.325,-0 6.017,2.708 6.017,6.041c-0,3.292 -2.692,6 -6.017,6Zm72.092,0l-36.046,0c-3.325,0 -6.021,-2.708 -6.021,-6c0,-3.333 2.696,-6.041 6.021,-6.041l36.046,-0c3.325,-0 6.02,2.708 6.02,6.041c0,3.292 -2.695,6 -6.02,6Zm72.096,0l-36.046,0c-3.325,0 -6.021,-2.708 -6.021,-6c-0,-3.333 2.696,-6.041 6.021,-6.041l36.046,-0c3.324,-0 6.02,2.708 6.02,6.041c0,3.292 -2.696,6 -6.02,6Zm72.095,0l-36.046,0c-3.324,0 -6.02,-2.708 -6.02,-6c-0,-3.333 2.696,-6.041 6.02,-6.041l36.046,-0c3.325,-0 6.021,2.708 6.021,6.041c0,3.292 -2.696,6 -6.021,6Zm72.092,0l-36.042,0c-3.325,0 -6.02,-2.708 -6.02,-6c-0,-3.333 2.695,-6.041 6.02,-6.041l36.042,-0c3.333,-0 6.042,2.708 6.042,6.041c-0,3.292 -2.709,6 -6.042,6Zm72.083,0l-36.041,0c-3.334,0 -6,-2.708 -6,-6c-0,-3.333 2.666,-6.041 6,-6.041l36.041,-0c3.334,-0 6.042,2.708 6.042,6.041c-0,3.292 -2.708,6 -6.042,6Zm72.125,0l-36.046,0c-3.329,0 -6.037,-2.708 -6.037,-6c0,-3.333 2.708,-6.041 6.037,-6.041l36.046,-0c3.292,-0 6.001,2.708 6.001,6.041c-0,3.292 -2.709,6 -6.001,6Zm72.084,0l-36.042,0c-3.338,0 -6.041,-2.708 -6.041,-6c-0,-3.333 2.703,-6.041 6.041,-6.041l36.042,-0c3.333,-0 6,2.708 6,6.041c-0,3.292 -2.667,6 -6,6Zm72.083,0l-36.041,0c-3.334,0 -6.001,-2.708 -6.001,-6c0,-3.333 2.667,-6.041 6.001,-6.041l36.041,-0c3.333,-0 6.042,2.708 6.042,6.041c-0,3.292 -2.709,6 -6.042,6Zm72.125,0l-36.083,0c-3.292,0 -6,-2.708 -6,-6c-0,-3.333 2.708,-6.041 6,-6.041l36.083,-0c3.292,-0 6,2.708 6,6.041c-0,3.292 -2.708,6 -6,6Zm72.083,0l-36.041,0c-3.334,0 -6.042,-2.708 -6.042,-6c-0,-3.333 2.708,-6.041 6.042,-6.041l36.041,-0c3.334,-0 6,2.708 6,6.041c0,3.292 -2.666,6 -6,6Zm72.334,0l-36.292,0c-3.333,0 -6.042,-2.708 -6.042,-6c0,-3.333 2.709,-6.041 6.042,-6.041l36.042,-0c3.333,-0 6.166,2.708 6.166,6.041c0,3.292 -2.583,6 -5.916,6Z" style="fill:#739af0;fill-rule:nonzero;"/><path d="M5030.79,4943.29l-1456.93,-0c-31.445,-0 -56.933,-25.459 -56.933,-56.917l0,-796.633c0,-31.446 25.488,-56.934 56.933,-56.934l1456.93,0c31.458,0 56.958,25.488 56.958,56.934l0,796.633c0,31.458 -25.5,56.917 -56.958,56.917Z" style="fill:#d4e1ff;fill-rule:nonzero;"/><path d="M4125.07,4307.46l-0,361.204c-0,22.583 25.104,36.125 43.971,23.708l274.499,-180.625c17.042,-11.208 17.042,-36.208 0,-47.417l-274.499,-180.583c-18.867,-12.417 -43.971,1.125 -43.971,23.713Z" style="fill:#f99746;fill-rule:nonzero;"/><path d="M3598.58,4861.17c0,-15.584 12.621,-28.209 28.192,-28.209c15.567,0 28.187,12.625 28.187,28.209c0,15.583 -12.62,28.208 -28.187,28.208c-15.571,0 -28.192,-12.625 -28.192,-28.208Z" style="fill:#aec3ff;fill-rule:nonzero;"/><path d="M4909.46,4868.75l-1275.1,0c-4.191,0 -7.587,-3.375 -7.587,-7.583c-0,-4.209 3.396,-7.584 7.587,-7.584l1275.1,0c4.167,0 7.584,3.375 7.584,7.584c-0,4.208 -3.417,7.583 -7.584,7.583Z" style="fill:#aec3ff;fill-rule:nonzero;"/><rect x="4985.92" y="5131.71" width="812.667" height="1213.08" style="fill:#cddbfc;fill-rule:nonzero;"/><path d="M5470.25,5521.46l-11.125,0l-0,-50c-0,-17.916 14.583,-32.5 32.542,-32.5l137.5,0c9.708,0 18.208,-6.583 20.666,-15.958l21.751,-82.667c1.708,-6.458 0.333,-13.208 -3.751,-18.5c-4.083,-5.333 -10.25,-8.333 -16.916,-8.333l-179.417,-0l0,-11.125l179.417,0c10.125,0 19.541,4.583 25.75,12.667c6.166,8.041 8.25,18.291 5.666,28.125l-21.75,82.666c-3.75,14.25 -16.666,24.25 -31.416,24.25l-137.5,0c-11.792,0 -21.417,9.584 -21.417,21.375l-0,50Z" style="fill:#2b478b;fill-rule:nonzero;"/><path d="M5599.5,5354.83l-236.25,0c-19.958,0 -36.125,-16.166 -36.125,-36.125l0,-21.583c0,-19.917 16.167,-36.083 36.125,-36.083l236.25,-0c19.959,-0 36.125,16.166 36.125,36.083l0,21.583c0,19.959 -16.166,36.125 -36.125,36.125Z" style="fill:#f99746;fill-rule:nonzero;"/><path d="M5464.71,5728.96c-16.875,0 -30.583,-13.666 -30.583,-30.583l-0,-185.25c-0,-16.875 13.708,-30.583 30.583,-30.583c16.875,-0 30.584,13.708 30.584,30.583l-0,185.25c-0,16.917 -13.709,30.583 -30.584,30.583Z" style="fill:#2b478b;fill-rule:nonzero;"/><path d="M6634.58,6130.71c-0,0 21.041,64.792 19.25,79.584c-1.834,14.833 -15.042,65.458 -24.459,78.416c-9.417,12.959 -14.083,-52.791 -21.542,-62.666c-7.458,-9.917 -1.541,24.75 -6.791,27.958c-5.292,3.208 -16.25,-25.5 -20.959,-35.625c-4.75,-10.125 11.542,-47.417 11.584,-73.417c0.041,-26.041 42.917,-14.25 42.917,-14.25Z" style="fill:#ffb27d;fill-rule:nonzero;"/><path d="M6139.96,5616.17c-5.833,-74.25 74.834,-125.167 138.542,-86.542c1.333,0.792 2.625,1.583 3.875,2.417c95.417,61.375 301.209,347.833 315.375,376.541c14.125,28.709 55.958,257 55.958,257c0,0 -51.666,18.917 -75.833,-0.708c-0,0 -83.792,-216.5 -96.167,-227.333c-12.375,-10.834 -335.124,-191.917 -337.875,-259.792c-0.708,-17.958 -2.166,-39.542 -3.875,-61.583Z" style="fill:#233862;fill-rule:nonzero;"/><path d="M6715.83,7292.92c-0,-0 38.458,35.083 30.958,60.041c-7.5,24.917 -42.209,41.542 -46.875,72.042c-4.709,30.458 -23.459,47.083 -40.333,47.083l-80.501,0c0,0 -12.416,-21.458 17.583,-27.916c30.001,-6.459 41.334,-42.292 39.459,-75.542c-1.875,-33.25 2.833,-77.542 2.833,-77.542l63.75,-14.791l13.126,16.625Z" style="fill:#2a4a7c;fill-rule:nonzero;"/><path d="M6244.08,7383.67c0,-0 6.875,79.875 -9.999,88.208l-216.084,-0.458c-0,-0 -0,-24.917 34.708,-30.459c34.709,-5.541 95.667,-25.875 106,-71.125c10.333,-45.25 85.375,13.834 85.375,13.834Z" style="fill:#2a4a7c;fill-rule:nonzero;"/><path d="M6061.62,6255.46c0,0 11.417,140 24.833,308.292c18.167,228.625 40.084,509.417 42.25,562.625c3.75,92.375 18.75,240.125 18.75,240.125c0,0 35.625,35.083 106.917,20.292c0,-0 63.542,-210.917 81.708,-434.084c0.292,-3.666 0.542,-7.375 0.834,-11.041c16.875,-227.209 43.125,-705.584 43.125,-705.584l-318.417,19.375Z" style="fill:#f99746;fill-rule:nonzero;"/><path d="M6061.62,6255.46c0,0 11.417,140 24.833,308.292l249.625,388.958c0.292,-3.666 0.542,-7.375 0.834,-11.041c16.875,-227.209 43.125,-705.584 43.125,-705.584l-318.417,19.375Z" style="fill:#ef7e29;fill-rule:nonzero;"/><path d="M6113.71,6272.08c0,0 205.375,507.042 340.459,745.292c135.083,238.292 177.25,304.792 177.25,304.792c-0,-0 77.416,-30.5 84.417,-51.25c-0,-0 -51.626,-460 -142.084,-572.167c-51.125,-63.333 -111.125,-253.5 -113.958,-320c-2.833,-66.5 -18.292,-198.083 -18.292,-198.083l-327.792,91.416Z" style="fill:#f99746;fill-rule:nonzero;"/><path d="M6290.79,5511.5c-0,0 -137.625,69.833 -218.208,46.542c-0,-0 19.208,-25.292 53.374,-44.459c-3.083,-16.041 -5.541,-29.958 -6.999,-41.75c-3.917,-27.25 -4.251,-42.708 -4.251,-42.708l52.792,-43.25l50.042,-41.333c-1.75,113.541 73.25,166.958 73.25,166.958Z" style="fill:#ffb27d;fill-rule:nonzero;"/><path d="M6427.5,6220.79c-55.542,33.625 -108.167,58.916 -169.708,73.125c-72.626,17.208 -161.875,12.125 -191.75,16.666c-3.084,0.417 -5.958,-0.375 -8.709,-2.208c-2.333,-1.208 -15.5,-89.792 -28.708,-201.583c-0.583,-4.5 -1.209,-9.042 -1.458,-13.584l-0.209,-1.5c-5.125,-43.708 -9.625,-89.625 -13.5,-135.625c-3.208,-35.833 -5.833,-71.208 -7.625,-104.5c-2.291,-41.625 -3.25,-79.833 -2.291,-111.291c0.416,-14.375 1.25,-27.292 2.541,-38.5c7.875,-65.334 39,-111.959 68.334,-146.709l24.333,-27.708c28.208,1.792 57,-3.542 84.208,-21.458c29.709,-19.584 61.792,-40.625 67.833,-37.125c45.542,24.958 82.626,89.5 109.126,174.791c15.166,49.084 26.833,104.792 34.291,163.792c2.417,18.333 4.459,37.083 6.001,55.792c0.333,3.458 0.582,6.916 0.833,10.333c3.583,51.125 9.416,99.042 15.875,141.833c8.708,57.709 18.625,106.042 25.625,140.084c3.542,17.333 6.208,30.708 7.791,40.333c1.417,8.375 -15.333,20.375 -22.833,25.042Z" style="fill:#2b478b;fill-rule:nonzero;"/><path d="M6219.29,5387.88c-0,0 -33.834,64.708 -100.333,83.958c-3.917,-27.25 -4.251,-42.708 -4.251,-42.708l52.792,-43.25l51.792,2Z" style="fill:#ed985f;fill-rule:nonzero;"/><path d="M6090.25,5427.75c0,-0 132.958,19.042 143.792,-62.667c10.833,-81.75 35.291,-134.333 -49.167,-149.958c-84.458,-15.625 -105.125,13.458 -115.458,39.875c-10.375,26.417 -13.5,165.667 20.833,172.75Z" style="fill:#ffb27d;fill-rule:nonzero;"/><path d="M6279.04,5203.5c1.166,-1.417 3.916,-2.583 10.083,-3.042c0,0 -5,-3 -11.583,-3.041c-1.459,-8.542 -6.334,-23.667 -21.209,-27.042c0,0 8.042,4.042 9.25,13.167c-17.458,-17.25 -54.416,-29.292 -155.833,-19.292c-133.667,13.25 -87.833,98.083 -70.333,107.958c17.542,9.875 60.625,-19 92.958,-17.083c32.375,1.917 39.417,48.458 50.5,54.667c11.084,6.166 6.542,-5.084 21.25,-12.042c14.708,-7 16.583,17.542 12.625,33.583c-3.959,16.042 16.834,36.709 16.834,36.709l20.124,-22.584c20.167,-22.541 37.667,-116.833 27.917,-136.666c-0.833,-1.75 -1.708,-3.542 -2.583,-5.292Z" style="fill:#2c3a64;fill-rule:nonzero;"/><path d="M6236.83,5747.58c0,0 -112.166,85.292 -231,104c-2.291,-41.625 -3.25,-79.833 -2.291,-111.291l233.291,7.291Z" style="fill:#233862;fill-rule:nonzero;"/><path d="M5548.21,5637.5c-1.791,-1.917 -24.625,-78.333 -64.166,-72.792c-25.792,3.667 -67.959,18.584 -56.792,52.584c4.417,13.375 83.042,59.375 83.042,59.375l37.916,-39.167Z" style="fill:#ffb27d;fill-rule:nonzero;"/><path d="M6250.67,5582.71c63.958,38.25 58.75,133.542 -9.625,163.125c-1.375,0.584 -2.792,1.209 -4.209,1.75c-105.292,42.25 -457.999,44.209 -489.583,39.125c-31.625,-5.083 -241.958,-103.125 -241.958,-103.125c-0,0 14.5,-53.083 44.458,-61.416c-0,-0 225.041,57 241.042,53.166c16,-3.833 350.5,-162.125 407.416,-125.083c15.083,9.833 33.5,21.125 52.459,32.458Z" style="fill:#2b478b;fill-rule:nonzero;"/><path d="M8623.5,3073.31l-280.745,0c-11.833,0 -21.458,-9.654 -21.458,-21.458c-0,-11.8 9.625,-21.454 21.458,-21.454l280.745,0c11.838,0 21.463,9.654 21.463,21.454c0,11.804 -9.625,21.458 -21.463,21.458Z" style="fill:#ebf3fa;fill-rule:nonzero;"/><path d="M8623.5,3157.15l-280.745,-0c-11.833,-0 -21.458,-9.659 -21.458,-21.459c-0,-11.803 9.625,-21.458 21.458,-21.458l280.745,0c11.838,0 21.463,9.655 21.463,21.458c0,11.8 -9.625,21.459 -21.463,21.459Z" style="fill:#ebf3fa;fill-rule:nonzero;"/><path d="M8623.5,3243.14l-280.745,-0c-11.833,-0 -21.458,-9.655 -21.458,-21.455c-0,-11.799 9.625,-21.458 21.458,-21.458l280.745,0c11.838,0 21.463,9.659 21.463,21.458c0,11.8 -9.625,21.455 -21.463,21.455Z" style="fill:#ebf3fa;fill-rule:nonzero;"/><path d="M7524,5267.62l-668.459,-0c-15.625,-0 -28.416,-12.792 -28.416,-28.458c0,-15.625 12.791,-28.459 28.416,-28.459l668.459,0c15.667,0 28.458,12.834 28.458,28.459c0,15.666 -12.791,28.458 -28.458,28.458Z" style="fill:#ebf3fa;fill-rule:nonzero;"/><path d="M4256.54,3314.68l-668.434,-0c-15.65,-0 -28.454,-12.8 -28.454,-28.45c0,-15.65 12.804,-28.454 28.454,-28.454l668.434,-0c15.662,-0 28.458,12.804 28.458,28.454c0,15.65 -12.796,28.45 -28.458,28.45Z" style="fill:#ebf3fa;fill-rule:nonzero;"/><path d="M7524,5549.92l-668.459,-0c-15.625,-0 -28.416,-12.834 -28.416,-28.459c0,-15.666 12.791,-28.458 28.416,-28.458l668.459,0c15.667,0 28.458,12.792 28.458,28.458c0,15.625 -12.791,28.459 -28.458,28.459Z" style="fill:#ebf3fa;fill-rule:nonzero;"/><path d="M7524,5408.75l-799.458,-0c-15.667,-0 -28.458,-12.792 -28.458,-28.417c-0,-15.666 12.791,-28.458 28.458,-28.458l799.458,0c15.667,0 28.458,12.792 28.458,28.458c0,15.625 -12.791,28.417 -28.458,28.417Z" style="fill:#ebf3fa;fill-rule:nonzero;"/><path d="M4058.13,3493.6l-377.158,-0c-11.917,-0 -21.667,-9.746 -21.667,-21.663l0,-13.579c0,-11.912 9.75,-21.662 21.667,-21.662l377.158,-0c11.917,-0 21.663,9.75 21.663,21.662l-0,13.579c-0,11.917 -9.746,21.663 -21.663,21.663Z" style="fill:#ebf3fa;fill-rule:nonzero;"/><path d="M3534.4,3465.14c-0,-15.713 12.742,-28.45 28.454,-28.45c15.713,-0 28.454,12.737 28.454,28.45c0,15.716 -12.741,28.454 -28.454,28.454c-15.712,-0 -28.454,-12.738 -28.454,-28.454Z" style="fill:#ebf3fa;fill-rule:nonzero;"/><path d="M4129.72,3606.83l-446.938,0c-12.912,0 -23.479,-10.566 -23.479,-23.479l0,-9.945c0,-12.913 10.567,-23.48 23.479,-23.48l446.938,0c12.912,0 23.483,10.567 23.483,23.48l0,9.945c0,12.913 -10.571,23.479 -23.483,23.479Z" style="fill:#ebf3fa;fill-rule:nonzero;"/><path d="M3534.4,3578.38c-0,-15.716 12.742,-28.454 28.454,-28.454c15.713,0 28.454,12.738 28.454,28.454c0,15.713 -12.741,28.45 -28.454,28.45c-15.712,0 -28.454,-12.737 -28.454,-28.45Z" style="fill:#ebf3fa;fill-rule:nonzero;"/><path d="M4058.13,3729.75l-377.158,0c-11.917,0 -21.667,-9.75 -21.667,-21.666l0,-13.576c0,-11.916 9.75,-21.666 21.667,-21.666l377.158,-0c11.917,-0 21.663,9.75 21.663,21.666l-0,13.576c-0,11.916 -9.746,21.666 -21.663,21.666Z" style="fill:#ebf3fa;fill-rule:nonzero;"/><path d="M3534.4,3701.3c-0,-15.712 12.742,-28.454 28.454,-28.454c15.713,-0 28.454,12.742 28.454,28.454c0,15.713 -12.741,28.454 -28.454,28.454c-15.712,0 -28.454,-12.741 -28.454,-28.454Z" style="fill:#ebf3fa;fill-rule:nonzero;"/><path d="M4671.75,3397.91c-33.083,32.307 -33.708,85.504 -1.375,118.57c15.667,16.021 36.584,24.988 59,25.246c22.375,0.259 43.542,-8.217 59.583,-23.867c33.042,-32.312 33.667,-85.504 1.376,-118.579c-32.334,-33.071 -85.542,-33.683 -118.584,-1.37Zm72.458,159.412c-4.916,0.679 -9.958,0.996 -15.041,0.938c-26.792,-0.313 -51.875,-11.042 -70.625,-30.221c-38.667,-39.592 -37.959,-103.276 1.666,-141.955l0,-0.004c39.583,-38.683 103.25,-37.946 141.917,1.646c38.709,39.592 37.958,103.275 -1.625,141.958c-15.542,15.188 -35.125,24.734 -56.292,27.638Z" style="fill:#739af0;fill-rule:nonzero;"/><path d="M4572.25,3623.91l-11.542,-11.83l97.958,-95.737l11.584,11.825l-98,95.742Z" style="fill:#739af0;fill-rule:nonzero;"/><path d="M4532.42,3651.28c-5.709,-5.833 -5.584,-15.179 0.25,-20.879l57.708,-56.384c5.833,-5.695 15.166,-5.591 20.875,0.242c5.708,5.833 5.583,15.179 -0.25,20.875l-57.708,56.388c-5.834,5.695 -15.167,5.587 -20.875,-0.242Z" style="fill:#739af0;fill-rule:nonzero;"/><path d="M8398.25,7473.96c-12.792,0.084 -26.25,-9.166 -30,-20.666l-771.292,-2348.38c-3.791,-11.5 3.542,-20.875 16.333,-20.959c12.792,-0.041 26.251,9.209 30.042,20.709l771.25,2348.33c3.792,11.5 -3.541,20.875 -16.333,20.958Z" style="fill:#2a4e96;fill-rule:nonzero;"/><path d="M9019.83,7470.38c-12.792,0.042 -26.208,-9.208 -29.999,-20.667l-771.293,-2348.38c-3.749,-11.5 3.543,-20.875 16.376,-20.958c12.791,-0.083 26.208,9.167 29.999,20.667l771.292,2348.38c3.751,11.5 -3.541,20.875 -16.375,20.958Z" style="fill:#2a4e96;fill-rule:nonzero;"/><path d="M8350.54,5428.54l-624.209,3.625c-12,0.041 -24.75,-8.709 -28.333,-19.542c-3.541,-10.792 3.417,-19.667 15.458,-19.75l624.209,-3.625c12,-0.042 24.75,8.708 28.333,19.542c3.541,10.791 -3.417,19.666 -15.458,19.75Z" style="fill:#2a4e96;fill-rule:nonzero;"/><path d="M8485.21,5838.54l-624.208,3.625c-12.042,0.083 -24.75,-8.709 -28.333,-19.5c-3.542,-10.792 3.416,-19.709 15.458,-19.792l624.208,-3.583c12,-0.084 24.751,8.708 28.334,19.5c3.541,10.791 -3.417,19.708 -15.459,19.75Z" style="fill:#2a4e96;fill-rule:nonzero;"/><path d="M8614.92,6233.46l-624.209,3.625c-12.041,0.042 -24.792,-8.708 -28.333,-19.541c-3.542,-10.792 3.417,-19.667 15.417,-19.75l624.208,-3.625c12.042,-0.084 24.787,8.708 28.333,19.541c3.537,10.792 -3.375,19.667 -15.416,19.75Z" style="fill:#2a4e96;fill-rule:nonzero;"/><path d="M8760.92,6678.04l-624.208,3.583c-12.042,0.083 -24.792,-8.708 -28.334,-19.5c-3.542,-10.792 3.416,-19.708 15.458,-19.792l624.167,-3.583c12.041,-0.083 24.792,8.708 28.334,19.5c3.582,10.792 -3.376,19.708 -15.417,19.792Z" style="fill:#2a4e96;fill-rule:nonzero;"/><path d="M8913.75,7143.33l-624.208,3.625c-12.042,0.042 -24.792,-8.708 -28.334,-19.541c-3.541,-10.792 3.417,-19.667 15.417,-19.75l624.208,-3.625c12.042,-0.042 24.792,8.708 28.334,19.541c3.542,10.792 -3.376,19.667 -15.417,19.75Z" style="fill:#2a4e96;fill-rule:nonzero;"/><path d="M7570.04,4029.35c-4.917,0.946 -9.667,-2.279 -10.625,-7.175l-10,-51.6c-0.959,-4.892 2.291,-9.666 7.166,-10.617c4.917,-0.946 9.667,2.284 10.625,7.171l10,51.604c0.917,4.892 -2.291,9.667 -7.166,10.617Z" style="fill:#2a4e96;fill-rule:nonzero;"/><path d="M7557.25,3946.92l-6.125,1.183l-14.458,-74.579l6.125,-1.184l14.458,74.58Z" style="fill:#2a4e96;fill-rule:nonzero;"/><path d="M7542.83,3452.56c0,0 -5.916,-51.366 -18.333,-71.004c-12.458,-19.633 -59.542,-32.246 -62.5,-29.362c-9.208,8.925 27.208,40.475 28.625,52.104c1.458,11.625 -18.459,3.587 -8.917,26.254c8.084,19.142 34.708,43.967 34.708,43.967l26.417,-21.959Z" style="fill:#ffb27d;fill-rule:nonzero;"/><path d="M7520.12,3446.84c17.166,-13.466 20.833,-13.208 20.833,-13.208c0,0 158.709,137.504 174.167,149.75c15.458,12.246 253.834,81.375 253.834,81.375l37.874,193.788c0,-0 -322.583,-155.801 -361.125,-187.596c-63.667,-52.542 -144.041,-199.579 -144.041,-199.579c-0,-0 5,-13.95 18.458,-24.53Z" style="fill:#e58638;fill-rule:nonzero;"/><path d="M7974.08,5309.29c0,-0 -2.75,66.208 -15.458,82.333l-176.917,1c1.209,-6.833 1.958,-22.625 26.417,-26.875c30.917,-5.375 67.25,-26.958 85.958,-67.833c19.709,-42.959 80,11.375 80,11.375Z" style="fill:#163560;fill-rule:nonzero;"/><path d="M8321.29,5299.75c-0,0 12.333,87.958 -4.417,89.5c-2.25,0.208 -71.292,1.333 -101.208,1.833c-35.167,0.584 -92.959,-0.666 -92.959,-0.666c-7.292,0.291 -12.041,-7.584 -8.333,-13.834c4.042,-6.875 11.792,-14.208 26.583,-17.041c30.792,-5.917 82.125,-28.584 100.125,-69.75c18.959,-43.292 80.209,9.958 80.209,9.958Z" style="fill:#163560;fill-rule:nonzero;"/><path d="M7882.08,4398.04c0,-0 49.209,172.166 190.167,471.083c141,298.958 147.125,443 147.125,443c0,-0 21.333,7.542 49.666,4.542c30.626,-3.25 52.251,-16.917 52.251,-16.917c-0,0 -9.167,-355.833 -75.75,-506.708c-66.584,-150.834 -80.167,-563.667 -80.167,-563.667l-283.292,168.667Z" style="fill:#233862;fill-rule:nonzero;"/><path d="M7803.08,4249.96c0,0 -3.916,266.542 42.209,593.834c46.124,327.291 24.583,479.5 24.583,479.5c0,-0 12.208,8.875 49.792,8.75c44.041,-0.209 66.583,-18.375 66.583,-18.375c-0,-0 66,-327.417 47.083,-491.209c-18.916,-163.833 90.375,-562.125 90.375,-562.125l-320.625,-10.375Z" style="fill:#2a4e96;fill-rule:nonzero;"/><path d="M8021.04,3626.17l-52.083,38.587l-75.292,-15.854c1.041,-6.867 6,-35.321 10.541,-61.1c0.25,-1.517 0.542,-3.037 0.792,-4.525c3.875,-21.933 7.25,-40.771 7.25,-40.771l70.292,-35.05l26.25,-13.071c-0.084,0.463 -2.042,24.342 -2.333,27.83c-4.917,61.9 14.583,103.954 14.583,103.954Z" style="fill:#ffb27d;fill-rule:nonzero;"/><path d="M8170.29,4282.88c-17.042,77.917 -381.625,43.708 -376.875,-3.875c0.166,-1.583 1.124,-23.583 2.458,-53.25c2.75,-64.183 6.959,-164.467 7.5,-172.304l0.041,-0.408c6.584,-66.221 12.876,-130.992 13.292,-173.301c0.375,-36.687 5.417,-74.191 12.126,-108.254c6.208,-31.433 13.833,-59.971 20.457,-82.208c4.625,-15.675 13.334,-29.446 24.834,-40.271c8.208,-7.7 17.833,-13.904 28.417,-18.117c2.875,-1.22 5.833,-2.22 8.833,-3.079c42.875,-12.454 102.292,-27.858 118.333,-23.145c43.584,12.816 76,89.545 98.917,187.341c42.875,183.038 52.792,440.079 41.667,490.871Z" style="fill:#f99746;fill-rule:nonzero;"/><path d="M8001.21,3523.3c-15.458,29.55 -73,55.104 -97,64.496c0.25,-1.517 0.542,-3.037 0.792,-4.525c3.875,-21.933 7.25,-40.771 7.25,-40.771l70.292,-35.05c15.541,-0.242 25,3.687 18.666,15.85Z" style="fill:#fca56b;fill-rule:nonzero;"/><path d="M7878.04,3538.39c-0,-0 126.875,39.575 150.333,-39.813c23.417,-79.388 55.583,-127.746 -24.459,-156.371c-79.999,-28.625 -104.749,-3 -118.999,21.6c-14.292,24.592 -39.25,162.242 -6.875,174.584Z" style="fill:#ffb27d;fill-rule:nonzero;"/><path d="M7889.88,3356.15c-0,0 8.083,92.379 27.208,88.371c19.084,-4.012 36.417,-6.983 33.626,20.862c-2.792,27.846 -29.292,60.005 29.583,64.93c58.875,4.929 143.541,-146.917 127.375,-175.667c-46.709,-82.954 -285.25,-99.696 -217.792,1.504Z" style="fill:#163560;fill-rule:nonzero;"/><path d="M7795.88,4225.75c2.75,-64.183 6.959,-164.467 7.5,-172.304l0.041,-0.408l215.376,-128.776c-0,0 8.333,300.613 -222.917,301.488Z" style="fill:#e58638;fill-rule:nonzero;"/><path d="M7624.67,3956.27c-0,-0 -43.75,-29.608 -52.083,-32.188c-8.292,-2.579 -35.501,-5.375 -36.792,-3.233c-1.25,2.146 -4.959,8.712 -0.209,10.934c4.751,2.224 10.667,1.445 8.876,2.999c-1.751,1.55 -19.668,-6.966 -23.792,2.159c-4.125,9.125 -7.75,40.387 13.25,49.862c21,9.479 72.833,0.917 76.541,2c31.709,9.213 14.209,-32.533 14.209,-32.533Z" style="fill:#ffb27d;fill-rule:nonzero;"/><path d="M7624.25,3948.27c-0,-0 213.625,36.321 232.583,27.104c30.209,-14.713 -11.75,-231.467 -11.75,-231.467c0,0 -1.791,-49.12 55.584,-60.708c49.875,-10.071 98,27.283 98,27.283c-0,0 43.75,39.15 38.166,82.571c-12.416,96.254 -31.666,292.025 -96.083,322.033c-83,38.704 -323.292,-107.329 -323.292,-107.329c0,0 -8,-9.8 -6.875,-27.992c1,-16.049 13.667,-31.495 13.667,-31.495Z" style="fill:#f99746;fill-rule:nonzero;"/><path d="M7480.71,3427.97c0,-0 -13.666,-27.18 -15.874,-32.28c-2.167,-5.1 3.166,-4.004 8.416,-1.154c5.25,2.846 12.458,18.621 20.542,16.717c6.458,-1.508 -13.084,16.717 -13.084,16.717Z" style="fill:#ffb27d;fill-rule:nonzero;"/></g></svg>