<?xml version="1.0" encoding="UTF-8" standalone="no"?><!DOCTYPE svg PUBLIC "-//W3C//DTD SVG 1.1//EN" "http://www.w3.org/Graphics/SVG/1.1/DTD/svg11.dtd"><svg width="100%" height="100%" viewBox="0 0 992 992" version="1.1" xmlns="http://www.w3.org/2000/svg" xmlns:xlink="http://www.w3.org/1999/xlink" xml:space="preserve" xmlns:serif="http://www.serif.com/" style="fill-rule:evenodd;clip-rule:evenodd;stroke-linejoin:round;stroke-miterlimit:2;"><path d="M426.071,13.742l137.442,-0c227.72,-0 412.325,184.604 412.325,412.329l-0,137.442c-0,227.716 -184.605,412.325 -412.325,412.325l-137.442,-0c-227.721,-0 -412.329,-184.609 -412.329,-412.325l-0,-137.442c-0,-227.725 184.608,-412.329 412.329,-412.329Z" style="fill:url(#_Linear1);"/><path d="M675.167,273.267l-360.75,-0c-24.805,-0 -45.096,19.929 -45.096,44.296l-0,398.75l90.187,-88.613l315.659,0c24.8,0 45.091,-19.933 45.091,-44.304l0,-265.833c0,-24.367 -20.291,-44.296 -45.091,-44.296Z" style="fill:#fefafc;"/><defs><linearGradient id="_Linear1" x1="0" y1="0" x2="1" y2="0" gradientUnits="userSpaceOnUse" gradientTransform="matrix(989.583,-1138.39,1138.39,989.583,569.192,1558.78)"><stop offset="0" style="stop-color:#1a71bf;stop-opacity:1"/><stop offset="1" style="stop-color:#3996ef;stop-opacity:1"/></linearGradient></defs></svg>